IBM Plex Sans Hebrew-Regular.ufo
<glyph name="numbersign" format="1">
  <advance width="713"/>
  <unicode hex="0023"/>
  <outline>
    <contour>
      <point x="370" y="0" type="line" name="hr01"/>
      <point x="434" y="0" type="line"/>
      <point x="470" y="205" type="line"/>
      <point x="608" y="205" type="line"/>
      <point x="608" y="265" type="line"/>
      <point x="480" y="265" type="line"/>
      <point x="508" y="433" type="line"/>
      <point x="647" y="433" type="line"/>
      <point x="647" y="493" type="line"/>
      <point x="519" y="493" type="line"/>
      <point x="554" y="698" type="line"/>
      <point x="490" y="698" type="line"/>
      <point x="455" y="493" type="line"/>
      <point x="301" y="493" type="line"/>
      <point x="336" y="698" type="line"/>
      <point x="272" y="698" type="line"/>
      <point x="237" y="493" type="line"/>
      <point x="99" y="493" type="line"/>
      <point x="99" y="433" type="line"/>
      <point x="226" y="433" type="line"/>
      <point x="198" y="265" type="line"/>
      <point x="60" y="265" type="line"/>
      <point x="60" y="205" type="line"/>
      <point x="188" y="205" type="line"/>
      <point x="152" y="0" type="line"/>
      <point x="216" y="0" type="line"/>
      <point x="252" y="205" type="line"/>
      <point x="406" y="205" type="line"/>
    </contour>
    <contour>
      <point x="262" y="265" type="line"/>
      <point x="290" y="433" type="line"/>
      <point x="444" y="433" type="line"/>
      <point x="416" y="265" type="line"/>
    </contour>
  </outline>
</glyph>
<glyph name="percent" format="1">
  <advance width="927"/>
  <unicode hex="0025"/>
  <outline>
    <contour>
      <point x="260" y="0" type="line"/>
      <point x="744" y="698" type="line"/>
      <point x="667" y="698" type="line"/>
      <point x="183" y="0" type="line"/>
    </contour>
    <contour>
      <point x="223" y="314" type="curve" smooth="yes"/>
      <point x="324" y="314"/>
      <point x="381" y="384"/>
      <point x="381" y="512" type="curve" smooth="yes"/>
      <point x="381" y="640"/>
      <point x="324" y="710"/>
      <point x="223" y="710" type="curve" smooth="yes" name="hr01"/>
      <point x="122" y="710"/>
      <point x="65" y="640"/>
      <point x="65" y="512" type="curve" smooth="yes"/>
      <point x="65" y="384"/>
      <point x="122" y="314"/>
    </contour>
    <contour>
      <point x="223" y="366" type="curve" smooth="yes"/>
      <point x="165" y="366"/>
      <point x="137" y="406"/>
      <point x="137" y="482" type="curve" smooth="yes"/>
      <point x="137" y="542" type="line" smooth="yes"/>
      <point x="137" y="618"/>
      <point x="165" y="658"/>
      <point x="223" y="658" type="curve" smooth="yes"/>
      <point x="281" y="658"/>
      <point x="309" y="618"/>
      <point x="309" y="542" type="curve" smooth="yes"/>
      <point x="309" y="482" type="line" smooth="yes"/>
      <point x="309" y="406"/>
      <point x="281" y="366"/>
    </contour>
    <contour>
      <point x="704" y="-12" type="curve" smooth="yes"/>
      <point x="805" y="-12"/>
      <point x="862" y="58"/>
      <point x="862" y="186" type="curve" smooth="yes"/>
      <point x="862" y="314"/>
      <point x="805" y="384"/>
      <point x="704" y="384" type="curve" smooth="yes" name="hr02"/>
      <point x="603" y="384"/>
      <point x="546" y="314"/>
      <point x="546" y="186" type="curve" smooth="yes"/>
      <point x="546" y="58"/>
      <point x="603" y="-12"/>
    </contour>
    <contour>
      <point x="704" y="40" type="curve" smooth="yes"/>
      <point x="646" y="40"/>
      <point x="618" y="80"/>
      <point x="618" y="156" type="curve" smooth="yes"/>
      <point x="618" y="216" type="line" smooth="yes"/>
      <point x="618" y="292"/>
      <point x="646" y="332"/>
      <point x="704" y="332" type="curve" smooth="yes"/>
      <point x="762" y="332"/>
      <point x="790" y="292"/>
      <point x="790" y="216" type="curve" smooth="yes"/>
      <point x="790" y="156" type="line" smooth="yes"/>
      <point x="790" y="80"/>
      <point x="762" y="40"/>
    </contour>
  </outline>
</glyph>
<glyph name="ampersand" format="1">
  <advance width="694"/>
  <unicode hex="0026"/>
  <outline>
    <contour>
      <point x="564" y="0" type="line"/>
      <point x="668" y="0" type="line"/>
      <point x="532" y="145" type="line"/>
      <point x="554" y="189"/>
      <point x="571" y="241"/>
      <point x="580" y="299" type="curve"/>
      <point x="651" y="299" type="line"/>
      <point x="651" y="367" type="line"/>
      <point x="515" y="367" type="line"/>
      <point x="512" y="308"/>
      <point x="502" y="249"/>
      <point x="482" y="198" type="curve"/>
      <point x="325" y="367" type="line"/>
      <point x="413" y="416"/>
      <point x="485" y="468"/>
      <point x="485" y="560" type="curve" smooth="yes"/>
      <point x="485" y="649"/>
      <point x="416" y="710"/>
      <point x="317" y="710" type="curve" smooth="yes"/>
      <point x="208" y="710"/>
      <point x="136" y="636"/>
      <point x="136" y="542" type="curve" smooth="yes"/>
      <point x="136" y="480"/>
      <point x="167" y="428"/>
      <point x="215" y="378" type="curve"/>
      <point x="143" y="339"/>
      <point x="72" y="285"/>
      <point x="72" y="181" type="curve" smooth="yes" name="hr01"/>
      <point x="72" y="74"/>
      <point x="148" y="-12"/>
      <point x="286" y="-12" type="curve" smooth="yes" name="hr02"/>
      <point x="399" y="-12"/>
      <point x="461" y="47"/>
      <point x="489" y="82" type="curve"/>
    </contour>
    <contour>
      <point x="313" y="643" type="curve" smooth="yes"/>
      <point x="364" y="643"/>
      <point x="408" y="612"/>
      <point x="408" y="558" type="curve" smooth="yes"/>
      <point x="408" y="546" type="line" smooth="yes"/>
      <point x="408" y="491"/>
      <point x="345" y="446"/>
      <point x="282" y="412" type="curve"/>
      <point x="242" y="457"/>
      <point x="215" y="497"/>
      <point x="215" y="537" type="curve" smooth="yes"/>
      <point x="215" y="549" type="line" smooth="yes"/>
      <point x="215" y="602"/>
      <point x="256" y="643"/>
    </contour>
    <contour>
      <point x="293" y="58" type="curve" smooth="yes" name="hr03"/>
      <point x="209" y="58"/>
      <point x="155" y="104"/>
      <point x="155" y="177" type="curve" smooth="yes"/>
      <point x="155" y="192" type="line" smooth="yes"/>
      <point x="155" y="270"/>
      <point x="203" y="303"/>
      <point x="257" y="332" type="curve"/>
      <point x="444" y="130" type="line"/>
      <point x="409" y="86"/>
      <point x="360" y="58"/>
    </contour>
  </outline>
</glyph>
<glyph name="quotesingle" format="1">
  <advance width="242"/>
  <unicode hex="0027"/>
  <outline>
    <contour>
      <point x="157" y="460" type="line" name="hr00"/>
      <point x="157" y="740" type="line"/>
      <point x="85" y="740" type="line"/>
      <point x="85" y="460" type="line"/>
    </contour>
  </outline>
</glyph>
<glyph name="parenleft" format="1">
  <advance width="335"/>
  <unicode hex="0028"/>
  <outline>
    <contour>
      <point x="83" y="312" type="curve" smooth="yes" name="hr00"/>
      <point x="83" y="117"/>
      <point x="165" y="-53"/>
      <point x="264" y="-137" type="curve"/>
      <point x="340" y="-137" type="line"/>
      <point x="232" y="-41"/>
      <point x="158" y="128"/>
      <point x="158" y="268" type="curve" smooth="yes"/>
      <point x="158" y="354" type="line" smooth="yes"/>
      <point x="158" y="494"/>
      <point x="229" y="660"/>
      <point x="340" y="760" type="curve"/>
      <point x="264" y="760" type="line"/>
      <point x="162" y="673"/>
      <point x="83" y="505"/>
    </contour>
  </outline>
</glyph>
<glyph name="parenright" format="1">
  <advance width="335"/>
  <unicode hex="0029"/>
  <outline>
    <contour>
      <point x="252" y="312" type="curve" smooth="yes" name="hr00"/>
      <point x="252" y="505"/>
      <point x="173" y="673"/>
      <point x="71" y="760" type="curve"/>
      <point x="-5" y="760" type="line"/>
      <point x="106" y="660"/>
      <point x="177" y="494"/>
      <point x="177" y="354" type="curve" smooth="yes"/>
      <point x="177" y="268" type="line" smooth="yes"/>
      <point x="177" y="128"/>
      <point x="103" y="-41"/>
      <point x="-5" y="-137" type="curve"/>
      <point x="71" y="-137" type="line"/>
      <point x="170" y="-53"/>
      <point x="252" y="117"/>
    </contour>
  </outline>
</glyph>
<glyph name="plus" format="1">
  <advance width="600"/>
  <unicode hex="002B"/>
  <outline>
    <contour>
      <point x="338" y="62" type="line" name="hr00"/>
      <point x="338" y="271" type="line"/>
      <point x="533" y="271" type="line"/>
      <point x="533" y="339" type="line"/>
      <point x="338" y="339" type="line"/>
      <point x="338" y="548" type="line"/>
      <point x="262" y="548" type="line"/>
      <point x="262" y="339" type="line"/>
      <point x="67" y="339" type="line"/>
      <point x="67" y="271" type="line"/>
      <point x="262" y="271" type="line"/>
      <point x="262" y="62" type="line"/>
    </contour>
  </outline>
</glyph>
<glyph name="hyphen" format="1">
  <advance width="399"/>
  <unicode hex="002D"/>
  <outline>
    <contour>
      <point x="330" y="261" type="line" name="hr00"/>
      <point x="330" y="347" type="line"/>
      <point x="69" y="347" type="line"/>
      <point x="69" y="261" type="line"/>
    </contour>
  </outline>
</glyph>
<glyph name="period" format="1">
  <advance width="272"/>
  <unicode hex="002E"/>
  <outline>
    <contour>
      <point x="136" y="-12" type="curve" smooth="yes" name="hr00"/>
      <point x="178" y="-12"/>
      <point x="197" y="12"/>
      <point x="197" y="46" type="curve" smooth="yes"/>
      <point x="197" y="59" type="line" smooth="yes"/>
      <point x="197" y="93"/>
      <point x="178" y="117"/>
      <point x="136" y="117" type="curve" smooth="yes"/>
      <point x="94" y="117"/>
      <point x="75" y="93"/>
      <point x="75" y="59" type="curve" smooth="yes"/>
      <point x="75" y="46" type="line" smooth="yes"/>
      <point x="75" y="12"/>
      <point x="94" y="-12"/>
    </contour>
  </outline>
</glyph>
<glyph name="slash" format="1">
  <advance width="383"/>
  <unicode hex="002F"/>
  <outline>
    <contour>
      <point x="81" y="-151" type="line" name="hr00"/>
      <point x="342" y="740" type="line"/>
      <point x="270" y="740" type="line"/>
      <point x="9" y="-151" type="line"/>
    </contour>
  </outline>
</glyph>
<glyph name="one" format="1">
  <advance width="600"/>
  <unicode hex="0031"/>
  <outline>
    <contour>
      <point x="547" y="0" type="line" name="hr00"/>
      <point x="547" y="74" type="line"/>
      <point x="367" y="74" type="line"/>
      <point x="367" y="698" type="line"/>
      <point x="236" y="698" type="line"/>
      <point x="51" y="525" type="line"/>
      <point x="100" y="472" type="line"/>
      <point x="276" y="636" type="line"/>
      <point x="283" y="636" type="line"/>
      <point x="283" y="74" type="line"/>
      <point x="88" y="74" type="line"/>
      <point x="88" y="0" type="line"/>
    </contour>
  </outline>
</glyph>
<glyph name="two" format="1">
  <advance width="600"/>
  <unicode hex="0032"/>
  <outline>
    <contour>
      <point x="533" y="74" type="line" name="hr00"/>
      <point x="166" y="74" type="line"/>
      <point x="354" y="243" type="line" smooth="yes"/>
      <point x="443" y="323"/>
      <point x="507" y="399"/>
      <point x="507" y="507" type="curve" smooth="yes"/>
      <point x="507" y="626"/>
      <point x="429" y="710"/>
      <point x="293" y="710" type="curve" smooth="yes"/>
      <point x="158" y="710"/>
      <point x="96" y="628"/>
      <point x="69" y="546" type="curve"/>
      <point x="144" y="517" type="line"/>
      <point x="163" y="583"/>
      <point x="203" y="635"/>
      <point x="289" y="635" type="curve" smooth="yes"/>
      <point x="375" y="635"/>
      <point x="418" y="582"/>
      <point x="418" y="505" type="curve" smooth="yes"/>
      <point x="418" y="493" type="line" smooth="yes"/>
      <point x="418" y="426"/>
      <point x="368" y="356"/>
      <point x="303" y="296" type="curve" smooth="yes"/>
      <point x="75" y="86" type="line"/>
      <point x="75" y="0" type="line"/>
      <point x="533" y="0" type="line"/>
    </contour>
  </outline>
</glyph>
<glyph name="three" format="1">
  <advance width="600"/>
  <unicode hex="0033"/>
  <outline>
    <contour>
      <point x="185" y="402" type="line"/>
      <point x="185" y="329" type="line"/>
      <point x="267" y="329" type="line" smooth="yes"/>
      <point x="365" y="329"/>
      <point x="417" y="282"/>
      <point x="417" y="200" type="curve" smooth="yes"/>
      <point x="417" y="192" type="line" smooth="yes"/>
      <point x="417" y="110"/>
      <point x="365" y="63"/>
      <point x="267" y="63" type="curve" smooth="yes"/>
      <point x="182" y="63"/>
      <point x="141" y="100"/>
      <point x="105" y="155" type="curve"/>
      <point x="42" y="107" type="line"/>
      <point x="85" y="47"/>
      <point x="147" y="-12"/>
      <point x="268" y="-12" type="curve" smooth="yes"/>
      <point x="410" y="-12"/>
      <point x="505" y="71"/>
      <point x="505" y="191" type="curve" smooth="yes"/>
      <point x="505" y="296"/>
      <point x="433" y="352"/>
      <point x="358" y="367" type="curve"/>
      <point x="358" y="371" type="line"/>
      <point x="432" y="390"/>
      <point x="492" y="444"/>
      <point x="492" y="534" type="curve" smooth="yes" name="hr01"/>
      <point x="492" y="647"/>
      <point x="398" y="710"/>
      <point x="280" y="710" type="curve" smooth="yes"/>
      <point x="168" y="710"/>
      <point x="107" y="652"/>
      <point x="72" y="596" type="curve"/>
      <point x="134" y="548" type="line"/>
      <point x="163" y="601"/>
      <point x="206" y="635"/>
      <point x="278" y="635" type="curve" smooth="yes"/>
      <point x="352" y="635"/>
      <point x="403" y="598"/>
      <point x="403" y="525" type="curve" smooth="yes"/>
      <point x="403" y="518" type="line" smooth="yes"/>
      <point x="403" y="451"/>
      <point x="355" y="402"/>
      <point x="261" y="402" type="curve" smooth="yes"/>
    </contour>
  </outline>
</glyph>
<glyph name="four" format="1">
  <advance width="600"/>
  <unicode hex="0034"/>
  <outline>
    <contour>
      <point x="455" y="0" type="line" name="hr00"/>
      <point x="455" y="137" type="line"/>
      <point x="556" y="137" type="line"/>
      <point x="556" y="207" type="line"/>
      <point x="455" y="207" type="line"/>
      <point x="455" y="698" type="line"/>
      <point x="330" y="698" type="line"/>
      <point x="38" y="211" type="line"/>
      <point x="38" y="137" type="line"/>
      <point x="375" y="137" type="line"/>
      <point x="375" y="0" type="line"/>
    </contour>
    <contour>
      <point x="370" y="633" type="line"/>
      <point x="375" y="633" type="line"/>
      <point x="375" y="207" type="line"/>
      <point x="117" y="207" type="line"/>
    </contour>
  </outline>
</glyph>
<glyph name="seven" format="1">
  <advance width="600"/>
  <unicode hex="0037"/>
  <outline>
    <contour>
      <point x="265" y="0" type="line" name="hr00"/>
      <point x="527" y="624" type="line"/>
      <point x="527" y="698" type="line"/>
      <point x="69" y="698" type="line"/>
      <point x="69" y="496" type="line"/>
      <point x="144" y="496" type="line"/>
      <point x="144" y="626" type="line"/>
      <point x="442" y="626" type="line"/>
      <point x="175" y="0" type="line"/>
    </contour>
  </outline>
</glyph>
<glyph name="eight" format="1">
  <advance width="600"/>
  <unicode hex="0038"/>
  <outline>
    <contour>
      <point x="300" y="-12" type="curve" smooth="yes"/>
      <point x="459" y="-12"/>
      <point x="542" y="75"/>
      <point x="542" y="190" type="curve" smooth="yes"/>
      <point x="542" y="285"/>
      <point x="485" y="340"/>
      <point x="401" y="363" type="curve"/>
      <point x="401" y="371" type="line"/>
      <point x="474" y="396"/>
      <point x="521" y="455"/>
      <point x="521" y="535" type="curve" smooth="yes" name="hr01"/>
      <point x="521" y="641"/>
      <point x="439" y="710"/>
      <point x="300" y="710" type="curve" smooth="yes"/>
      <point x="161" y="710"/>
      <point x="79" y="641"/>
      <point x="79" y="535" type="curve" smooth="yes"/>
      <point x="79" y="455"/>
      <point x="126" y="396"/>
      <point x="199" y="371" type="curve"/>
      <point x="199" y="363" type="line"/>
      <point x="115" y="340"/>
      <point x="58" y="285"/>
      <point x="58" y="190" type="curve" smooth="yes" name="hr02"/>
      <point x="58" y="75"/>
      <point x="141" y="-12"/>
    </contour>
    <contour>
      <point x="300" y="61" type="curve" smooth="yes"/>
      <point x="203" y="61"/>
      <point x="147" y="107"/>
      <point x="147" y="186" type="curve" smooth="yes"/>
      <point x="147" y="207" type="line" smooth="yes"/>
      <point x="147" y="286"/>
      <point x="203" y="332"/>
      <point x="300" y="332" type="curve" smooth="yes"/>
      <point x="397" y="332"/>
      <point x="453" y="286"/>
      <point x="453" y="207" type="curve" smooth="yes"/>
      <point x="453" y="186" type="line" smooth="yes"/>
      <point x="453" y="107"/>
      <point x="397" y="61"/>
    </contour>
    <contour>
      <point x="300" y="402" type="curve" smooth="yes"/>
      <point x="213" y="402"/>
      <point x="166" y="441"/>
      <point x="166" y="512" type="curve" smooth="yes" name="hr03"/>
      <point x="166" y="527" type="line" smooth="yes"/>
      <point x="166" y="598"/>
      <point x="213" y="637"/>
      <point x="300" y="637" type="curve" smooth="yes"/>
      <point x="387" y="637"/>
      <point x="434" y="598"/>
      <point x="434" y="527" type="curve" smooth="yes"/>
      <point x="434" y="512" type="line" smooth="yes"/>
      <point x="434" y="441"/>
      <point x="387" y="402"/>
    </contour>
  </outline>
</glyph>
<glyph name="nine" format="1">
  <advance width="600"/>
  <unicode hex="0039"/>
  <outline>
    <contour>
      <point x="533" y="442" type="curve" smooth="yes" name="hr00"/>
      <point x="533" y="608"/>
      <point x="444" y="710"/>
      <point x="299" y="710" type="curve" smooth="yes"/>
      <point x="159" y="710"/>
      <point x="67" y="616"/>
      <point x="67" y="479" type="curve" smooth="yes"/>
      <point x="67" y="347"/>
      <point x="153" y="264"/>
      <point x="273" y="264" type="curve" smooth="yes"/>
      <point x="358" y="264"/>
      <point x="408" y="307"/>
      <point x="441" y="364" type="curve"/>
      <point x="446" y="362" type="line"/>
      <point x="408" y="200"/>
      <point x="325" y="109"/>
      <point x="176" y="0" type="curve"/>
      <point x="284" y="0" type="line"/>
      <point x="396" y="73"/>
      <point x="533" y="235"/>
    </contour>
    <contour>
      <point x="300" y="335" type="curve" smooth="yes"/>
      <point x="208" y="335"/>
      <point x="154" y="388"/>
      <point x="154" y="482" type="curve" smooth="yes"/>
      <point x="154" y="490" type="line" smooth="yes"/>
      <point x="154" y="584"/>
      <point x="208" y="637"/>
      <point x="300" y="637" type="curve" smooth="yes"/>
      <point x="392" y="637"/>
      <point x="446" y="584"/>
      <point x="446" y="490" type="curve" smooth="yes"/>
      <point x="446" y="482" type="line" smooth="yes"/>
      <point x="446" y="388"/>
      <point x="392" y="335"/>
    </contour>
  </outline>
</glyph>
<glyph name="less" format="1">
  <advance width="600"/>
  <unicode hex="003C"/>
  <outline>
    <contour>
      <point x="510" y="-12" type="line" name="hr00"/>
      <point x="510" y="72" type="line"/>
      <point x="165" y="273" type="line"/>
      <point x="165" y="281" type="line"/>
      <point x="510" y="482" type="line"/>
      <point x="510" y="566" type="line"/>
      <point x="90" y="317" type="line"/>
      <point x="90" y="237" type="line"/>
    </contour>
  </outline>
</glyph>
<glyph name="equal" format="1">
  <advance width="600"/>
  <unicode hex="003D"/>
  <outline>
    <contour>
      <point x="533" y="372" type="line" name="hr00"/>
      <point x="533" y="440" type="line"/>
      <point x="67" y="440" type="line"/>
      <point x="67" y="372" type="line"/>
    </contour>
    <contour>
      <point x="533" y="172" type="line"/>
      <point x="533" y="240" type="line"/>
      <point x="67" y="240" type="line"/>
      <point x="67" y="172" type="line"/>
    </contour>
  </outline>
</glyph>
<glyph name="question" format="1">
  <advance width="477"/>
  <unicode hex="003F"/>
  <outline>
    <contour>
      <point x="256" y="208" type="line"/>
      <point x="256" y="316" type="line"/>
      <point x="344" y="333"/>
      <point x="440" y="393"/>
      <point x="440" y="521" type="curve" smooth="yes"/>
      <point x="440" y="636"/>
      <point x="362" y="710"/>
      <point x="239" y="710" type="curve" smooth="yes"/>
      <point x="114" y="710"/>
      <point x="48" y="634"/>
      <point x="23" y="548" type="curve"/>
      <point x="97" y="520" type="line"/>
      <point x="113" y="587"/>
      <point x="159" y="637"/>
      <point x="236" y="637" type="curve" smooth="yes"/>
      <point x="307" y="637"/>
      <point x="354" y="593"/>
      <point x="354" y="525" type="curve" smooth="yes"/>
      <point x="354" y="511" type="line" smooth="yes"/>
      <point x="354" y="427"/>
      <point x="288" y="377"/>
      <point x="179" y="372" type="curve"/>
      <point x="179" y="208" type="line"/>
    </contour>
    <contour>
      <point x="218" y="-12" type="curve" smooth="yes"/>
      <point x="260" y="-12"/>
      <point x="279" y="11"/>
      <point x="279" y="46" type="curve" smooth="yes" name="hr01"/>
      <point x="279" y="59" type="line" smooth="yes"/>
      <point x="279" y="94"/>
      <point x="260" y="117"/>
      <point x="218" y="117" type="curve" smooth="yes"/>
      <point x="176" y="117"/>
      <point x="157" y="94"/>
      <point x="157" y="59" type="curve" smooth="yes"/>
      <point x="157" y="46" type="line" smooth="yes"/>
      <point x="157" y="11"/>
      <point x="176" y="-12"/>
    </contour>
  </outline>
</glyph>
<glyph name="A" format="1">
  <advance width="641"/>
  <unicode hex="0041"/>
  <outline>
    <contour>
      <point x="618" y="0" type="line" name="hr00"/>
      <point x="374" y="698" type="line"/>
      <point x="267" y="698" type="line"/>
      <point x="23" y="0" type="line"/>
      <point x="108" y="0" type="line"/>
      <point x="178" y="206" type="line"/>
      <point x="460" y="206" type="line"/>
      <point x="530" y="0" type="line"/>
    </contour>
    <contour>
      <point x="439" y="280" type="line"/>
      <point x="198" y="280" type="line"/>
      <point x="316" y="620" type="line"/>
      <point x="321" y="620" type="line"/>
    </contour>
    <contour>
      <point x="322.0" y="0.0" type="move" name="bottom"/>
    </contour>
    <contour>
      <point x="618.0" y="0.0" type="move" name="bottomright"/>
    </contour>
    <contour>
      <point x="322.0" y="698.0" type="move" name="top"/>
    </contour>
  </outline>
</glyph>
<glyph name="B" format="1">
  <advance width="653"/>
  <unicode hex="0042"/>
  <outline>
    <contour>
      <point x="93" y="0" type="line"/>
      <point x="410" y="0" type="line"/>
      <point x="513" y="0"/>
      <point x="590" y="87"/>
      <point x="590" y="202" type="curve" smooth="yes"/>
      <point x="590" y="318"/>
      <point x="503" y="361"/>
      <point x="453" y="364" type="curve"/>
      <point x="453" y="370" type="line"/>
      <point x="499" y="377"/>
      <point x="566" y="414"/>
      <point x="566" y="518" type="curve" smooth="yes" name="hr01"/>
      <point x="566" y="627"/>
      <point x="495" y="698"/>
      <point x="380" y="698" type="curve" smooth="yes"/>
      <point x="93" y="698" type="line"/>
    </contour>
    <contour>
      <point x="177" y="324" type="line"/>
      <point x="384" y="324" type="line" smooth="yes"/>
      <point x="456" y="324"/>
      <point x="500" y="286"/>
      <point x="500" y="216" type="curve" smooth="yes" name="hr02"/>
      <point x="500" y="182" type="line" smooth="yes"/>
      <point x="500" y="112"/>
      <point x="456" y="74"/>
      <point x="384" y="74" type="curve" smooth="yes"/>
      <point x="177" y="74" type="line"/>
    </contour>
    <contour>
      <point x="177" y="624" type="line"/>
      <point x="370" y="624" type="line" smooth="yes"/>
      <point x="436" y="624"/>
      <point x="476" y="589"/>
      <point x="476" y="527" type="curve" smooth="yes" name="hr03"/>
      <point x="476" y="493" type="line" smooth="yes"/>
      <point x="476" y="431"/>
      <point x="436" y="396"/>
      <point x="370" y="396" type="curve" smooth="yes"/>
      <point x="177" y="396" type="line"/>
    </contour>
    <contour>
      <point x="307.0" y="0.0" type="move" name="bottom"/>
    </contour>
    <contour>
      <point x="307.0" y="698.0" type="move" name="top"/>
    </contour>
  </outline>
</glyph>
<glyph name="E" format="1">
  <advance width="583"/>
  <unicode hex="0045"/>
  <outline>
    <contour>
      <point x="519" y="0" type="line" name="hr00"/>
      <point x="519" y="74" type="line"/>
      <point x="177" y="74" type="line"/>
      <point x="177" y="316" type="line"/>
      <point x="499" y="316" type="line"/>
      <point x="499" y="390" type="line"/>
      <point x="177" y="390" type="line"/>
      <point x="177" y="624" type="line"/>
      <point x="519" y="624" type="line"/>
      <point x="519" y="698" type="line"/>
      <point x="93" y="698" type="line"/>
      <point x="93" y="0" type="line"/>
    </contour>
    <contour>
      <point x="304.0" y="0.0" type="move" name="bottom"/>
    </contour>
    <contour>
      <point x="519.0" y="0.0" type="move" name="bottomright"/>
    </contour>
    <contour>
      <point x="304.0" y="698.0" type="move" name="top"/>
    </contour>
  </outline>
</glyph>
<glyph name="F" format="1">
  <advance width="559"/>
  <unicode hex="0046"/>
  <outline>
    <contour>
      <point x="177" y="0" type="line" name="hr00"/>
      <point x="177" y="316" type="line"/>
      <point x="480" y="316" type="line"/>
      <point x="480" y="390" type="line"/>
      <point x="177" y="390" type="line"/>
      <point x="177" y="624" type="line"/>
      <point x="509" y="624" type="line"/>
      <point x="509" y="698" type="line"/>
      <point x="93" y="698" type="line"/>
      <point x="93" y="0" type="line"/>
    </contour>
    <contour>
      <point x="139.0" y="0.0" type="move" name="bottom"/>
    </contour>
    <contour>
      <point x="301.0" y="698.0" type="move" name="top"/>
    </contour>
  </outline>
</glyph>
<glyph name="G" format="1">
  <advance width="695"/>
  <unicode hex="0047"/>
  <outline>
    <contour>
      <point x="545" y="0" type="line"/>
      <point x="623" y="0" type="line"/>
      <point x="623" y="359" type="line"/>
      <point x="387" y="359" type="line"/>
      <point x="387" y="285" type="line"/>
      <point x="541" y="285" type="line"/>
      <point x="541" y="216" type="line" smooth="yes"/>
      <point x="541" y="113"/>
      <point x="460" y="63"/>
      <point x="363" y="63" type="curve" smooth="yes" name="hr01"/>
      <point x="230" y="63"/>
      <point x="148" y="155"/>
      <point x="148" y="293" type="curve" smooth="yes"/>
      <point x="148" y="406" type="line" smooth="yes"/>
      <point x="148" y="544"/>
      <point x="232" y="635"/>
      <point x="355" y="635" type="curve" smooth="yes"/>
      <point x="443" y="635"/>
      <point x="508" y="589"/>
      <point x="540" y="515" type="curve"/>
      <point x="609" y="557" type="line"/>
      <point x="564" y="648"/>
      <point x="480" y="710"/>
      <point x="355" y="710" type="curve" smooth="yes"/>
      <point x="176" y="710"/>
      <point x="58" y="581"/>
      <point x="58" y="349" type="curve" smooth="yes"/>
      <point x="58" y="115"/>
      <point x="177" y="-12"/>
      <point x="348" y="-12" type="curve" smooth="yes"/>
      <point x="454" y="-12"/>
      <point x="525" y="37"/>
      <point x="542" y="102" type="curve" name="hr02"/>
      <point x="545" y="102" type="line"/>
    </contour>
    <contour>
      <point x="348.0" y="0.0" type="move" name="bottom"/>
    </contour>
    <contour>
      <point x="355.0" y="698.0" type="move" name="top"/>
    </contour>
  </outline>
</glyph>
<glyph name="H" format="1">
  <advance width="707"/>
  <unicode hex="0048"/>
  <outline>
    <contour>
      <point x="530" y="0" type="line" name="hr00"/>
      <point x="614" y="0" type="line"/>
      <point x="614" y="698" type="line"/>
      <point x="530" y="698" type="line"/>
      <point x="530" y="390" type="line"/>
      <point x="177" y="390" type="line"/>
      <point x="177" y="698" type="line"/>
      <point x="93" y="698" type="line"/>
      <point x="93" y="0" type="line"/>
      <point x="177" y="0" type="line"/>
      <point x="177" y="316" type="line"/>
      <point x="530" y="316" type="line"/>
    </contour>
    <contour>
      <point x="354.0" y="0.0" type="move" name="bottom"/>
    </contour>
    <contour>
      <point x="354.0" y="698.0" type="move" name="top"/>
    </contour>
  </outline>
</glyph>
<glyph name="I" format="1">
  <advance width="400"/>
  <unicode hex="0049"/>
  <outline>
    <contour>
      <point x="340" y="0" type="line" name="hr00"/>
      <point x="340" y="70" type="line"/>
      <point x="242" y="70" type="line"/>
      <point x="242" y="628" type="line"/>
      <point x="340" y="628" type="line"/>
      <point x="340" y="698" type="line"/>
      <point x="60" y="698" type="line"/>
      <point x="60" y="628" type="line"/>
      <point x="158" y="628" type="line"/>
      <point x="158" y="70" type="line"/>
      <point x="60" y="70" type="line"/>
      <point x="60" y="0" type="line"/>
    </contour>
    <contour>
      <point x="200.0" y="0.0" type="move" name="bottom"/>
    </contour>
    <contour>
      <point x="340.0" y="0.0" type="move" name="bottomright"/>
    </contour>
    <contour>
      <point x="200.0" y="698.0" type="move" name="top"/>
    </contour>
  </outline>
</glyph>
<glyph name="J" format="1">
  <advance width="510"/>
  <unicode hex="004A"/>
  <outline>
    <contour>
      <point x="98" y="698" type="line" name="hr00"/>
      <point x="98" y="624" type="line"/>
      <point x="338" y="624" type="line"/>
      <point x="338" y="196" type="line" smooth="yes"/>
      <point x="338" y="107"/>
      <point x="296" y="63"/>
      <point x="224" y="63" type="curve" smooth="yes"/>
      <point x="153" y="63"/>
      <point x="117" y="105"/>
      <point x="104" y="165" type="curve"/>
      <point x="28" y="147" type="line"/>
      <point x="47" y="52"/>
      <point x="114" y="-12"/>
      <point x="222" y="-12" type="curve" smooth="yes"/>
      <point x="340" y="-12"/>
      <point x="422" y="63"/>
      <point x="422" y="181" type="curve" smooth="yes"/>
      <point x="422" y="698" type="line"/>
    </contour>
    <contour>
      <point x="225.0" y="0.0" type="move" name="bottom"/>
    </contour>
    <contour>
      <point x="263.0" y="698.0" type="move" name="top"/>
    </contour>
  </outline>
</glyph>
<glyph name="K" format="1">
  <advance width="634"/>
  <unicode hex="004B"/>
  <outline>
    <contour>
      <point x="508" y="0" type="line" name="hr00"/>
      <point x="612" y="0" type="line"/>
      <point x="334" y="399" type="line"/>
      <point x="594" y="698" type="line"/>
      <point x="491" y="698" type="line"/>
      <point x="280" y="448" type="line"/>
      <point x="180" y="327" type="line"/>
      <point x="177" y="327" type="line"/>
      <point x="177" y="698" type="line"/>
      <point x="93" y="698" type="line"/>
      <point x="93" y="0" type="line"/>
      <point x="177" y="0" type="line"/>
      <point x="177" y="233" type="line"/>
      <point x="276" y="343" type="line"/>
    </contour>
    <contour>
      <point x="336.0" y="0.0" type="move" name="bottom"/>
    </contour>
    <contour>
      <point x="321.0" y="698.0" type="move" name="top"/>
    </contour>
  </outline>
</glyph>
<glyph name="M" format="1">
  <advance width="812"/>
  <unicode hex="004D"/>
  <outline>
    <contour>
      <point x="93" y="0" type="line" name="hr00"/>
      <point x="175" y="0" type="line"/>
      <point x="175" y="588" type="line"/>
      <point x="180" y="588" type="line"/>
      <point x="239" y="471" type="line"/>
      <point x="406" y="167" type="line"/>
      <point x="573" y="471" type="line"/>
      <point x="632" y="588" type="line"/>
      <point x="637" y="588" type="line"/>
      <point x="637" y="0" type="line"/>
      <point x="719" y="0" type="line"/>
      <point x="719" y="698" type="line"/>
      <point x="611" y="698" type="line"/>
      <point x="410" y="322" type="line"/>
      <point x="405" y="322" type="line"/>
      <point x="205" y="698" type="line"/>
      <point x="93" y="698" type="line"/>
    </contour>
    <contour>
      <point x="406.0" y="0.0" type="move" name="bottom"/>
    </contour>
    <contour>
      <point x="406.0" y="698.0" type="move" name="top"/>
    </contour>
  </outline>
</glyph>
<glyph name="O" format="1">
  <advance width="708"/>
  <unicode hex="004F"/>
  <outline>
    <contour>
      <point x="354" y="-12" type="curve" smooth="yes" name="hr00"/>
      <point x="534" y="-12"/>
      <point x="650" y="115"/>
      <point x="650" y="349" type="curve" smooth="yes"/>
      <point x="650" y="583"/>
      <point x="534" y="710"/>
      <point x="354" y="710" type="curve" smooth="yes"/>
      <point x="174" y="710"/>
      <point x="58" y="583"/>
      <point x="58" y="349" type="curve" smooth="yes"/>
      <point x="58" y="115"/>
      <point x="174" y="-12"/>
    </contour>
    <contour>
      <point x="354" y="63" type="curve" smooth="yes"/>
      <point x="233" y="63"/>
      <point x="148" y="153"/>
      <point x="148" y="291" type="curve" smooth="yes"/>
      <point x="148" y="407" type="line" smooth="yes"/>
      <point x="148" y="545"/>
      <point x="233" y="635"/>
      <point x="354" y="635" type="curve" smooth="yes"/>
      <point x="475" y="635"/>
      <point x="560" y="545"/>
      <point x="560" y="407" type="curve" smooth="yes"/>
      <point x="560" y="291" type="line" smooth="yes"/>
      <point x="560" y="153"/>
      <point x="475" y="63"/>
    </contour>
    <contour>
      <point x="354.0" y="0.0" type="move" name="bottom"/>
    </contour>
    <contour>
      <point x="354.0" y="698.0" type="move" name="top"/>
    </contour>
  </outline>
</glyph>
<glyph name="Q" format="1">
  <advance width="708"/>
  <unicode hex="0051"/>
  <outline>
    <contour>
      <point x="508" y="-94" type="line" name="hr00"/>
      <point x="401" y="-94" type="line"/>
      <point x="401" y="-9" type="line"/>
      <point x="554" y="12"/>
      <point x="650" y="136"/>
      <point x="650" y="349" type="curve" smooth="yes"/>
      <point x="650" y="583"/>
      <point x="534" y="710"/>
      <point x="354" y="710" type="curve" smooth="yes"/>
      <point x="174" y="710"/>
      <point x="58" y="583"/>
      <point x="58" y="349" type="curve" smooth="yes"/>
      <point x="58" y="130"/>
      <point x="160" y="4"/>
      <point x="321" y="-11" type="curve"/>
      <point x="321" y="-82" type="line" smooth="yes"/>
      <point x="321" y="-129"/>
      <point x="350" y="-164"/>
      <point x="405" y="-164" type="curve" smooth="yes"/>
      <point x="508" y="-164" type="line"/>
    </contour>
    <contour>
      <point x="354" y="63" type="curve" smooth="yes"/>
      <point x="233" y="63"/>
      <point x="148" y="153"/>
      <point x="148" y="291" type="curve" smooth="yes"/>
      <point x="148" y="407" type="line" smooth="yes"/>
      <point x="148" y="545"/>
      <point x="233" y="635"/>
      <point x="354" y="635" type="curve" smooth="yes"/>
      <point x="475" y="635"/>
      <point x="560" y="545"/>
      <point x="560" y="407" type="curve" smooth="yes"/>
      <point x="560" y="291" type="line" smooth="yes"/>
      <point x="560" y="153"/>
      <point x="475" y="63"/>
    </contour>
    <contour>
      <point x="354.0" y="698.0" type="move" name="top"/>
    </contour>
  </outline>
</glyph>
<glyph name="T" format="1">
  <advance width="572"/>
  <unicode hex="0054"/>
  <outline>
    <contour>
      <point x="550" y="624" type="line" name="hr00"/>
      <point x="550" y="698" type="line"/>
      <point x="22" y="698" type="line"/>
      <point x="22" y="624" type="line"/>
      <point x="244" y="624" type="line"/>
      <point x="244" y="0" type="line"/>
      <point x="328" y="0" type="line"/>
      <point x="328" y="624" type="line"/>
    </contour>
    <contour>
      <point x="286.0" y="0.0" type="move" name="bottom"/>
    </contour>
    <contour>
      <point x="286.0" y="698.0" type="move" name="top"/>
    </contour>
  </outline>
</glyph>
<glyph name="U" format="1">
  <advance width="678"/>
  <unicode hex="0055"/>
  <outline>
    <contour>
      <point x="88" y="698" type="line" name="hr00"/>
      <point x="88" y="286" type="line" smooth="yes"/>
      <point x="88" y="83"/>
      <point x="150" y="-12"/>
      <point x="336" y="-12" type="curve" smooth="yes"/>
      <point x="522" y="-12"/>
      <point x="590" y="83"/>
      <point x="590" y="286" type="curve" smooth="yes"/>
      <point x="590" y="698" type="line"/>
      <point x="506" y="698" type="line"/>
      <point x="506" y="266" type="line" smooth="yes"/>
      <point x="506" y="133"/>
      <point x="463" y="63"/>
      <point x="339" y="63" type="curve" smooth="yes"/>
      <point x="215" y="63"/>
      <point x="172" y="133"/>
      <point x="172" y="266" type="curve" smooth="yes"/>
      <point x="172" y="698" type="line"/>
    </contour>
    <contour>
      <point x="337.0" y="0.0" type="move" name="bottom"/>
    </contour>
    <contour>
      <point x="436.0" y="0.0" type="move" name="bottomright"/>
    </contour>
    <contour>
      <point x="337.0" y="698.0" type="move" name="top"/>
    </contour>
  </outline>
</glyph>
<glyph name="Z" format="1">
  <advance width="580"/>
  <unicode hex="005A"/>
  <outline>
    <contour>
      <point x="544" y="74" type="line" name="hr00"/>
      <point x="126" y="74" type="line"/>
      <point x="530" y="622" type="line"/>
      <point x="530" y="698" type="line"/>
      <point x="57" y="698" type="line"/>
      <point x="57" y="624" type="line"/>
      <point x="439" y="624" type="line"/>
      <point x="36" y="76" type="line"/>
      <point x="36" y="0" type="line"/>
      <point x="544" y="0" type="line"/>
    </contour>
    <contour>
      <point x="297.0" y="0.0" type="move" name="bottom"/>
    </contour>
    <contour>
      <point x="297.0" y="698.0" type="move" name="top"/>
    </contour>
  </outline>
</glyph>
<glyph name="bracketleft" format="1">
  <advance width="317"/>
  <unicode hex="005B"/>
  <outline>
    <contour>
      <point x="257" y="-138" type="line" name="hr00"/>
      <point x="257" y="-75" type="line"/>
      <point x="162" y="-75" type="line"/>
      <point x="162" y="697" type="line"/>
      <point x="257" y="697" type="line"/>
      <point x="257" y="760" type="line"/>
      <point x="93" y="760" type="line"/>
      <point x="93" y="-138" type="line"/>
    </contour>
  </outline>
</glyph>
<glyph name="backslash" format="1">
  <advance width="383"/>
  <unicode hex="005C"/>
  <outline>
    <contour>
      <point x="371" y="-151" type="line" name="hr00"/>
      <point x="112" y="740" type="line"/>
      <point x="40" y="740" type="line"/>
      <point x="299" y="-151" type="line"/>
    </contour>
  </outline>
</glyph>
<glyph name="bracketright" format="1">
  <advance width="317"/>
  <unicode hex="005D"/>
  <outline>
    <contour>
      <point x="60" y="760" type="line" name="hr00"/>
      <point x="60" y="697" type="line"/>
      <point x="155" y="697" type="line"/>
      <point x="155" y="-75" type="line"/>
      <point x="60" y="-75" type="line"/>
      <point x="60" y="-138" type="line"/>
      <point x="224" y="-138" type="line"/>
      <point x="224" y="760" type="line"/>
    </contour>
  </outline>
</glyph>
<glyph name="asciicircum" format="1">
  <advance width="600"/>
  <unicode hex="005E"/>
  <outline>
    <contour>
      <point x="550" y="328" type="line" name="hr00"/>
      <point x="343" y="698" type="line"/>
      <point x="257" y="698" type="line"/>
      <point x="50" y="328" type="line"/>
      <point x="111" y="296" type="line"/>
      <point x="298" y="624" type="line"/>
      <point x="302" y="624" type="line"/>
      <point x="489" y="296" type="line"/>
    </contour>
  </outline>
</glyph>
<glyph name="underscore" format="1">
  <advance width="565"/>
  <unicode hex="005F"/>
  <outline>
    <contour>
      <point x="535" y="-165" type="line" name="hr00"/>
      <point x="535" y="-95" type="line"/>
      <point x="30" y="-95" type="line"/>
      <point x="30" y="-165" type="line"/>
    </contour>
  </outline>
</glyph>
<glyph name="a" format="1">
  <advance width="534"/>
  <unicode hex="0061"/>
  <outline>
    <contour>
      <point x="505" y="0" type="line"/>
      <point x="505" y="70" type="line"/>
      <point x="446" y="70" type="line"/>
      <point x="446" y="354" type="line" smooth="yes"/>
      <point x="446" y="463"/>
      <point x="372" y="528"/>
      <point x="248" y="528" type="curve" smooth="yes"/>
      <point x="155" y="528"/>
      <point x="93" y="482"/>
      <point x="65" y="427" type="curve"/>
      <point x="113" y="382" type="line"/>
      <point x="141" y="429"/>
      <point x="182" y="459"/>
      <point x="244" y="459" type="curve" smooth="yes"/>
      <point x="326" y="459"/>
      <point x="366" y="419"/>
      <point x="366" y="346" type="curve" smooth="yes"/>
      <point x="366" y="295" type="line"/>
      <point x="264" y="295" type="line" smooth="yes"/>
      <point x="114" y="295"/>
      <point x="44" y="241"/>
      <point x="44" y="144" type="curve" smooth="yes"/>
      <point x="44" y="48"/>
      <point x="108" y="-12"/>
      <point x="217" y="-12" type="curve" smooth="yes" name="hr01"/>
      <point x="289" y="-12"/>
      <point x="344" y="21"/>
      <point x="366" y="84" type="curve"/>
      <point x="371" y="84" type="line"/>
      <point x="377" y="36"/>
      <point x="401" y="0"/>
      <point x="460" y="0" type="curve" smooth="yes" name="hr02"/>
    </contour>
    <contour>
      <point x="230" y="56" type="curve" smooth="yes" name="hr03"/>
      <point x="168" y="56"/>
      <point x="128" y="85"/>
      <point x="128" y="136" type="curve" smooth="yes"/>
      <point x="128" y="157" type="line" smooth="yes"/>
      <point x="128" y="207"/>
      <point x="169" y="235"/>
      <point x="260" y="235" type="curve" smooth="yes"/>
      <point x="366" y="235" type="line"/>
      <point x="366" y="150" type="line" smooth="yes"/>
      <point x="366" y="97"/>
      <point x="309" y="56"/>
    </contour>
    <contour>
      <point x="245.0" y="0.0" type="move" name="bottom"/>
    </contour>
    <contour>
      <point x="505.0" y="0.0" type="move" name="bottomright"/>
    </contour>
    <contour>
      <point x="252.0" y="540.0" type="move" name="top"/>
    </contour>
  </outline>
</glyph>
<glyph name="b" format="1">
  <advance width="580"/>
  <unicode hex="0062"/>
  <outline>
    <contour>
      <point x="85" y="0" type="line"/>
      <point x="165" y="0" type="line"/>
      <point x="165" y="84" type="line"/>
      <point x="169" y="84" type="line"/>
      <point x="200" y="20"/>
      <point x="249" y="-12"/>
      <point x="320" y="-12" type="curve" smooth="yes" name="hr01"/>
      <point x="449" y="-12"/>
      <point x="530" y="93"/>
      <point x="530" y="258" type="curve" smooth="yes"/>
      <point x="530" y="423"/>
      <point x="449" y="528"/>
      <point x="320" y="528" type="curve" smooth="yes"/>
      <point x="249" y="528"/>
      <point x="196" y="497"/>
      <point x="169" y="432" type="curve"/>
      <point x="165" y="432" type="line"/>
      <point x="165" y="740" type="line" name="hr02"/>
      <point x="85" y="740" type="line"/>
    </contour>
    <contour>
      <point x="298" y="60" type="curve" smooth="yes" name="hr03"/>
      <point x="225" y="60"/>
      <point x="165" y="98"/>
      <point x="165" y="165" type="curve" smooth="yes"/>
      <point x="165" y="357" type="line" smooth="yes"/>
      <point x="165" y="414"/>
      <point x="225" y="456"/>
      <point x="298" y="456" type="curve" smooth="yes"/>
      <point x="388" y="456"/>
      <point x="444" y="394"/>
      <point x="444" y="302" type="curve" smooth="yes"/>
      <point x="444" y="214" type="line" smooth="yes"/>
      <point x="444" y="122"/>
      <point x="388" y="60"/>
    </contour>
    <contour>
      <point x="308.0" y="0.0" type="move" name="bottom"/>
    </contour>
  </outline>
</glyph>
<glyph name="d" format="1">
  <advance width="580"/>
  <unicode hex="0064"/>
  <outline>
    <contour>
      <point x="415" y="0" type="line"/>
      <point x="495" y="0" type="line"/>
      <point x="495" y="740" type="line"/>
      <point x="415" y="740" type="line"/>
      <point x="415" y="432" type="line"/>
      <point x="411" y="432" type="line"/>
      <point x="384" y="497"/>
      <point x="331" y="528"/>
      <point x="260" y="528" type="curve" smooth="yes"/>
      <point x="131" y="528"/>
      <point x="50" y="423"/>
      <point x="50" y="258" type="curve" smooth="yes"/>
      <point x="50" y="93"/>
      <point x="131" y="-12"/>
      <point x="260" y="-12" type="curve" smooth="yes" name="hr01"/>
      <point x="331" y="-12"/>
      <point x="380" y="20"/>
      <point x="411" y="84" type="curve" name="hr02"/>
      <point x="415" y="84" type="line"/>
    </contour>
    <contour>
      <point x="282" y="60" type="curve" smooth="yes" name="hr03"/>
      <point x="192" y="60"/>
      <point x="136" y="122"/>
      <point x="136" y="214" type="curve" smooth="yes"/>
      <point x="136" y="302" type="line" smooth="yes"/>
      <point x="136" y="394"/>
      <point x="192" y="456"/>
      <point x="282" y="456" type="curve" smooth="yes"/>
      <point x="355" y="456"/>
      <point x="415" y="414"/>
      <point x="415" y="357" type="curve" smooth="yes"/>
      <point x="415" y="165" type="line" smooth="yes"/>
      <point x="415" y="98"/>
      <point x="355" y="60"/>
    </contour>
    <contour>
      <point x="273.0" y="0.0" type="move" name="bottom"/>
    </contour>
    <contour>
      <point x="554.0" y="740.0" type="move" name="topright"/>
    </contour>
  </outline>
</glyph>
<glyph name="f" format="1">
  <advance width="324"/>
  <unicode hex="0066"/>
  <outline>
    <contour>
      <point x="113" y="0" type="line" name="hr00"/>
      <point x="193" y="0" type="line"/>
      <point x="193" y="446" type="line"/>
      <point x="304" y="446" type="line"/>
      <point x="304" y="516" type="line"/>
      <point x="193" y="516" type="line"/>
      <point x="193" y="670" type="line"/>
      <point x="304" y="670" type="line"/>
      <point x="304" y="740" type="line"/>
      <point x="226" y="740" type="line" smooth="yes"/>
      <point x="150" y="740"/>
      <point x="113" y="691"/>
      <point x="113" y="620" type="curve" smooth="yes"/>
      <point x="113" y="516" type="line"/>
      <point x="29" y="516" type="line"/>
      <point x="29" y="446" type="line"/>
      <point x="113" y="446" type="line"/>
    </contour>
    <contour>
      <point x="154.0" y="0.0" type="move" name="bottom"/>
    </contour>
  </outline>
</glyph>
<glyph name="g" format="1">
  <advance width="528"/>
  <unicode hex="0067"/>
  <outline>
    <contour>
      <point x="520" y="-57" type="curve" smooth="yes"/>
      <point x="520" y="28"/>
      <point x="465" y="80"/>
      <point x="337" y="80" type="curve" smooth="yes"/>
      <point x="227" y="80" type="line" smooth="yes"/>
      <point x="180" y="80"/>
      <point x="148" y="88"/>
      <point x="148" y="119" type="curve" smooth="yes"/>
      <point x="148" y="151"/>
      <point x="182" y="168"/>
      <point x="216" y="177" type="curve"/>
      <point x="231" y="174"/>
      <point x="249" y="172"/>
      <point x="266" y="172" type="curve" smooth="yes"/>
      <point x="384" y="172"/>
      <point x="461" y="245"/>
      <point x="461" y="350" type="curve" smooth="yes" name="hr01"/>
      <point x="461" y="405"/>
      <point x="439" y="451"/>
      <point x="402" y="483" type="curve"/>
      <point x="402" y="516" type="line"/>
      <point x="500" y="516" type="line"/>
      <point x="500" y="586" type="line"/>
      <point x="423" y="586" type="line" smooth="yes"/>
      <point x="380" y="586"/>
      <point x="363" y="557"/>
      <point x="363" y="517" type="curve" smooth="yes"/>
      <point x="363" y="508" type="line"/>
      <point x="335" y="521"/>
      <point x="302" y="528"/>
      <point x="265" y="528" type="curve" smooth="yes" name="hr02"/>
      <point x="148" y="528"/>
      <point x="71" y="455"/>
      <point x="71" y="350" type="curve" smooth="yes"/>
      <point x="71" y="278"/>
      <point x="107" y="221"/>
      <point x="168" y="192" type="curve"/>
      <point x="168" y="188" type="line"/>
      <point x="116" y="175"/>
      <point x="79" y="150"/>
      <point x="79" y="98" type="curve" smooth="yes" name="hr03"/>
      <point x="79" y="63"/>
      <point x="96" y="40"/>
      <point x="125" y="26" type="curve"/>
      <point x="125" y="15" type="line"/>
      <point x="74" y="1"/>
      <point x="43" y="-29"/>
      <point x="43" y="-85" type="curve" smooth="yes" name="hr04"/>
      <point x="43" y="-166"/>
      <point x="109" y="-212"/>
      <point x="270" y="-212" type="curve" smooth="yes"/>
      <point x="436" y="-212"/>
      <point x="520" y="-163"/>
    </contour>
    <contour>
      <point x="445" y="-63" type="curve" smooth="yes"/>
      <point x="445" y="-119"/>
      <point x="393" y="-147"/>
      <point x="304" y="-147" type="curve" smooth="yes"/>
      <point x="230" y="-147" type="line" smooth="yes"/>
      <point x="149" y="-147"/>
      <point x="118" y="-110"/>
      <point x="118" y="-65" type="curve" smooth="yes"/>
      <point x="118" y="-33"/>
      <point x="133" y="-10"/>
      <point x="166" y="5" type="curve"/>
      <point x="338" y="5" type="line" smooth="yes"/>
      <point x="418" y="5"/>
      <point x="445" y="-22"/>
    </contour>
    <contour>
      <point x="266" y="236" type="curve" smooth="yes"/>
      <point x="198" y="236"/>
      <point x="155" y="268"/>
      <point x="155" y="336" type="curve" smooth="yes" name="hr05"/>
      <point x="155" y="364" type="line" smooth="yes"/>
      <point x="155" y="432"/>
      <point x="198" y="464"/>
      <point x="266" y="464" type="curve" smooth="yes"/>
      <point x="334" y="464"/>
      <point x="377" y="432"/>
      <point x="377" y="364" type="curve" smooth="yes"/>
      <point x="377" y="336" type="line" smooth="yes"/>
      <point x="377" y="268"/>
      <point x="334" y="236"/>
    </contour>
    <contour>
      <point x="266.0" y="540.0" type="move" name="top"/>
    </contour>
  </outline>
</glyph>
<glyph name="i" format="1">
  <advance width="250"/>
  <unicode hex="0069"/>
  <outline>
    <contour>
      <point x="125" y="637" type="curve" smooth="yes"/>
      <point x="159" y="637"/>
      <point x="174" y="655"/>
      <point x="174" y="682" type="curve" smooth="yes"/>
      <point x="174" y="695" type="line" smooth="yes"/>
      <point x="174" y="722"/>
      <point x="159" y="740"/>
      <point x="125" y="740" type="curve" smooth="yes"/>
      <point x="91" y="740"/>
      <point x="76" y="722"/>
      <point x="76" y="695" type="curve" smooth="yes"/>
      <point x="76" y="682" type="line" smooth="yes"/>
      <point x="76" y="655"/>
      <point x="91" y="637"/>
    </contour>
    <contour>
      <point x="85" y="0" type="line" name="hr01"/>
      <point x="165" y="0" type="line"/>
      <point x="165" y="516" type="line"/>
      <point x="85" y="516" type="line"/>
    </contour>
    <contour>
      <point x="125.0" y="0.0" type="move" name="bottom"/>
    </contour>
    <contour>
      <point x="165.0" y="0.0" type="move" name="bottomright"/>
    </contour>
  </outline>
</glyph>
<glyph name="j" format="1">
  <advance width="250"/>
  <unicode hex="006A"/>
  <outline>
    <contour>
      <point x="85" y="-130" type="line"/>
      <point x="1" y="-130" type="line"/>
      <point x="1" y="-200" type="line"/>
      <point x="53" y="-200" type="line" smooth="yes"/>
      <point x="130" y="-200"/>
      <point x="165" y="-151"/>
      <point x="165" y="-80" type="curve" smooth="yes"/>
      <point x="165" y="516" type="line"/>
      <point x="85" y="516" type="line"/>
    </contour>
    <contour>
      <point x="125" y="637" type="curve" smooth="yes"/>
      <point x="159" y="637"/>
      <point x="174" y="655"/>
      <point x="174" y="682" type="curve" smooth="yes" name="hr01"/>
      <point x="174" y="695" type="line" smooth="yes"/>
      <point x="174" y="722"/>
      <point x="159" y="740"/>
      <point x="125" y="740" type="curve" smooth="yes"/>
      <point x="91" y="740"/>
      <point x="76" y="722"/>
      <point x="76" y="695" type="curve" smooth="yes"/>
      <point x="76" y="682" type="line" smooth="yes"/>
      <point x="76" y="655"/>
      <point x="91" y="637"/>
    </contour>
  </outline>
</glyph>
<glyph name="k" format="1">
  <advance width="527"/>
  <unicode hex="006B"/>
  <outline>
    <contour>
      <point x="85" y="0" type="line" name="hr00"/>
      <point x="165" y="0" type="line"/>
      <point x="165" y="184" type="line"/>
      <point x="242" y="263" type="line"/>
      <point x="413" y="0" type="line"/>
      <point x="510" y="0" type="line"/>
      <point x="300" y="312" type="line"/>
      <point x="491" y="516" type="line"/>
      <point x="394" y="516" type="line"/>
      <point x="248" y="359" type="line"/>
      <point x="169" y="271" type="line"/>
      <point x="165" y="271" type="line"/>
      <point x="165" y="740" type="line"/>
      <point x="85" y="740" type="line"/>
    </contour>
    <contour>
      <point x="292.0" y="0.0" type="move" name="bottom"/>
    </contour>
  </outline>
</glyph>
<glyph name="l" format="1">
  <advance width="272"/>
  <unicode hex="006C"/>
  <outline>
    <contour>
      <point x="241" y="0" type="line" name="hr00"/>
      <point x="241" y="70" type="line"/>
      <point x="165" y="70" type="line"/>
      <point x="165" y="740" type="line"/>
      <point x="85" y="740" type="line"/>
      <point x="85" y="83" type="line" smooth="yes"/>
      <point x="85" y="35"/>
      <point x="115" y="0"/>
      <point x="170" y="0" type="curve" smooth="yes"/>
    </contour>
    <contour>
      <point x="164.0" y="0.0" type="move" name="bottom"/>
    </contour>
    <contour>
      <point x="125.0" y="740.0" type="move" name="top"/>
    </contour>
    <contour>
      <point x="224.0" y="740.0" type="move" name="topright"/>
    </contour>
  </outline>
</glyph>
<glyph name="p" format="1">
  <advance width="580"/>
  <unicode hex="0070"/>
  <outline>
    <contour>
      <point x="85" y="-200" type="line"/>
      <point x="165" y="-200" type="line"/>
      <point x="165" y="84" type="line"/>
      <point x="169" y="84" type="line"/>
      <point x="200" y="20"/>
      <point x="249" y="-12"/>
      <point x="320" y="-12" type="curve" smooth="yes"/>
      <point x="449" y="-12"/>
      <point x="530" y="93"/>
      <point x="530" y="258" type="curve" smooth="yes"/>
      <point x="530" y="423"/>
      <point x="449" y="528"/>
      <point x="320" y="528" type="curve" smooth="yes"/>
      <point x="249" y="528"/>
      <point x="196" y="497"/>
      <point x="169" y="432" type="curve"/>
      <point x="165" y="432" type="line"/>
      <point x="165" y="516" type="line" name="hr01"/>
      <point x="85" y="516" type="line"/>
    </contour>
    <contour>
      <point x="298" y="60" type="curve" smooth="yes"/>
      <point x="225" y="60"/>
      <point x="165" y="98"/>
      <point x="165" y="165" type="curve" smooth="yes"/>
      <point x="165" y="357" type="line" smooth="yes"/>
      <point x="165" y="414"/>
      <point x="225" y="456"/>
      <point x="298" y="456" type="curve" smooth="yes" name="hr02"/>
      <point x="388" y="456"/>
      <point x="444" y="394"/>
      <point x="444" y="302" type="curve" smooth="yes"/>
      <point x="444" y="214" type="line" smooth="yes"/>
      <point x="444" y="122"/>
      <point x="388" y="60"/>
    </contour>
    <contour>
      <point x="308.0" y="540.0" type="move" name="top"/>
    </contour>
  </outline>
</glyph>
<glyph name="r" format="1">
  <advance width="367"/>
  <unicode hex="0072"/>
  <outline>
    <contour>
      <point x="165" y="0" type="line" name="hr00"/>
      <point x="165" y="350" type="line"/>
      <point x="165" y="399"/>
      <point x="217" y="436"/>
      <point x="303" y="436" type="curve" smooth="yes"/>
      <point x="350" y="436" type="line"/>
      <point x="350" y="516" type="line"/>
      <point x="319" y="516" type="line" smooth="yes"/>
      <point x="235" y="516"/>
      <point x="188" y="470"/>
      <point x="170" y="421" type="curve"/>
      <point x="165" y="421" type="line"/>
      <point x="165" y="516" type="line"/>
      <point x="85" y="516" type="line"/>
      <point x="85" y="0" type="line"/>
    </contour>
    <contour>
      <point x="127.0" y="0.0" type="move" name="bottom"/>
    </contour>
    <contour>
      <point x="219.0" y="540.0" type="move" name="top"/>
    </contour>
  </outline>
</glyph>
<glyph name="t" format="1">
  <advance width="351"/>
  <unicode hex="0074"/>
  <outline>
    <contour>
      <point x="299" y="0" type="line" name="hr00"/>
      <point x="299" y="70" type="line"/>
      <point x="194" y="70" type="line"/>
      <point x="194" y="446" type="line"/>
      <point x="307" y="446" type="line"/>
      <point x="307" y="516" type="line"/>
      <point x="194" y="516" type="line"/>
      <point x="194" y="659" type="line"/>
      <point x="122" y="659" type="line"/>
      <point x="122" y="563" type="line" smooth="yes"/>
      <point x="122" y="528"/>
      <point x="111" y="516"/>
      <point x="77" y="516" type="curve" smooth="yes"/>
      <point x="29" y="516" type="line"/>
      <point x="29" y="446" type="line"/>
      <point x="114" y="446" type="line"/>
      <point x="114" y="85" type="line" smooth="yes"/>
      <point x="114" y="35"/>
      <point x="144" y="0"/>
      <point x="199" y="0" type="curve" smooth="yes"/>
    </contour>
    <contour>
      <point x="213.0" y="0.0" type="move" name="bottom"/>
    </contour>
    <contour>
      <point x="263.0" y="751.0" type="move" name="topright"/>
    </contour>
  </outline>
</glyph>
<glyph name="u" format="1">
  <advance width="568"/>
  <unicode hex="0075"/>
  <outline>
    <contour>
      <point x="403" y="0" type="line"/>
      <point x="483" y="0" type="line"/>
      <point x="483" y="516" type="line"/>
      <point x="403" y="516" type="line"/>
      <point x="403" y="159" type="line"/>
      <point x="403" y="91"/>
      <point x="341" y="60"/>
      <point x="278" y="60" type="curve" smooth="yes" name="hr01"/>
      <point x="201" y="60"/>
      <point x="160" y="107"/>
      <point x="160" y="199" type="curve" smooth="yes"/>
      <point x="160" y="516" type="line"/>
      <point x="80" y="516" type="line"/>
      <point x="80" y="185" type="line" smooth="yes"/>
      <point x="80" y="60"/>
      <point x="148" y="-12"/>
      <point x="254" y="-12" type="curve" smooth="yes"/>
      <point x="340" y="-12"/>
      <point x="379" y="35"/>
      <point x="399" y="84" type="curve" name="hr02"/>
      <point x="403" y="84" type="line"/>
    </contour>
    <contour>
      <point x="278.0" y="0.0" type="move" name="bottom"/>
    </contour>
    <contour>
      <point x="483.0" y="0.0" type="move" name="bottomright"/>
    </contour>
    <contour>
      <point x="282.0" y="540.0" type="move" name="top"/>
    </contour>
  </outline>
</glyph>
<glyph name="v" format="1">
  <advance width="492"/>
  <unicode hex="0076"/>
  <outline>
    <contour>
      <point x="292" y="0" type="line" name="hr00"/>
      <point x="474" y="516" type="line"/>
      <point x="397" y="516" type="line"/>
      <point x="305" y="260" type="line"/>
      <point x="249" y="84" type="line"/>
      <point x="244" y="84" type="line"/>
      <point x="188" y="260" type="line"/>
      <point x="98" y="516" type="line"/>
      <point x="18" y="516" type="line"/>
      <point x="199" y="0" type="line"/>
    </contour>
    <contour>
      <point x="246.0" y="0.0" type="move" name="bottom"/>
    </contour>
    <contour>
      <point x="246.0" y="540.0" type="move" name="top"/>
    </contour>
  </outline>
</glyph>
<glyph name="y" format="1">
  <advance width="499"/>
  <unicode hex="0079"/>
  <outline>
    <contour>
      <point x="278" y="165" type="line" name="hr00"/>
      <point x="250" y="81" type="line"/>
      <point x="245" y="81" type="line"/>
      <point x="221" y="165" type="line"/>
      <point x="97" y="516" type="line"/>
      <point x="17" y="516" type="line"/>
      <point x="210" y="-20" type="line"/>
      <point x="171" y="-130" type="line"/>
      <point x="90" y="-130" type="line"/>
      <point x="90" y="-200" type="line"/>
      <point x="131" y="-200" type="line" smooth="yes"/>
      <point x="207" y="-200"/>
      <point x="228" y="-182"/>
      <point x="251" y="-120" type="curve" smooth="yes"/>
      <point x="482" y="516" type="line"/>
      <point x="403" y="516" type="line"/>
    </contour>
    <contour>
      <point x="392.0" y="0.0" type="move" name="bottom"/>
    </contour>
    <contour>
      <point x="250.0" y="540.0" type="move" name="top"/>
    </contour>
  </outline>
</glyph>
<glyph name="braceleft" format="1">
  <advance width="343"/>
  <unicode hex="007B"/>
  <outline>
    <contour>
      <point x="283" y="-138" type="line" name="hr00"/>
      <point x="283" y="-75" type="line"/>
      <point x="188" y="-75" type="line"/>
      <point x="188" y="175" type="line" smooth="yes"/>
      <point x="188" y="238"/>
      <point x="149" y="292"/>
      <point x="93" y="303" type="curve"/>
      <point x="93" y="319" type="line"/>
      <point x="149" y="330"/>
      <point x="188" y="384"/>
      <point x="188" y="447" type="curve" smooth="yes"/>
      <point x="188" y="697" type="line"/>
      <point x="283" y="697" type="line"/>
      <point x="283" y="760" type="line"/>
      <point x="199" y="760" type="line" smooth="yes"/>
      <point x="146" y="760"/>
      <point x="119" y="724"/>
      <point x="119" y="678" type="curve" smooth="yes"/>
      <point x="119" y="438" type="line" smooth="yes"/>
      <point x="119" y="381"/>
      <point x="78" y="350"/>
      <point x="22" y="350" type="curve"/>
      <point x="22" y="272" type="line"/>
      <point x="78" y="272"/>
      <point x="119" y="241"/>
      <point x="119" y="184" type="curve" smooth="yes"/>
      <point x="119" y="-56" type="line" smooth="yes"/>
      <point x="119" y="-102"/>
      <point x="146" y="-138"/>
      <point x="199" y="-138" type="curve" smooth="yes"/>
    </contour>
  </outline>
</glyph>
<glyph name="bar" format="1">
  <advance width="314"/>
  <unicode hex="007C"/>
  <outline>
    <contour>
      <point x="191" y="-138" type="line" name="hr00"/>
      <point x="191" y="760" type="line"/>
      <point x="123" y="760" type="line"/>
      <point x="123" y="-138" type="line"/>
    </contour>
  </outline>
</glyph>
<glyph name="asciitilde" format="1">
  <advance width="600"/>
  <unicode hex="007E"/>
  <outline>
    <contour>
      <point x="419" y="236" type="curve" smooth="yes" name="hr00"/>
      <point x="479" y="236"/>
      <point x="512" y="258"/>
      <point x="539" y="291" type="curve"/>
      <point x="506" y="335" type="line"/>
      <point x="476" y="313"/>
      <point x="456" y="303"/>
      <point x="423" y="303" type="curve" smooth="yes"/>
      <point x="382" y="303"/>
      <point x="347" y="319"/>
      <point x="310" y="337" type="curve" smooth="yes"/>
      <point x="264" y="359"/>
      <point x="230" y="374"/>
      <point x="181" y="374" type="curve" smooth="yes"/>
      <point x="121" y="374"/>
      <point x="88" y="352"/>
      <point x="61" y="319" type="curve"/>
      <point x="94" y="275" type="line"/>
      <point x="124" y="297"/>
      <point x="144" y="307"/>
      <point x="177" y="307" type="curve" smooth="yes"/>
      <point x="218" y="307"/>
      <point x="253" y="291"/>
      <point x="290" y="273" type="curve" smooth="yes"/>
      <point x="336" y="251"/>
      <point x="370" y="236"/>
    </contour>
  </outline>
</glyph>
<glyph name="cent" format="1">
  <advance width="514"/>
  <unicode hex="00A2"/>
  <outline>
    <contour>
      <point x="305" y="-114" type="line" name="hr00"/>
      <point x="305" y="-11" type="line"/>
      <point x="389" y="-4"/>
      <point x="447" y="42"/>
      <point x="476" y="109" type="curve"/>
      <point x="418" y="148" type="line"/>
      <point x="394" y="96"/>
      <point x="356" y="66"/>
      <point x="304" y="60" type="curve"/>
      <point x="304" y="456" type="line"/>
      <point x="353" y="449"/>
      <point x="387" y="421"/>
      <point x="405" y="374" type="curve"/>
      <point x="469" y="409" type="line"/>
      <point x="441" y="473"/>
      <point x="388" y="520"/>
      <point x="305" y="527" type="curve"/>
      <point x="305" y="630" type="line"/>
      <point x="235" y="630" type="line"/>
      <point x="235" y="525" type="line"/>
      <point x="116" y="508"/>
      <point x="47" y="408"/>
      <point x="47" y="258" type="curve" smooth="yes"/>
      <point x="47" y="109"/>
      <point x="115" y="8"/>
      <point x="235" y="-9" type="curve"/>
      <point x="235" y="-114" type="line"/>
    </contour>
    <contour>
      <point x="133" y="214" type="curve" smooth="yes"/>
      <point x="133" y="302" type="line" smooth="yes"/>
      <point x="133" y="379"/>
      <point x="168" y="439"/>
      <point x="236" y="453" type="curve"/>
      <point x="236" y="63" type="line"/>
      <point x="168" y="78"/>
      <point x="133" y="138"/>
    </contour>
  </outline>
</glyph>
<glyph name="sterling" format="1">
  <advance width="595"/>
  <unicode hex="00A3"/>
  <outline>
    <contour>
      <point x="525" y="0" type="line"/>
      <point x="525" y="75" type="line"/>
      <point x="161" y="75" type="line"/>
      <point x="161" y="80" type="line"/>
      <point x="201" y="107"/>
      <point x="236" y="171"/>
      <point x="236" y="246" type="curve" smooth="yes"/>
      <point x="236" y="260"/>
      <point x="235" y="273"/>
      <point x="233" y="286" type="curve"/>
      <point x="431" y="286" type="line"/>
      <point x="431" y="356" type="line"/>
      <point x="215" y="356" type="line"/>
      <point x="202" y="398"/>
      <point x="187" y="440"/>
      <point x="187" y="491" type="curve" smooth="yes" name="hr01"/>
      <point x="187" y="588"/>
      <point x="241" y="636"/>
      <point x="327" y="636" type="curve" smooth="yes"/>
      <point x="400" y="636"/>
      <point x="447" y="603"/>
      <point x="481" y="550" type="curve"/>
      <point x="544" y="596" type="line"/>
      <point x="499" y="667"/>
      <point x="432" y="710"/>
      <point x="330" y="710" type="curve" smooth="yes"/>
      <point x="185" y="710"/>
      <point x="100" y="623"/>
      <point x="100" y="499" type="curve" smooth="yes"/>
      <point x="100" y="444"/>
      <point x="116" y="401"/>
      <point x="131" y="356" type="curve"/>
      <point x="60" y="356" type="line"/>
      <point x="60" y="286" type="line"/>
      <point x="150" y="286" type="line"/>
      <point x="152" y="271"/>
      <point x="154" y="254"/>
      <point x="154" y="237" type="curve" smooth="yes" name="hr02"/>
      <point x="154" y="181"/>
      <point x="138" y="124"/>
      <point x="82" y="100" type="curve"/>
      <point x="82" y="0" type="line"/>
    </contour>
  </outline>
</glyph>
<glyph name="currency" format="1">
  <advance width="612"/>
  <unicode hex="00A4"/>
  <outline>
    <contour>
      <point x="306" y="119" type="curve" smooth="yes" name="hr00"/>
      <point x="362" y="119"/>
      <point x="409" y="135"/>
      <point x="444" y="164" type="curve"/>
      <point x="546" y="62" type="line"/>
      <point x="594" y="109" type="line"/>
      <point x="488" y="215" type="line"/>
      <point x="509" y="252"/>
      <point x="520" y="297"/>
      <point x="520" y="349" type="curve" smooth="yes"/>
      <point x="520" y="401"/>
      <point x="509" y="446"/>
      <point x="488" y="483" type="curve"/>
      <point x="594" y="589" type="line"/>
      <point x="546" y="636" type="line"/>
      <point x="444" y="534" type="line"/>
      <point x="409" y="563"/>
      <point x="362" y="579"/>
      <point x="306" y="579" type="curve" smooth="yes"/>
      <point x="250" y="579"/>
      <point x="203" y="563"/>
      <point x="168" y="534" type="curve"/>
      <point x="66" y="636" type="line"/>
      <point x="18" y="589" type="line"/>
      <point x="124" y="483" type="line"/>
      <point x="103" y="446"/>
      <point x="92" y="401"/>
      <point x="92" y="349" type="curve" smooth="yes"/>
      <point x="92" y="297"/>
      <point x="103" y="252"/>
      <point x="124" y="215" type="curve"/>
      <point x="18" y="109" type="line"/>
      <point x="66" y="62" type="line"/>
      <point x="168" y="164" type="line"/>
      <point x="203" y="135"/>
      <point x="250" y="119"/>
    </contour>
    <contour>
      <point x="306" y="186" type="curve" smooth="yes"/>
      <point x="229" y="186"/>
      <point x="177" y="229"/>
      <point x="177" y="317" type="curve" smooth="yes"/>
      <point x="177" y="381" type="line" smooth="yes"/>
      <point x="177" y="469"/>
      <point x="229" y="512"/>
      <point x="306" y="512" type="curve" smooth="yes"/>
      <point x="383" y="512"/>
      <point x="435" y="469"/>
      <point x="435" y="381" type="curve" smooth="yes"/>
      <point x="435" y="317" type="line" smooth="yes"/>
      <point x="435" y="229"/>
      <point x="383" y="186"/>
    </contour>
  </outline>
</glyph>
<glyph name="copyright" format="1">
  <advance width="776"/>
  <unicode hex="00A9"/>
  <outline>
    <contour>
      <point x="388" y="-11" type="curve" smooth="yes" name="hr00"/>
      <point x="575" y="-11"/>
      <point x="722" y="127"/>
      <point x="722" y="349" type="curve" smooth="yes"/>
      <point x="722" y="571"/>
      <point x="575" y="709"/>
      <point x="388" y="709" type="curve" smooth="yes"/>
      <point x="201" y="709"/>
      <point x="54" y="571"/>
      <point x="54" y="349" type="curve" smooth="yes"/>
      <point x="54" y="127"/>
      <point x="201" y="-11"/>
    </contour>
    <contour>
      <point x="388" y="49" type="curve" smooth="yes"/>
      <point x="232" y="49"/>
      <point x="122" y="164"/>
      <point x="122" y="319" type="curve" smooth="yes"/>
      <point x="122" y="379" type="line" smooth="yes"/>
      <point x="122" y="534"/>
      <point x="232" y="649"/>
      <point x="388" y="649" type="curve" smooth="yes"/>
      <point x="544" y="649"/>
      <point x="654" y="534"/>
      <point x="654" y="379" type="curve" smooth="yes"/>
      <point x="654" y="319" type="line" smooth="yes"/>
      <point x="654" y="164"/>
      <point x="544" y="49"/>
    </contour>
    <contour>
      <point x="396" y="155" type="curve" smooth="yes"/>
      <point x="466" y="155"/>
      <point x="512" y="192"/>
      <point x="535" y="243" type="curve"/>
      <point x="481" y="277" type="line"/>
      <point x="461" y="241"/>
      <point x="438" y="217"/>
      <point x="396" y="217" type="curve" smooth="yes"/>
      <point x="338" y="217"/>
      <point x="307" y="258"/>
      <point x="307" y="316" type="curve" smooth="yes"/>
      <point x="307" y="381" type="line" smooth="yes"/>
      <point x="307" y="439"/>
      <point x="338" y="480"/>
      <point x="396" y="480" type="curve" smooth="yes"/>
      <point x="435" y="480"/>
      <point x="457" y="459"/>
      <point x="472" y="424" type="curve"/>
      <point x="529" y="456" type="line"/>
      <point x="506" y="508"/>
      <point x="463" y="543"/>
      <point x="396" y="543" type="curve" smooth="yes"/>
      <point x="292" y="543"/>
      <point x="231" y="467"/>
      <point x="231" y="349" type="curve" smooth="yes"/>
      <point x="231" y="231"/>
      <point x="292" y="155"/>
    </contour>
  </outline>
</glyph>
<glyph name="ordfeminine" format="1">
  <advance width="399"/>
  <unicode hex="00AA"/>
  <outline>
    <contour>
      <point x="360" y="406" type="line"/>
      <point x="323" y="406" type="line"/>
      <point x="323" y="577" type="line" smooth="yes"/>
      <point x="323" y="658"/>
      <point x="271" y="704"/>
      <point x="188" y="704" type="curve" smooth="yes"/>
      <point x="115" y="704"/>
      <point x="72" y="668"/>
      <point x="52" y="634" type="curve"/>
      <point x="94" y="600" type="line"/>
      <point x="108" y="630"/>
      <point x="140" y="652"/>
      <point x="185" y="652" type="curve" smooth="yes"/>
      <point x="234" y="652"/>
      <point x="260" y="627"/>
      <point x="260" y="574" type="curve" smooth="yes"/>
      <point x="260" y="546" type="line"/>
      <point x="189" y="546" type="line" smooth="yes"/>
      <point x="94" y="546"/>
      <point x="40" y="513"/>
      <point x="40" y="442" type="curve" smooth="yes"/>
      <point x="40" y="384"/>
      <point x="79" y="344"/>
      <point x="149" y="344" type="curve" smooth="yes" name="hr01"/>
      <point x="210" y="344"/>
      <point x="245" y="372"/>
      <point x="260" y="403" type="curve"/>
      <point x="264" y="403" type="line"/>
      <point x="264" y="367"/>
      <point x="287" y="350"/>
      <point x="326" y="350" type="curve" smooth="yes" name="hr02"/>
      <point x="360" y="350" type="line"/>
    </contour>
    <contour>
      <point x="260" y="500" type="line"/>
      <point x="260" y="459" type="line" smooth="yes"/>
      <point x="260" y="420"/>
      <point x="214" y="395"/>
      <point x="163" y="395" type="curve" smooth="yes" name="hr03"/>
      <point x="124" y="395"/>
      <point x="103" y="410"/>
      <point x="103" y="443" type="curve" smooth="yes"/>
      <point x="103" y="453" type="line" smooth="yes"/>
      <point x="103" y="484"/>
      <point x="133" y="500"/>
      <point x="187" y="500" type="curve" smooth="yes"/>
    </contour>
  </outline>
</glyph>
<glyph name="logicalnot" format="1">
  <advance width="600"/>
  <unicode hex="00AC"/>
  <outline>
    <contour>
      <point x="533" y="78" type="line" name="hr00"/>
      <point x="533" y="339" type="line"/>
      <point x="67" y="339" type="line"/>
      <point x="67" y="271" type="line"/>
      <point x="464" y="271" type="line"/>
      <point x="464" y="78" type="line"/>
    </contour>
  </outline>
</glyph>
<glyph name="registered" format="1">
  <advance width="476"/>
  <unicode hex="00AE"/>
  <outline>
    <contour>
      <point x="238" y="298" type="curve" smooth="yes" name="hr00"/>
      <point x="346" y="298"/>
      <point x="436" y="387"/>
      <point x="436" y="504" type="curve" smooth="yes"/>
      <point x="436" y="621"/>
      <point x="346" y="710"/>
      <point x="238" y="710" type="curve" smooth="yes"/>
      <point x="130" y="710"/>
      <point x="40" y="621"/>
      <point x="40" y="504" type="curve" smooth="yes"/>
      <point x="40" y="387"/>
      <point x="130" y="298"/>
    </contour>
    <contour>
      <point x="238" y="338" type="curve" smooth="yes"/>
      <point x="147" y="338"/>
      <point x="83" y="413"/>
      <point x="83" y="493" type="curve" smooth="yes"/>
      <point x="83" y="515" type="line" smooth="yes"/>
      <point x="83" y="595"/>
      <point x="147" y="670"/>
      <point x="238" y="670" type="curve" smooth="yes"/>
      <point x="329" y="670"/>
      <point x="393" y="595"/>
      <point x="393" y="515" type="curve" smooth="yes"/>
      <point x="393" y="493" type="line" smooth="yes"/>
      <point x="393" y="413"/>
      <point x="329" y="338"/>
    </contour>
    <contour>
      <point x="203" y="476" type="line"/>
      <point x="238" y="476" type="line"/>
      <point x="282" y="396" type="line"/>
      <point x="327" y="396" type="line"/>
      <point x="278" y="481" type="line"/>
      <point x="300" y="490"/>
      <point x="317" y="510"/>
      <point x="317" y="542" type="curve" smooth="yes"/>
      <point x="317" y="579"/>
      <point x="293" y="605"/>
      <point x="253" y="605" type="curve" smooth="yes"/>
      <point x="163" y="605" type="line"/>
      <point x="163" y="396" type="line"/>
      <point x="203" y="396" type="line"/>
    </contour>
    <contour>
      <point x="203" y="508" type="line"/>
      <point x="203" y="572" type="line"/>
      <point x="251" y="572" type="line" smooth="yes"/>
      <point x="266" y="572"/>
      <point x="274" y="564"/>
      <point x="274" y="551" type="curve" smooth="yes"/>
      <point x="274" y="529" type="line" smooth="yes"/>
      <point x="274" y="515"/>
      <point x="266" y="508"/>
      <point x="251" y="508" type="curve" smooth="yes"/>
    </contour>
  </outline>
</glyph>
<glyph name="macron" format="1">
  <advance width="600"/>
  <unicode hex="00AF"/>
  <outline>
    <contour>
      <point x="160" y="637" type="line" name="hr00"/>
      <point x="440" y="637" type="line"/>
      <point x="440" y="705" type="line"/>
      <point x="160" y="705" type="line"/>
    </contour>
    <contour>
      <point x="300.0" y="540.0" type="move" name="_top"/>
    </contour>
  </outline>
</glyph>
<glyph name="degree" format="1">
  <advance width="468"/>
  <unicode hex="00B0"/>
  <outline>
    <contour>
      <point x="234" y="366" type="curve" smooth="yes" name="hr00"/>
      <point x="329" y="366"/>
      <point x="402" y="440"/>
      <point x="402" y="538" type="curve" smooth="yes"/>
      <point x="402" y="636"/>
      <point x="329" y="710"/>
      <point x="234" y="710" type="curve" smooth="yes"/>
      <point x="139" y="710"/>
      <point x="66" y="636"/>
      <point x="66" y="538" type="curve" smooth="yes"/>
      <point x="66" y="440"/>
      <point x="139" y="366"/>
    </contour>
    <contour>
      <point x="234" y="430" type="curve" smooth="yes"/>
      <point x="174" y="430"/>
      <point x="136" y="478"/>
      <point x="136" y="538" type="curve" smooth="yes"/>
      <point x="136" y="598"/>
      <point x="174" y="646"/>
      <point x="234" y="646" type="curve" smooth="yes"/>
      <point x="294" y="646"/>
      <point x="332" y="598"/>
      <point x="332" y="538" type="curve" smooth="yes"/>
      <point x="332" y="478"/>
      <point x="294" y="430"/>
    </contour>
  </outline>
</glyph>
<glyph name="plusminus" format="1">
  <advance width="600"/>
  <unicode hex="00B1"/>
  <outline>
    <contour>
      <point x="338" y="152" type="line" name="hr00"/>
      <point x="338" y="351" type="line"/>
      <point x="533" y="351" type="line"/>
      <point x="533" y="419" type="line"/>
      <point x="338" y="419" type="line"/>
      <point x="338" y="618" type="line"/>
      <point x="262" y="618" type="line"/>
      <point x="262" y="419" type="line"/>
      <point x="67" y="419" type="line"/>
      <point x="67" y="351" type="line"/>
      <point x="262" y="351" type="line"/>
      <point x="262" y="152" type="line"/>
    </contour>
    <contour>
      <point x="533" y="0" type="line"/>
      <point x="533" y="68" type="line"/>
      <point x="67" y="68" type="line"/>
      <point x="67" y="0" type="line"/>
    </contour>
  </outline>
</glyph>
<glyph name="twosuperior" format="1">
  <advance width="346"/>
  <unicode hex="00B2"/>
  <outline>
    <contour>
      <point x="311" y="379" type="line" name="hr00"/>
      <point x="106" y="379" type="line"/>
      <point x="203" y="454" type="line" smooth="yes"/>
      <point x="259" y="497"/>
      <point x="298" y="537"/>
      <point x="298" y="595" type="curve" smooth="yes"/>
      <point x="298" y="659"/>
      <point x="252" y="704"/>
      <point x="170" y="704" type="curve" smooth="yes"/>
      <point x="90" y="704"/>
      <point x="50" y="661"/>
      <point x="34" y="614" type="curve"/>
      <point x="88" y="594" type="line"/>
      <point x="99" y="626"/>
      <point x="120" y="652"/>
      <point x="166" y="652" type="curve" smooth="yes"/>
      <point x="208" y="652"/>
      <point x="231" y="629"/>
      <point x="231" y="595" type="curve" smooth="yes"/>
      <point x="231" y="589" type="line" smooth="yes"/>
      <point x="231" y="553"/>
      <point x="208" y="523"/>
      <point x="169" y="491" type="curve" smooth="yes"/>
      <point x="39" y="386" type="line"/>
      <point x="39" y="329" type="line"/>
      <point x="311" y="329" type="line"/>
    </contour>
  </outline>
</glyph>
<glyph name="acute" format="1">
  <advance width="600"/>
  <unicode hex="00B4"/>
  <outline>
    <contour>
      <point x="413" y="744" type="line" name="hr00"/>
      <point x="340" y="779" type="line"/>
      <point x="255" y="609" type="line"/>
      <point x="307" y="585" type="line"/>
    </contour>
    <contour>
      <point x="300.0" y="540.0" type="move" name="_top"/>
    </contour>
  </outline>
</glyph>
<glyph name="mu" format="1">
  <advance width="573"/>
  <unicode hex="00B5"/>
  <outline>
    <contour>
      <point x="165" y="-200" type="line"/>
      <point x="165" y="-45" type="line"/>
      <point x="158" y="40" type="line"/>
      <point x="161" y="40" type="line"/>
      <point x="180" y="5"/>
      <point x="212" y="-12"/>
      <point x="262" y="-12" type="curve" smooth="yes"/>
      <point x="344" y="-12"/>
      <point x="384" y="35"/>
      <point x="404" y="84" type="curve"/>
      <point x="408" y="84" type="line"/>
      <point x="408" y="0" type="line" name="hr01"/>
      <point x="488" y="0" type="line"/>
      <point x="488" y="516" type="line"/>
      <point x="408" y="516" type="line"/>
      <point x="408" y="160" type="line"/>
      <point x="408" y="92"/>
      <point x="346" y="60"/>
      <point x="282" y="60" type="curve" smooth="yes" name="hr02"/>
      <point x="206" y="60"/>
      <point x="165" y="107"/>
      <point x="165" y="199" type="curve" smooth="yes"/>
      <point x="165" y="516" type="line"/>
      <point x="85" y="516" type="line"/>
      <point x="85" y="-200" type="line"/>
    </contour>
  </outline>
</glyph>
<glyph name="periodcentered" format="1">
  <advance width="326"/>
  <unicode hex="00B7"/>
  <outline>
    <contour>
      <point x="163" y="240" type="curve" smooth="yes" name="hr00"/>
      <point x="205" y="240"/>
      <point x="224" y="264"/>
      <point x="224" y="298" type="curve" smooth="yes"/>
      <point x="224" y="311" type="line" smooth="yes"/>
      <point x="224" y="345"/>
      <point x="205" y="369"/>
      <point x="163" y="369" type="curve" smooth="yes"/>
      <point x="121" y="369"/>
      <point x="102" y="345"/>
      <point x="102" y="311" type="curve" smooth="yes"/>
      <point x="102" y="298" type="line" smooth="yes"/>
      <point x="102" y="264"/>
      <point x="121" y="240"/>
    </contour>
  </outline>
</glyph>
<glyph name="onesuperior" format="1">
  <advance width="359"/>
  <unicode hex="00B9"/>
  <outline>
    <contour>
      <point x="325" y="329" type="line" name="hr00"/>
      <point x="325" y="379" type="line"/>
      <point x="227" y="379" type="line"/>
      <point x="227" y="698" type="line"/>
      <point x="134" y="698" type="line"/>
      <point x="32" y="595" type="line"/>
      <point x="68" y="558" type="line"/>
      <point x="158" y="647" type="line"/>
      <point x="164" y="647" type="line"/>
      <point x="164" y="379" type="line"/>
      <point x="55" y="379" type="line"/>
      <point x="55" y="329" type="line"/>
    </contour>
  </outline>
</glyph>
<glyph name="ordmasculine" format="1">
  <advance width="398"/>
  <unicode hex="00BA"/>
  <outline>
    <contour>
      <point x="199" y="344" type="curve" smooth="yes" name="hr00"/>
      <point x="296" y="344"/>
      <point x="354" y="412"/>
      <point x="354" y="524" type="curve" smooth="yes"/>
      <point x="354" y="636"/>
      <point x="296" y="704"/>
      <point x="199" y="704" type="curve" smooth="yes"/>
      <point x="102" y="704"/>
      <point x="44" y="636"/>
      <point x="44" y="524" type="curve" smooth="yes"/>
      <point x="44" y="412"/>
      <point x="102" y="344"/>
    </contour>
    <contour>
      <point x="199" y="396" type="curve" smooth="yes"/>
      <point x="141" y="396"/>
      <point x="112" y="436"/>
      <point x="112" y="493" type="curve" smooth="yes"/>
      <point x="112" y="555" type="line" smooth="yes"/>
      <point x="112" y="612"/>
      <point x="141" y="652"/>
      <point x="199" y="652" type="curve" smooth="yes"/>
      <point x="257" y="652"/>
      <point x="286" y="612"/>
      <point x="286" y="555" type="curve" smooth="yes"/>
      <point x="286" y="493" type="line" smooth="yes"/>
      <point x="286" y="436"/>
      <point x="257" y="396"/>
    </contour>
  </outline>
</glyph>
<glyph name="AE" format="1">
  <advance width="907"/>
  <unicode hex="00C6"/>
  <outline>
    <contour>
      <point x="417" y="0" type="line" name="hr00"/>
      <point x="843" y="0" type="line"/>
      <point x="843" y="74" type="line"/>
      <point x="500" y="74" type="line"/>
      <point x="500" y="316" type="line"/>
      <point x="823" y="316" type="line"/>
      <point x="823" y="390" type="line"/>
      <point x="500" y="390" type="line"/>
      <point x="500" y="624" type="line"/>
      <point x="843" y="624" type="line"/>
      <point x="843" y="698" type="line"/>
      <point x="361" y="698" type="line"/>
      <point x="4" y="0" type="line"/>
      <point x="90" y="0" type="line"/>
      <point x="192" y="205" type="line"/>
      <point x="417" y="205" type="line"/>
    </contour>
    <contour>
      <point x="417" y="624" type="line"/>
      <point x="417" y="279" type="line"/>
      <point x="227" y="279" type="line"/>
      <point x="404" y="624" type="line"/>
    </contour>
    <contour>
      <point x="591.0" y="698.0" type="move" name="top"/>
    </contour>
  </outline>
</glyph>
<glyph name="multiply" format="1">
  <advance width="600"/>
  <unicode hex="00D7"/>
  <outline>
    <contour>
      <point x="459" y="93" type="line" name="hr00"/>
      <point x="508" y="142" type="line"/>
      <point x="349" y="305" type="line"/>
      <point x="508" y="468" type="line"/>
      <point x="459" y="517" type="line"/>
      <point x="300" y="354" type="line"/>
      <point x="141" y="517" type="line"/>
      <point x="92" y="468" type="line"/>
      <point x="251" y="305" type="line"/>
      <point x="92" y="142" type="line"/>
      <point x="141" y="93" type="line"/>
      <point x="300" y="256" type="line"/>
    </contour>
  </outline>
</glyph>
<glyph name="Thorn" format="1">
  <advance width="606"/>
  <unicode hex="00DE"/>
  <outline>
    <contour>
      <point x="177" y="0" type="line" name="hr00"/>
      <point x="177" y="154" type="line"/>
      <point x="371" y="154" type="line" smooth="yes"/>
      <point x="496" y="154"/>
      <point x="566" y="232"/>
      <point x="566" y="354" type="curve" smooth="yes"/>
      <point x="566" y="476"/>
      <point x="496" y="554"/>
      <point x="371" y="554" type="curve" smooth="yes"/>
      <point x="177" y="554" type="line"/>
      <point x="177" y="698" type="line"/>
      <point x="93" y="698" type="line"/>
      <point x="93" y="0" type="line"/>
    </contour>
    <contour>
      <point x="177" y="479" type="line"/>
      <point x="371" y="479" type="line" smooth="yes"/>
      <point x="437" y="479"/>
      <point x="476" y="442"/>
      <point x="476" y="379" type="curve" smooth="yes"/>
      <point x="476" y="329" type="line" smooth="yes"/>
      <point x="476" y="266"/>
      <point x="437" y="229"/>
      <point x="371" y="229" type="curve" smooth="yes"/>
      <point x="177" y="229" type="line"/>
    </contour>
  </outline>
</glyph>
<glyph name="germandbls" format="1">
  <advance width="640"/>
  <unicode hex="00DF"/>
  <outline>
    <contour>
      <point x="613" y="149" type="curve" smooth="yes"/>
      <point x="613" y="226"/>
      <point x="573" y="269"/>
      <point x="475" y="292" type="curve" smooth="yes"/>
      <point x="445" y="299" type="line" smooth="yes"/>
      <point x="395" y="311"/>
      <point x="366" y="330"/>
      <point x="366" y="380" type="curve" smooth="yes"/>
      <point x="366" y="437"/>
      <point x="414" y="460"/>
      <point x="498" y="460" type="curve" smooth="yes"/>
      <point x="545" y="460" type="line" name="hr01"/>
      <point x="545" y="521" type="line" smooth="yes"/>
      <point x="545" y="661"/>
      <point x="466" y="752"/>
      <point x="329" y="752" type="curve" smooth="yes"/>
      <point x="191" y="752"/>
      <point x="113" y="661"/>
      <point x="113" y="521" type="curve" smooth="yes"/>
      <point x="113" y="516" type="line"/>
      <point x="29" y="516" type="line"/>
      <point x="29" y="446" type="line"/>
      <point x="113" y="446" type="line"/>
      <point x="113" y="0" type="line"/>
      <point x="193" y="0" type="line"/>
      <point x="193" y="527" type="line" smooth="yes"/>
      <point x="193" y="633"/>
      <point x="235" y="684"/>
      <point x="329" y="684" type="curve" smooth="yes"/>
      <point x="423" y="684"/>
      <point x="467" y="633"/>
      <point x="467" y="527" type="curve" smooth="yes"/>
      <point x="467" y="522" type="line"/>
      <point x="358" y="520"/>
      <point x="289" y="467"/>
      <point x="289" y="376" type="curve" smooth="yes"/>
      <point x="289" y="280"/>
      <point x="353" y="247"/>
      <point x="435" y="228" type="curve" smooth="yes"/>
      <point x="466" y="221" type="line" smooth="yes"/>
      <point x="521" y="209"/>
      <point x="536" y="180"/>
      <point x="536" y="140" type="curve" smooth="yes" name="hr02"/>
      <point x="536" y="87"/>
      <point x="500" y="56"/>
      <point x="438" y="56" type="curve" smooth="yes"/>
      <point x="385" y="56"/>
      <point x="344" y="77"/>
      <point x="309" y="120" type="curve"/>
      <point x="255" y="72" type="line"/>
      <point x="296" y="19"/>
      <point x="352" y="-12"/>
      <point x="432" y="-12" type="curve" smooth="yes"/>
      <point x="544" y="-12"/>
      <point x="613" y="49"/>
    </contour>
  </outline>
</glyph>
<glyph name="eth" format="1">
  <advance width="555"/>
  <unicode hex="00F0"/>
  <outline>
    <contour>
      <point x="385" y="753" type="line" name="hr00"/>
      <point x="300" y="692" type="line"/>
      <point x="277" y="712"/>
      <point x="254" y="728"/>
      <point x="234" y="740" type="curve"/>
      <point x="111" y="740" type="line"/>
      <point x="155" y="714"/>
      <point x="200" y="684"/>
      <point x="242" y="650" type="curve"/>
      <point x="172" y="600" type="line"/>
      <point x="203" y="559" type="line"/>
      <point x="282" y="615" type="line"/>
      <point x="346" y="555"/>
      <point x="396" y="484"/>
      <point x="410" y="408" type="curve"/>
      <point x="406" y="406" type="line"/>
      <point x="386" y="467"/>
      <point x="341" y="504"/>
      <point x="276" y="504" type="curve" smooth="yes"/>
      <point x="135" y="504"/>
      <point x="47" y="398"/>
      <point x="47" y="246" type="curve" smooth="yes"/>
      <point x="47" y="94"/>
      <point x="135" y="-12"/>
      <point x="276" y="-12" type="curve" smooth="yes"/>
      <point x="410" y="-12"/>
      <point x="505" y="84"/>
      <point x="505" y="271" type="curve" smooth="yes"/>
      <point x="505" y="447"/>
      <point x="424" y="574"/>
      <point x="340" y="656" type="curve"/>
      <point x="418" y="712" type="line"/>
    </contour>
    <contour>
      <point x="276" y="57" type="curve" smooth="yes"/>
      <point x="190" y="57"/>
      <point x="133" y="118"/>
      <point x="133" y="213" type="curve" smooth="yes"/>
      <point x="133" y="279" type="line" smooth="yes"/>
      <point x="133" y="374"/>
      <point x="190" y="435"/>
      <point x="276" y="435" type="curve" smooth="yes"/>
      <point x="362" y="435"/>
      <point x="419" y="374"/>
      <point x="419" y="279" type="curve" smooth="yes"/>
      <point x="419" y="213" type="line" smooth="yes"/>
      <point x="419" y="118"/>
      <point x="362" y="57"/>
    </contour>
  </outline>
</glyph>
<glyph name="thorn" format="1">
  <advance width="580"/>
  <unicode hex="00FE"/>
  <outline>
    <contour>
      <point x="85" y="-200" type="line" name="hr00"/>
      <point x="165" y="-200" type="line"/>
      <point x="165" y="84" type="line"/>
      <point x="169" y="84" type="line"/>
      <point x="200" y="20"/>
      <point x="249" y="-12"/>
      <point x="320" y="-12" type="curve" smooth="yes"/>
      <point x="449" y="-12"/>
      <point x="530" y="93"/>
      <point x="530" y="258" type="curve" smooth="yes"/>
      <point x="530" y="423"/>
      <point x="449" y="528"/>
      <point x="320" y="528" type="curve" smooth="yes"/>
      <point x="249" y="528"/>
      <point x="196" y="497"/>
      <point x="169" y="432" type="curve"/>
      <point x="165" y="432" type="line"/>
      <point x="165" y="740" type="line"/>
      <point x="85" y="740" type="line"/>
    </contour>
    <contour>
      <point x="298" y="60" type="curve" smooth="yes"/>
      <point x="225" y="60"/>
      <point x="165" y="98"/>
      <point x="165" y="165" type="curve" smooth="yes"/>
      <point x="165" y="357" type="line" smooth="yes"/>
      <point x="165" y="414"/>
      <point x="225" y="456"/>
      <point x="298" y="456" type="curve" smooth="yes"/>
      <point x="388" y="456"/>
      <point x="444" y="394"/>
      <point x="444" y="302" type="curve" smooth="yes"/>
      <point x="444" y="214" type="line" smooth="yes"/>
      <point x="444" y="122"/>
      <point x="388" y="60"/>
    </contour>
  </outline>
</glyph>
<glyph name="Dcroat" format="1">
  <advance width="674"/>
  <unicode hex="0110"/>
  <outline>
    <contour>
      <point x="96" y="0" type="line" name="hr00"/>
      <point x="330" y="0" type="line" smooth="yes"/>
      <point x="504" y="0"/>
      <point x="616" y="116"/>
      <point x="616" y="349" type="curve" smooth="yes"/>
      <point x="616" y="582"/>
      <point x="504" y="698"/>
      <point x="330" y="698" type="curve" smooth="yes"/>
      <point x="96" y="698" type="line"/>
      <point x="96" y="401" type="line"/>
      <point x="17" y="401" type="line"/>
      <point x="17" y="337" type="line"/>
      <point x="96" y="337" type="line"/>
    </contour>
    <contour>
      <point x="180" y="74" type="line"/>
      <point x="180" y="337" type="line"/>
      <point x="317" y="337" type="line"/>
      <point x="317" y="401" type="line"/>
      <point x="180" y="401" type="line"/>
      <point x="180" y="624" type="line"/>
      <point x="330" y="624" type="line" smooth="yes"/>
      <point x="445" y="624"/>
      <point x="526" y="544"/>
      <point x="526" y="406" type="curve" smooth="yes"/>
      <point x="526" y="292" type="line" smooth="yes"/>
      <point x="526" y="154"/>
      <point x="445" y="74"/>
      <point x="330" y="74" type="curve" smooth="yes"/>
    </contour>
  </outline>
</glyph>
<glyph name="dotlessi" format="1">
  <advance width="250"/>
  <unicode hex="0131"/>
  <outline>
    <contour>
      <point x="165" y="0" type="line" name="hr00"/>
      <point x="165" y="516" type="line"/>
      <point x="85" y="516" type="line"/>
      <point x="85" y="0" type="line"/>
    </contour>
    <contour>
      <point x="125.0" y="540.0" type="move" name="top"/>
    </contour>
  </outline>
</glyph>
<glyph name="IJ" format="1">
  <advance width="645"/>
  <unicode hex="0132"/>
  <outline>
    <contour>
      <point x="320" y="-12" type="curve" smooth="yes" name="hr00"/>
      <point x="468" y="-12"/>
      <point x="557" y="78"/>
      <point x="557" y="225" type="curve" smooth="yes"/>
      <point x="557" y="698" type="line"/>
      <point x="321" y="698" type="line"/>
      <point x="321" y="623" type="line"/>
      <point x="473" y="623" type="line"/>
      <point x="473" y="208" type="line" smooth="yes"/>
      <point x="473" y="109"/>
      <point x="416" y="63"/>
      <point x="323" y="63" type="curve" smooth="yes"/>
      <point x="229" y="63"/>
      <point x="184" y="110"/>
      <point x="169" y="172" type="curve"/>
      <point x="93" y="154" type="line"/>
      <point x="113" y="59"/>
      <point x="187" y="-12"/>
    </contour>
    <contour>
      <point x="88" y="290" type="line"/>
      <point x="172" y="290" type="line"/>
      <point x="172" y="698" type="line"/>
      <point x="88" y="698" type="line"/>
    </contour>
  </outline>
</glyph>
<glyph name="Lslash" format="1">
  <advance width="508"/>
  <unicode hex="0141"/>
  <outline>
    <contour>
      <point x="477" y="75" type="line" name="hr00"/>
      <point x="180" y="75" type="line"/>
      <point x="180" y="298" type="line"/>
      <point x="361" y="357" type="line"/>
      <point x="361" y="428" type="line"/>
      <point x="180" y="367" type="line"/>
      <point x="180" y="698" type="line"/>
      <point x="96" y="698" type="line"/>
      <point x="96" y="339" type="line"/>
      <point x="-7" y="304" type="line"/>
      <point x="-7" y="237" type="line"/>
      <point x="96" y="271" type="line"/>
      <point x="96" y="0" type="line"/>
      <point x="477" y="0" type="line"/>
    </contour>
  </outline>
</glyph>
<glyph name="lslash" format="1">
  <advance width="278"/>
  <unicode hex="0142"/>
  <outline>
    <contour>
      <point x="244" y="70" type="line" name="hr00"/>
      <point x="168" y="70" type="line"/>
      <point x="168" y="352" type="line"/>
      <point x="271" y="386" type="line"/>
      <point x="271" y="454" type="line"/>
      <point x="168" y="420" type="line"/>
      <point x="168" y="740" type="line"/>
      <point x="88" y="740" type="line"/>
      <point x="88" y="393" type="line"/>
      <point x="18" y="370" type="line"/>
      <point x="18" y="302" type="line"/>
      <point x="88" y="325" type="line"/>
      <point x="88" y="83" type="line" smooth="yes"/>
      <point x="88" y="35"/>
      <point x="118" y="0"/>
      <point x="173" y="0" type="curve" smooth="yes"/>
      <point x="244" y="0" type="line"/>
    </contour>
  </outline>
</glyph>
<glyph name="OE" format="1">
  <advance width="985"/>
  <unicode hex="0152"/>
  <outline>
    <contour>
      <point x="921" y="0" type="line"/>
      <point x="921" y="74" type="line"/>
      <point x="578" y="74" type="line"/>
      <point x="578" y="316" type="line"/>
      <point x="901" y="316" type="line"/>
      <point x="901" y="390" type="line"/>
      <point x="578" y="390" type="line"/>
      <point x="578" y="624" type="line"/>
      <point x="921" y="624" type="line"/>
      <point x="921" y="698" type="line"/>
      <point x="495" y="698" type="line"/>
      <point x="458" y="705"/>
      <point x="406" y="710"/>
      <point x="367" y="710" type="curve" smooth="yes" name="hr01"/>
      <point x="174" y="710"/>
      <point x="58" y="584"/>
      <point x="58" y="349" type="curve" smooth="yes"/>
      <point x="58" y="114"/>
      <point x="174" y="-12"/>
      <point x="367" y="-12" type="curve" smooth="yes"/>
      <point x="406" y="-12"/>
      <point x="458" y="-7"/>
      <point x="495" y="0" type="curve" name="hr02"/>
    </contour>
    <contour>
      <point x="377" y="63" type="curve" smooth="yes" name="hr03"/>
      <point x="221" y="63"/>
      <point x="148" y="153"/>
      <point x="148" y="291" type="curve" smooth="yes"/>
      <point x="148" y="407" type="line" smooth="yes"/>
      <point x="148" y="545"/>
      <point x="221" y="635"/>
      <point x="377" y="635" type="curve" smooth="yes"/>
      <point x="414" y="635"/>
      <point x="458" y="629"/>
      <point x="494" y="617" type="curve"/>
      <point x="494" y="81" type="line"/>
      <point x="458" y="69"/>
      <point x="414" y="63"/>
    </contour>
  </outline>
</glyph>
<glyph name="florin" format="1">
  <advance width="485"/>
  <unicode hex="0192"/>
  <outline>
    <contour>
      <point x="-3" y="-134" type="line" name="hr00"/>
      <point x="109" y="-134" type="line" smooth="yes"/>
      <point x="187" y="-134"/>
      <point x="228" y="-85"/>
      <point x="235" y="-16" type="curve" smooth="yes"/>
      <point x="267" y="301" type="line"/>
      <point x="436" y="301" type="line"/>
      <point x="443" y="374" type="line"/>
      <point x="274" y="374" type="line"/>
      <point x="300" y="628" type="line"/>
      <point x="453" y="628" type="line"/>
      <point x="461" y="698" type="line"/>
      <point x="340" y="698" type="line" smooth="yes"/>
      <point x="263" y="698"/>
      <point x="221" y="650"/>
      <point x="214" y="580" type="curve" smooth="yes"/>
      <point x="193" y="374" type="line"/>
      <point x="51" y="374" type="line"/>
      <point x="43" y="301" type="line"/>
      <point x="186" y="301" type="line"/>
      <point x="149" y="-64" type="line"/>
      <point x="4" y="-64" type="line"/>
    </contour>
  </outline>
</glyph>
<glyph name="dotlessj" format="1">
  <advance width="250"/>
  <unicode hex="0237"/>
  <outline>
    <contour>
      <point x="1" y="-200" type="line" name="hr00"/>
      <point x="53" y="-200" type="line" smooth="yes"/>
      <point x="130" y="-200"/>
      <point x="165" y="-151"/>
      <point x="165" y="-80" type="curve" smooth="yes"/>
      <point x="165" y="516" type="line"/>
      <point x="85" y="516" type="line"/>
      <point x="85" y="-130" type="line"/>
      <point x="1" y="-130" type="line"/>
    </contour>
    <contour>
      <point x="125.0" y="540.0" type="move" name="top"/>
    </contour>
  </outline>
</glyph>
<glyph name="caronslovak" format="1">
  <advance width="600"/>
  <unicode hex="02BC"/>
  <outline>
    <contour>
      <point x="405" y="740" type="line" name="hr00"/>
      <point x="312" y="740" type="line"/>
      <point x="300" y="555" type="line"/>
      <point x="353" y="555" type="line"/>
    </contour>
    <contour>
      <point x="300.0" y="740.0" type="move" name="_topright"/>
    </contour>
  </outline>
</glyph>
<glyph name="circumflex" format="1">
  <advance width="600"/>
  <unicode hex="02C6"/>
  <outline>
    <contour>
      <point x="250" y="765" type="line" name="hr00"/>
      <point x="139" y="622" type="line"/>
      <point x="183" y="591" type="line"/>
      <point x="300" y="708" type="line"/>
      <point x="417" y="591" type="line"/>
      <point x="461" y="622" type="line"/>
      <point x="350" y="765" type="line"/>
    </contour>
    <contour>
      <point x="300.0" y="540.0" type="move" name="_top"/>
    </contour>
  </outline>
</glyph>
<glyph name="caron" format="1">
  <advance width="600"/>
  <unicode hex="02C7"/>
  <outline>
    <contour>
      <point x="350" y="599" type="line" name="hr00"/>
      <point x="461" y="742" type="line"/>
      <point x="417" y="773" type="line"/>
      <point x="300" y="656" type="line"/>
      <point x="183" y="773" type="line"/>
      <point x="139" y="742" type="line"/>
      <point x="250" y="599" type="line"/>
    </contour>
    <contour>
      <point x="300.0" y="540.0" type="move" name="_top"/>
    </contour>
  </outline>
</glyph>
<glyph name="dotaccent" format="1">
  <advance width="600"/>
  <unicode hex="02D9"/>
  <outline>
    <contour>
      <point x="300" y="616" type="curve" smooth="yes" name="hr00"/>
      <point x="334" y="616"/>
      <point x="351" y="634"/>
      <point x="351" y="662" type="curve" smooth="yes"/>
      <point x="351" y="673" type="line" smooth="yes"/>
      <point x="351" y="701"/>
      <point x="334" y="719"/>
      <point x="300" y="719" type="curve" smooth="yes"/>
      <point x="266" y="719"/>
      <point x="249" y="701"/>
      <point x="249" y="673" type="curve" smooth="yes"/>
      <point x="249" y="662" type="line" smooth="yes"/>
      <point x="249" y="634"/>
      <point x="266" y="616"/>
    </contour>
    <contour>
      <point x="300.0" y="540.0" type="move" name="_top"/>
    </contour>
  </outline>
</glyph>
<glyph name="hungarumlaut" format="1">
  <advance width="600"/>
  <unicode hex="02DD"/>
  <outline>
    <contour>
      <point x="333" y="745" type="line" name="hr00"/>
      <point x="264" y="778" type="line"/>
      <point x="179" y="608" type="line"/>
      <point x="227" y="586" type="line"/>
    </contour>
    <contour>
      <point x="493" y="745" type="line"/>
      <point x="424" y="778" type="line"/>
      <point x="339" y="608" type="line"/>
      <point x="387" y="586" type="line"/>
    </contour>
    <contour>
      <point x="300.0" y="540.0" type="move" name="_top"/>
    </contour>
  </outline>
</glyph>
<glyph name="pi" format="1">
  <advance width="622"/>
  <unicode hex="03C0"/>
  <outline>
    <contour>
      <point x="487" y="446" type="line" name="hr00"/>
      <point x="590" y="446" type="line"/>
      <point x="590" y="516" type="line"/>
      <point x="24" y="516" type="line"/>
      <point x="24" y="446" type="line"/>
      <point x="119" y="446" type="line"/>
      <point x="119" y="0" type="line"/>
      <point x="199" y="0" type="line"/>
      <point x="199" y="446" type="line"/>
      <point x="407" y="446" type="line"/>
      <point x="407" y="82" type="line" smooth="yes"/>
      <point x="407" y="36"/>
      <point x="437" y="0"/>
      <point x="492" y="0" type="curve" smooth="yes"/>
      <point x="551" y="0" type="line"/>
      <point x="551" y="70" type="line"/>
      <point x="487" y="70" type="line"/>
    </contour>
  </outline>
</glyph>
<glyph name="sheva-hb" format="1">
  <advance width="0"/>
  <unicode hex="05B0"/>
  <outline>
    <contour>
      <point x="0" y="-140" type="curve" smooth="yes" name="hr00"/>
      <point x="29" y="-140"/>
      <point x="42" y="-124"/>
      <point x="42" y="-100" type="curve" smooth="yes"/>
      <point x="42" y="-91" type="line" smooth="yes"/>
      <point x="42" y="-67"/>
      <point x="29" y="-51"/>
      <point x="0" y="-51" type="curve" smooth="yes"/>
      <point x="-29" y="-51"/>
      <point x="-42" y="-67"/>
      <point x="-42" y="-91" type="curve" smooth="yes"/>
      <point x="-42" y="-100" type="line" smooth="yes"/>
      <point x="-42" y="-124"/>
      <point x="-29" y="-140"/>
    </contour>
    <contour>
      <point x="0" y="-278" type="curve" smooth="yes"/>
      <point x="29" y="-278"/>
      <point x="42" y="-262"/>
      <point x="42" y="-238" type="curve" smooth="yes"/>
      <point x="42" y="-229" type="line" smooth="yes"/>
      <point x="42" y="-205"/>
      <point x="29" y="-189"/>
      <point x="0" y="-189" type="curve" smooth="yes"/>
      <point x="-29" y="-189"/>
      <point x="-42" y="-205"/>
      <point x="-42" y="-229" type="curve" smooth="yes"/>
      <point x="-42" y="-238" type="line" smooth="yes"/>
      <point x="-42" y="-262"/>
      <point x="-29" y="-278"/>
    </contour>
    <contour>
      <point x="0.0" y="0.0" type="move" name="_bottom_hebr"/>
    </contour>
  </outline>
</glyph>
<glyph name="hatafsegol-hb" format="1">
  <advance width="0"/>
  <unicode hex="05B1"/>
  <outline>
    <contour>
      <point x="-149" y="-140" type="curve" smooth="yes"/>
      <point x="-120" y="-140"/>
      <point x="-107" y="-124"/>
      <point x="-107" y="-100" type="curve" smooth="yes"/>
      <point x="-107" y="-91" type="line" smooth="yes"/>
      <point x="-107" y="-67"/>
      <point x="-120" y="-51"/>
      <point x="-149" y="-51" type="curve" smooth="yes"/>
      <point x="-178" y="-51"/>
      <point x="-191" y="-67"/>
      <point x="-191" y="-91" type="curve" smooth="yes"/>
      <point x="-191" y="-100" type="line" smooth="yes"/>
      <point x="-191" y="-124"/>
      <point x="-178" y="-140"/>
    </contour>
    <contour>
      <point x="-72" y="-278" type="curve" smooth="yes"/>
      <point x="-43" y="-278"/>
      <point x="-30" y="-262"/>
      <point x="-30" y="-238" type="curve" smooth="yes" name="hr01"/>
      <point x="-30" y="-229" type="line" smooth="yes"/>
      <point x="-30" y="-205"/>
      <point x="-43" y="-189"/>
      <point x="-72" y="-189" type="curve" smooth="yes"/>
      <point x="-101" y="-189"/>
      <point x="-114" y="-205"/>
      <point x="-114" y="-229" type="curve" smooth="yes"/>
      <point x="-114" y="-238" type="line" smooth="yes"/>
      <point x="-114" y="-262"/>
      <point x="-101" y="-278"/>
    </contour>
    <contour>
      <point x="5" y="-140" type="curve" smooth="yes"/>
      <point x="34" y="-140"/>
      <point x="47" y="-124"/>
      <point x="47" y="-100" type="curve" smooth="yes" name="hr02"/>
      <point x="47" y="-91" type="line" smooth="yes"/>
      <point x="47" y="-67"/>
      <point x="34" y="-51"/>
      <point x="5" y="-51" type="curve" smooth="yes"/>
      <point x="-24" y="-51"/>
      <point x="-37" y="-67"/>
      <point x="-37" y="-91" type="curve" smooth="yes"/>
      <point x="-37" y="-100" type="line" smooth="yes"/>
      <point x="-37" y="-124"/>
      <point x="-24" y="-140"/>
    </contour>
    <contour>
      <point x="149" y="-278" type="curve" smooth="yes"/>
      <point x="178" y="-278"/>
      <point x="191" y="-262"/>
      <point x="191" y="-238" type="curve" smooth="yes"/>
      <point x="191" y="-229" type="line" smooth="yes"/>
      <point x="191" y="-205"/>
      <point x="178" y="-189"/>
      <point x="149" y="-189" type="curve" smooth="yes"/>
      <point x="120" y="-189"/>
      <point x="107" y="-205"/>
      <point x="107" y="-229" type="curve" smooth="yes"/>
      <point x="107" y="-238" type="line" smooth="yes"/>
      <point x="107" y="-262"/>
      <point x="120" y="-278"/>
    </contour>
    <contour>
      <point x="149" y="-140" type="curve" smooth="yes"/>
      <point x="178" y="-140"/>
      <point x="191" y="-124"/>
      <point x="191" y="-100" type="curve" smooth="yes"/>
      <point x="191" y="-91" type="line" smooth="yes"/>
      <point x="191" y="-67"/>
      <point x="178" y="-51"/>
      <point x="149" y="-51" type="curve" smooth="yes"/>
      <point x="120" y="-51"/>
      <point x="107" y="-67"/>
      <point x="107" y="-91" type="curve" smooth="yes"/>
      <point x="107" y="-100" type="line" smooth="yes"/>
      <point x="107" y="-124"/>
      <point x="120" y="-140"/>
    </contour>
    <contour>
      <point x="0.0" y="0.0" type="move" name="_bottom_hebr"/>
    </contour>
  </outline>
</glyph>
<glyph name="hatafqamats-hb" format="1">
  <advance width="0"/>
  <unicode hex="05B3"/>
  <outline>
    <contour>
      <point x="-183" y="-122" type="line"/>
      <point x="-98" y="-122" type="line"/>
      <point x="-98" y="-250" type="line"/>
      <point x="-44" y="-250" type="line"/>
      <point x="-44" y="-122" type="line"/>
      <point x="41" y="-122" type="line"/>
      <point x="41" y="-67" type="line"/>
      <point x="-183" y="-67" type="line"/>
    </contour>
    <contour>
      <point x="142" y="-278" type="curve" smooth="yes"/>
      <point x="171" y="-278"/>
      <point x="184" y="-262"/>
      <point x="184" y="-238" type="curve" smooth="yes"/>
      <point x="184" y="-229" type="line" smooth="yes"/>
      <point x="184" y="-205"/>
      <point x="171" y="-189"/>
      <point x="142" y="-189" type="curve" smooth="yes"/>
      <point x="113" y="-189"/>
      <point x="100" y="-205"/>
      <point x="100" y="-229" type="curve" smooth="yes"/>
      <point x="100" y="-238" type="line" smooth="yes"/>
      <point x="100" y="-262"/>
      <point x="113" y="-278"/>
    </contour>
    <contour>
      <point x="142" y="-140" type="curve" smooth="yes" name="hr01"/>
      <point x="171" y="-140"/>
      <point x="184" y="-124"/>
      <point x="184" y="-100" type="curve" smooth="yes"/>
      <point x="184" y="-91" type="line" smooth="yes"/>
      <point x="184" y="-67"/>
      <point x="171" y="-51"/>
      <point x="142" y="-51" type="curve" smooth="yes"/>
      <point x="113" y="-51"/>
      <point x="100" y="-67"/>
      <point x="100" y="-91" type="curve" smooth="yes"/>
      <point x="100" y="-100" type="line" smooth="yes"/>
      <point x="100" y="-124"/>
      <point x="113" y="-140"/>
    </contour>
    <contour>
      <point x="0.0" y="0.0" type="move" name="_bottom_hebr"/>
    </contour>
  </outline>
</glyph>
<glyph name="hiriq-hb" format="1">
  <advance width="0"/>
  <unicode hex="05B4"/>
  <outline>
    <contour>
      <point x="0" y="-140" type="curve" smooth="yes" name="hr00"/>
      <point x="29" y="-140"/>
      <point x="42" y="-124"/>
      <point x="42" y="-100" type="curve" smooth="yes"/>
      <point x="42" y="-91" type="line" smooth="yes"/>
      <point x="42" y="-67"/>
      <point x="29" y="-51"/>
      <point x="0" y="-51" type="curve" smooth="yes"/>
      <point x="-29" y="-51"/>
      <point x="-42" y="-67"/>
      <point x="-42" y="-91" type="curve" smooth="yes"/>
      <point x="-42" y="-100" type="line" smooth="yes"/>
      <point x="-42" y="-124"/>
      <point x="-29" y="-140"/>
    </contour>
    <contour>
      <point x="0.0" y="0.0" type="move" name="_bottom_hebr"/>
    </contour>
  </outline>
</glyph>
<glyph name="tsere-hb" format="1">
  <advance width="0"/>
  <unicode hex="05B5"/>
  <outline>
    <contour>
      <point x="-77" y="-140" type="curve" smooth="yes" name="hr00"/>
      <point x="-48" y="-140"/>
      <point x="-35" y="-124"/>
      <point x="-35" y="-100" type="curve" smooth="yes"/>
      <point x="-35" y="-91" type="line" smooth="yes"/>
      <point x="-35" y="-67"/>
      <point x="-48" y="-51"/>
      <point x="-77" y="-51" type="curve" smooth="yes"/>
      <point x="-106" y="-51"/>
      <point x="-119" y="-67"/>
      <point x="-119" y="-91" type="curve" smooth="yes"/>
      <point x="-119" y="-100" type="line" smooth="yes"/>
      <point x="-119" y="-124"/>
      <point x="-106" y="-140"/>
    </contour>
    <contour>
      <point x="77" y="-140" type="curve" smooth="yes"/>
      <point x="106" y="-140"/>
      <point x="119" y="-124"/>
      <point x="119" y="-100" type="curve" smooth="yes"/>
      <point x="119" y="-91" type="line" smooth="yes"/>
      <point x="119" y="-67"/>
      <point x="106" y="-51"/>
      <point x="77" y="-51" type="curve" smooth="yes"/>
      <point x="48" y="-51"/>
      <point x="35" y="-67"/>
      <point x="35" y="-91" type="curve" smooth="yes"/>
      <point x="35" y="-100" type="line" smooth="yes"/>
      <point x="35" y="-124"/>
      <point x="48" y="-140"/>
    </contour>
    <contour>
      <point x="0.0" y="0.0" type="move" name="_bottom_hebr"/>
    </contour>
  </outline>
</glyph>
<glyph name="segol-hb" format="1">
  <advance width="0"/>
  <unicode hex="05B6"/>
  <outline>
    <contour>
      <point x="-77" y="-140" type="curve" smooth="yes"/>
      <point x="-48" y="-140"/>
      <point x="-35" y="-124"/>
      <point x="-35" y="-100" type="curve" smooth="yes"/>
      <point x="-35" y="-91" type="line" smooth="yes"/>
      <point x="-35" y="-67"/>
      <point x="-48" y="-51"/>
      <point x="-77" y="-51" type="curve" smooth="yes"/>
      <point x="-106" y="-51"/>
      <point x="-119" y="-67"/>
      <point x="-119" y="-91" type="curve" smooth="yes"/>
      <point x="-119" y="-100" type="line" smooth="yes"/>
      <point x="-119" y="-124"/>
      <point x="-106" y="-140"/>
    </contour>
    <contour>
      <point x="0" y="-278" type="curve" smooth="yes"/>
      <point x="29" y="-278"/>
      <point x="42" y="-262"/>
      <point x="42" y="-238" type="curve" smooth="yes" name="hr01"/>
      <point x="42" y="-229" type="line" smooth="yes"/>
      <point x="42" y="-205"/>
      <point x="29" y="-189"/>
      <point x="0" y="-189" type="curve" smooth="yes"/>
      <point x="-29" y="-189"/>
      <point x="-42" y="-205"/>
      <point x="-42" y="-229" type="curve" smooth="yes"/>
      <point x="-42" y="-238" type="line" smooth="yes"/>
      <point x="-42" y="-262"/>
      <point x="-29" y="-278"/>
    </contour>
    <contour>
      <point x="77" y="-140" type="curve" smooth="yes"/>
      <point x="106" y="-140"/>
      <point x="119" y="-124"/>
      <point x="119" y="-100" type="curve" smooth="yes" name="hr02"/>
      <point x="119" y="-91" type="line" smooth="yes"/>
      <point x="119" y="-67"/>
      <point x="106" y="-51"/>
      <point x="77" y="-51" type="curve" smooth="yes"/>
      <point x="48" y="-51"/>
      <point x="35" y="-67"/>
      <point x="35" y="-91" type="curve" smooth="yes"/>
      <point x="35" y="-100" type="line" smooth="yes"/>
      <point x="35" y="-124"/>
      <point x="48" y="-140"/>
    </contour>
    <contour>
      <point x="0.0" y="0.0" type="move" name="_bottom_hebr"/>
    </contour>
  </outline>
</glyph>
<glyph name="patah-hb" format="1">
  <advance width="0"/>
  <unicode hex="05B7"/>
  <outline>
    <contour>
      <point x="-112" y="-122" type="line" name="hr00"/>
      <point x="112" y="-122" type="line"/>
      <point x="112" y="-67" type="line"/>
      <point x="-112" y="-67" type="line"/>
    </contour>
    <contour>
      <point x="0.0" y="0.0" type="move" name="_bottom_hebr"/>
    </contour>
  </outline>
</glyph>
<glyph name="qamats-hb" format="1">
  <advance width="0"/>
  <unicode hex="05B8"/>
  <outline>
    <contour>
      <point x="-112" y="-122" type="line" name="hr00"/>
      <point x="-27" y="-122" type="line"/>
      <point x="-27" y="-250" type="line"/>
      <point x="27" y="-250" type="line"/>
      <point x="27" y="-122" type="line"/>
      <point x="112" y="-122" type="line"/>
      <point x="112" y="-67" type="line"/>
      <point x="-112" y="-67" type="line"/>
    </contour>
    <contour>
      <point x="0.0" y="0.0" type="move" name="_bottom_hebr"/>
    </contour>
  </outline>
</glyph>
<glyph name="holamhaser-hb" format="1">
  <advance width="0"/>
  <unicode hex="05BA"/>
  <outline>
    <contour>
      <point x="0" y="665" type="curve" smooth="yes" name="hr00"/>
      <point x="29" y="665"/>
      <point x="42" y="681"/>
      <point x="42" y="705" type="curve" smooth="yes"/>
      <point x="42" y="714" type="line" smooth="yes"/>
      <point x="42" y="738"/>
      <point x="29" y="754"/>
      <point x="0" y="754" type="curve" smooth="yes"/>
      <point x="-29" y="754"/>
      <point x="-42" y="738"/>
      <point x="-42" y="714" type="curve" smooth="yes"/>
      <point x="-42" y="705" type="line" smooth="yes"/>
      <point x="-42" y="681"/>
      <point x="-29" y="665"/>
    </contour>
    <contour>
      <point x="0.0" y="516.0" type="move" name="_topleft_hebr"/>
    </contour>
  </outline>
</glyph>
<glyph name="qubuts-hb" format="1">
  <advance width="0"/>
  <unicode hex="05BB"/>
  <outline>
    <contour>
      <point x="-42" y="-140" type="curve" smooth="yes"/>
      <point x="-13" y="-140"/>
      <point x="0" y="-124"/>
      <point x="0" y="-100" type="curve" smooth="yes"/>
      <point x="0" y="-91" type="line" smooth="yes"/>
      <point x="0" y="-67"/>
      <point x="-13" y="-51"/>
      <point x="-42" y="-51" type="curve" smooth="yes"/>
      <point x="-71" y="-51"/>
      <point x="-84" y="-67"/>
      <point x="-84" y="-91" type="curve" smooth="yes"/>
      <point x="-84" y="-100" type="line" smooth="yes"/>
      <point x="-84" y="-124"/>
      <point x="-71" y="-140"/>
    </contour>
    <contour>
      <point x="36" y="-227" type="curve" smooth="yes" name="hr01"/>
      <point x="65" y="-227"/>
      <point x="78" y="-211"/>
      <point x="78" y="-187" type="curve" smooth="yes"/>
      <point x="78" y="-178" type="line" smooth="yes"/>
      <point x="78" y="-154"/>
      <point x="65" y="-138"/>
      <point x="36" y="-138" type="curve" smooth="yes"/>
      <point x="7" y="-138"/>
      <point x="-6" y="-154"/>
      <point x="-6" y="-178" type="curve" smooth="yes"/>
      <point x="-6" y="-187" type="line" smooth="yes"/>
      <point x="-6" y="-211"/>
      <point x="7" y="-227"/>
    </contour>
    <contour>
      <point x="114" y="-314" type="curve" smooth="yes" name="hr02"/>
      <point x="143" y="-314"/>
      <point x="156" y="-298"/>
      <point x="156" y="-274" type="curve" smooth="yes"/>
      <point x="156" y="-265" type="line" smooth="yes"/>
      <point x="156" y="-241"/>
      <point x="143" y="-225"/>
      <point x="114" y="-225" type="curve" smooth="yes"/>
      <point x="85" y="-225"/>
      <point x="72" y="-241"/>
      <point x="72" y="-265" type="curve" smooth="yes"/>
      <point x="72" y="-274" type="line" smooth="yes"/>
      <point x="72" y="-298"/>
      <point x="85" y="-314"/>
    </contour>
    <contour>
      <point x="0.0" y="0.0" type="move" name="_bottom_hebr"/>
    </contour>
  </outline>
</glyph>
<glyph name="dagesh-hb" format="1">
  <advance width="0"/>
  <unicode hex="05BC"/>
  <outline>
    <contour>
      <point x="0" y="260" type="curve" smooth="yes" name="hr00"/>
      <point x="29" y="260"/>
      <point x="42" y="276"/>
      <point x="42" y="300" type="curve" smooth="yes"/>
      <point x="42" y="309" type="line" smooth="yes"/>
      <point x="42" y="333"/>
      <point x="29" y="349"/>
      <point x="0" y="349" type="curve" smooth="yes"/>
      <point x="-29" y="349"/>
      <point x="-42" y="333"/>
      <point x="-42" y="309" type="curve" smooth="yes"/>
      <point x="-42" y="300" type="line" smooth="yes"/>
      <point x="-42" y="276"/>
      <point x="-29" y="260"/>
    </contour>
    <contour>
      <point x="0.0" y="305.0" type="move" name="_center_hebr"/>
    </contour>
  </outline>
</glyph>
<glyph name="maqaf-hb" format="1">
  <advance width="399"/>
  <unicode hex="05BE"/>
  <outline>
    <contour>
      <point x="69" y="534" type="line" name="hr00"/>
      <point x="330" y="534" type="line"/>
      <point x="330" y="606" type="line"/>
      <point x="69" y="606" type="line"/>
    </contour>
  </outline>
</glyph>
<glyph name="rafe-hb" format="1">
  <advance width="0"/>
  <unicode hex="05BF"/>
  <outline>
    <contour>
      <point x="-129" y="685" type="line" name="hr00"/>
      <point x="129" y="685" type="line"/>
      <point x="129" y="740" type="line"/>
      <point x="-129" y="740" type="line"/>
    </contour>
    <contour>
      <point x="0.0" y="516.0" type="move" name="_top_hebr"/>
    </contour>
  </outline>
</glyph>
<glyph name="alef-hb" format="1">
  <advance width="628"/>
  <unicode hex="05D0"/>
  <outline>
    <contour>
      <point x="89" y="0" type="line" name="hr00"/>
      <point x="171" y="0" type="line"/>
      <point x="171" y="259" type="line"/>
      <point x="269" y="306" type="line"/>
      <point x="462" y="0" type="line"/>
      <point x="559" y="0" type="line"/>
      <point x="402" y="243" type="line"/>
      <point x="470" y="276" type="line" smooth="yes"/>
      <point x="520" y="301"/>
      <point x="539" y="326"/>
      <point x="539" y="383" type="curve" smooth="yes"/>
      <point x="539" y="606" type="line"/>
      <point x="457" y="606" type="line"/>
      <point x="457" y="347" type="line"/>
      <point x="359" y="300" type="line"/>
      <point x="166" y="606" type="line"/>
      <point x="69" y="606" type="line"/>
      <point x="226" y="363" type="line"/>
      <point x="158" y="330" type="line" smooth="yes"/>
      <point x="108" y="305"/>
      <point x="89" y="280"/>
      <point x="89" y="223" type="curve" smooth="yes"/>
    </contour>
    <contour>
      <point x="317.0" y="0.0" type="move" name="bottom_hebr"/>
    </contour>
    <contour>
      <point x="275.0" y="142.0" type="move" name="center_hebr"/>
    </contour>
    <contour>
      <point x="17.0" y="516.0" type="move" name="topleft_hebr"/>
    </contour>
  </outline>
</glyph>
<glyph name="bet-hb" format="1">
  <advance width="552"/>
  <unicode hex="05D1"/>
  <outline>
    <contour>
      <point x="41" y="0" type="line" name="hr00"/>
      <point x="519" y="0" type="line"/>
      <point x="519" y="72" type="line"/>
      <point x="434" y="72" type="line"/>
      <point x="434" y="522" type="line" smooth="yes"/>
      <point x="434" y="571"/>
      <point x="403" y="606"/>
      <point x="347" y="606" type="curve" smooth="yes"/>
      <point x="49" y="606" type="line"/>
      <point x="49" y="534" type="line"/>
      <point x="352" y="534" type="line"/>
      <point x="352" y="72" type="line"/>
      <point x="41" y="72" type="line"/>
    </contour>
    <contour>
      <point x="280.0" y="0.0" type="move" name="bottom_hebr"/>
    </contour>
    <contour>
      <point x="188.0" y="305.0" type="move" name="center_hebr"/>
    </contour>
    <contour>
      <point x="242.0" y="516.0" type="move" name="top_hebr"/>
    </contour>
    <contour>
      <point x="13.0" y="516.0" type="move" name="topleft_hebr"/>
    </contour>
  </outline>
</glyph>
<glyph name="gimel-hb" format="1">
  <advance width="419"/>
  <unicode hex="05D2"/>
  <outline>
    <contour>
      <point x="271" y="0" type="line"/>
      <point x="349" y="0" type="line"/>
      <point x="300" y="486" type="line" smooth="yes"/>
      <point x="292" y="563"/>
      <point x="250" y="606"/>
      <point x="168" y="606" type="curve" smooth="yes"/>
      <point x="75" y="606" type="line"/>
      <point x="75" y="534" type="line"/>
      <point x="214" y="534" type="line"/>
      <point x="245" y="224" type="line" smooth="yes"/>
      <point x="252" y="152"/>
      <point x="175" y="72"/>
      <point x="40" y="72" type="curve" name="hr01"/>
      <point x="40" y="-6" type="line"/>
      <point x="119" y="-6"/>
      <point x="217" y="54"/>
      <point x="252" y="138" type="curve" name="hr02"/>
      <point x="257" y="138" type="line"/>
    </contour>
    <contour>
      <point x="204.0" y="0.0" type="move" name="bottom_hebr"/>
    </contour>
    <contour>
      <point x="130.0" y="305.0" type="move" name="center_hebr"/>
    </contour>
    <contour>
      <point x="39.0" y="516.0" type="move" name="topleft_hebr"/>
    </contour>
  </outline>
</glyph>
<glyph name="dalet-hb" format="1">
  <advance width="528"/>
  <unicode hex="05D3"/>
  <outline>
    <contour>
      <point x="328" y="0" type="line" name="hr00"/>
      <point x="410" y="0" type="line"/>
      <point x="410" y="534" type="line"/>
      <point x="495" y="534" type="line"/>
      <point x="495" y="606" type="line"/>
      <point x="29" y="606" type="line"/>
      <point x="29" y="534" type="line"/>
      <point x="328" y="534" type="line"/>
    </contour>
    <contour>
      <point x="369.0" y="0.0" type="move" name="bottom_hebr"/>
    </contour>
    <contour>
      <point x="179.0" y="305.0" type="move" name="center_hebr"/>
    </contour>
    <contour>
      <point x="0.0" y="516.0" type="move" name="topleft_hebr"/>
    </contour>
  </outline>
</glyph>
<glyph name="he-hb" format="1">
  <advance width="637"/>
  <unicode hex="05D4"/>
  <outline>
    <contour>
      <point x="471" y="0" type="line" name="hr00"/>
      <point x="553" y="0" type="line"/>
      <point x="553" y="407" type="line" smooth="yes"/>
      <point x="553" y="536"/>
      <point x="486" y="606"/>
      <point x="357" y="606" type="curve" smooth="yes"/>
      <point x="89" y="606" type="line"/>
      <point x="89" y="534" type="line"/>
      <point x="352" y="534" type="line" smooth="yes"/>
      <point x="422" y="534"/>
      <point x="471" y="499"/>
      <point x="471" y="410" type="curve" smooth="yes"/>
    </contour>
    <contour>
      <point x="89" y="0" type="line"/>
      <point x="171" y="0" type="line"/>
      <point x="171" y="300" type="line"/>
      <point x="89" y="300" type="line"/>
    </contour>
    <contour>
      <point x="321.0" y="0.0" type="move" name="bottom_hebr"/>
    </contour>
    <contour>
      <point x="321.0" y="305.0" type="move" name="center_hebr"/>
    </contour>
    <contour>
      <point x="20.0" y="516.0" type="move" name="topleft_hebr"/>
    </contour>
  </outline>
</glyph>
<glyph name="vav-hb" format="1">
  <advance width="260"/>
  <unicode hex="05D5"/>
  <outline>
    <contour>
      <point x="89" y="0" type="line" name="hr00"/>
      <point x="171" y="0" type="line"/>
      <point x="171" y="606" type="line"/>
      <point x="89" y="606" type="line"/>
    </contour>
    <contour>
      <point x="130.0" y="0.0" type="move" name="bottom_hebr"/>
    </contour>
    <contour>
      <point x="23.0" y="305.0" type="move" name="center_hebr"/>
    </contour>
    <contour>
      <point x="20.0" y="516.0" type="move" name="topleft_hebr"/>
    </contour>
  </outline>
</glyph>
<glyph name="zayin-hb" format="1">
  <advance width="379"/>
  <unicode hex="05D6"/>
  <outline>
    <contour>
      <point x="40" y="534" type="line" name="hr00"/>
      <point x="192" y="534" type="line"/>
      <point x="192" y="529" type="line"/>
      <point x="144" y="479"/>
      <point x="122" y="410"/>
      <point x="122" y="323" type="curve" smooth="yes"/>
      <point x="122" y="276"/>
      <point x="129" y="219"/>
      <point x="140" y="159" type="curve" smooth="yes"/>
      <point x="170" y="0" type="line"/>
      <point x="252" y="0" type="line"/>
      <point x="217" y="183" type="line" smooth="yes"/>
      <point x="203" y="254"/>
      <point x="198" y="315"/>
      <point x="198" y="365" type="curve" smooth="yes"/>
      <point x="198" y="447"/>
      <point x="212" y="499"/>
      <point x="232" y="534" type="curve"/>
      <point x="343" y="534" type="line"/>
      <point x="343" y="606" type="line"/>
      <point x="40" y="606" type="line"/>
    </contour>
    <contour>
      <point x="211.0" y="0.0" type="move" name="bottom_hebr"/>
    </contour>
    <contour>
      <point x="50.0" y="305.0" type="move" name="center_hebr"/>
    </contour>
    <contour>
      <point x="10.0" y="516.0" type="move" name="topleft_hebr"/>
    </contour>
  </outline>
</glyph>
<glyph name="het-hb" format="1">
  <advance width="647"/>
  <unicode hex="05D7"/>
  <outline>
    <contour>
      <point x="89" y="0" type="line" name="hr00"/>
      <point x="171" y="0" type="line"/>
      <point x="171" y="534" type="line"/>
      <point x="362" y="534" type="line" smooth="yes"/>
      <point x="432" y="534"/>
      <point x="481" y="499"/>
      <point x="481" y="410" type="curve" smooth="yes"/>
      <point x="481" y="0" type="line"/>
      <point x="563" y="0" type="line"/>
      <point x="563" y="407" type="line" smooth="yes"/>
      <point x="563" y="536"/>
      <point x="496" y="606"/>
      <point x="367" y="606" type="curve" smooth="yes"/>
      <point x="89" y="606" type="line"/>
    </contour>
    <contour>
      <point x="326.0" y="0.0" type="move" name="bottom_hebr"/>
    </contour>
    <contour>
      <point x="20.0" y="516.0" type="move" name="topleft_hebr"/>
    </contour>
  </outline>
</glyph>
<glyph name="tet-hb" format="1">
  <advance width="645"/>
  <unicode hex="05D8"/>
  <outline>
    <contour>
      <point x="325" y="-12" type="curve" smooth="yes" name="hr00"/>
      <point x="515" y="-12"/>
      <point x="576" y="83"/>
      <point x="576" y="286" type="curve" smooth="yes"/>
      <point x="576" y="407" type="line" smooth="yes"/>
      <point x="576" y="536"/>
      <point x="509" y="606"/>
      <point x="380" y="606" type="curve" smooth="yes"/>
      <point x="317" y="606" type="line"/>
      <point x="317" y="534" type="line"/>
      <point x="375" y="534" type="line" smooth="yes"/>
      <point x="445" y="534"/>
      <point x="494" y="499"/>
      <point x="494" y="410" type="curve" smooth="yes"/>
      <point x="494" y="266" type="line" smooth="yes"/>
      <point x="494" y="129"/>
      <point x="450" y="61"/>
      <point x="325" y="61" type="curve" smooth="yes"/>
      <point x="200" y="61"/>
      <point x="156" y="129"/>
      <point x="156" y="266" type="curve" smooth="yes"/>
      <point x="156" y="606" type="line"/>
      <point x="74" y="606" type="line"/>
      <point x="74" y="286" type="line" smooth="yes"/>
      <point x="74" y="83"/>
      <point x="135" y="-12"/>
    </contour>
    <contour>
      <point x="325.0" y="0.0" type="move" name="bottom_hebr"/>
    </contour>
    <contour>
      <point x="325.0" y="305.0" type="move" name="center_hebr"/>
    </contour>
    <contour>
      <point x="28.0" y="516.0" type="move" name="topleft_hebr"/>
    </contour>
  </outline>
</glyph>
<glyph name="yod-hb" format="1">
  <advance width="240"/>
  <unicode hex="05D9"/>
  <outline>
    <contour>
      <point x="79" y="272" type="line" name="hr00"/>
      <point x="161" y="272" type="line"/>
      <point x="161" y="606" type="line"/>
      <point x="79" y="606" type="line"/>
    </contour>
    <contour>
      <point x="120.0" y="0.0" type="move" name="bottom_hebr"/>
    </contour>
    <contour>
      <point x="12.0" y="369.0" type="move" name="center_hebr"/>
    </contour>
    <contour>
      <point x="30.0" y="516.0" type="move" name="topleft_hebr"/>
    </contour>
  </outline>
</glyph>
<glyph name="finalkaf-hb" format="1">
  <advance width="517"/>
  <unicode hex="05DA"/>
  <outline>
    <contour>
      <point x="356" y="-200" type="line" name="hr00"/>
      <point x="438" y="-200" type="line"/>
      <point x="438" y="335" type="line" smooth="yes"/>
      <point x="438" y="519"/>
      <point x="341" y="606"/>
      <point x="157" y="606" type="curve" smooth="yes"/>
      <point x="25" y="606" type="line"/>
      <point x="25" y="534" type="line"/>
      <point x="157" y="534" type="line" smooth="yes"/>
      <point x="286" y="534"/>
      <point x="356" y="477"/>
      <point x="356" y="335" type="curve" smooth="yes"/>
    </contour>
    <contour>
      <point x="190.0" y="399.0" type="move" name="bottom_hebr"/>
    </contour>
    <contour>
      <point x="189.0" y="305.0" type="move" name="center_hebr"/>
    </contour>
  </outline>
</glyph>
<glyph name="kaf-hb" format="1">
  <advance width="531"/>
  <unicode hex="05DB"/>
  <outline>
    <contour>
      <point x="41" y="0" type="line" name="hr00"/>
      <point x="231" y="0" type="line" smooth="yes"/>
      <point x="382" y="0"/>
      <point x="479" y="101"/>
      <point x="479" y="303" type="curve" smooth="yes"/>
      <point x="479" y="505"/>
      <point x="382" y="606"/>
      <point x="231" y="606" type="curve" smooth="yes"/>
      <point x="41" y="606" type="line"/>
      <point x="41" y="534" type="line"/>
      <point x="223" y="534" type="line" smooth="yes"/>
      <point x="323" y="534"/>
      <point x="393" y="464"/>
      <point x="393" y="344" type="curve" smooth="yes"/>
      <point x="393" y="262" type="line" smooth="yes"/>
      <point x="393" y="142"/>
      <point x="323" y="72"/>
      <point x="223" y="72" type="curve" smooth="yes"/>
      <point x="41" y="72" type="line"/>
    </contour>
    <contour>
      <point x="239.0" y="0.0" type="move" name="bottom_hebr"/>
    </contour>
    <contour>
      <point x="212.0" y="305.0" type="move" name="center_hebr"/>
    </contour>
    <contour>
      <point x="216.0" y="516.0" type="move" name="top_hebr"/>
    </contour>
    <contour>
      <point x="0.0" y="516.0" type="move" name="topleft_hebr"/>
    </contour>
  </outline>
</glyph>
<glyph name="lamed-hb" format="1">
  <advance width="474"/>
  <unicode hex="05DC"/>
  <outline>
    <contour>
      <point x="164" y="0" type="line" name="hr00"/>
      <point x="251" y="0" type="line"/>
      <point x="452" y="532" type="line"/>
      <point x="452" y="606" type="line"/>
      <point x="107" y="606" type="line"/>
      <point x="107" y="740" type="line"/>
      <point x="25" y="740" type="line"/>
      <point x="25" y="534" type="line"/>
      <point x="365" y="534" type="line"/>
    </contour>
    <contour>
      <point x="208.0" y="0.0" type="move" name="bottom_hebr"/>
    </contour>
    <contour>
      <point x="139.0" y="305.0" type="move" name="center_hebr"/>
    </contour>
    <contour>
      <point x="-28.0" y="516.0" type="move" name="topleft_hebr"/>
    </contour>
  </outline>
</glyph>
<glyph name="finalmem-hb" format="1">
  <advance width="647"/>
  <unicode hex="05DD"/>
  <outline>
    <contour>
      <point x="89" y="0" type="line" name="hr00"/>
      <point x="563" y="0" type="line"/>
      <point x="563" y="407" type="line" smooth="yes"/>
      <point x="563" y="536"/>
      <point x="496" y="606"/>
      <point x="367" y="606" type="curve" smooth="yes"/>
      <point x="89" y="606" type="line"/>
    </contour>
    <contour>
      <point x="171" y="72" type="line"/>
      <point x="171" y="534" type="line"/>
      <point x="362" y="534" type="line" smooth="yes"/>
      <point x="432" y="534"/>
      <point x="481" y="499"/>
      <point x="481" y="410" type="curve" smooth="yes"/>
      <point x="481" y="72" type="line"/>
    </contour>
  </outline>
</glyph>
<glyph name="mem-hb" format="1">
  <advance width="654"/>
  <unicode hex="05DE"/>
  <outline>
    <contour>
      <point x="56" y="0" type="line"/>
      <point x="138" y="0" type="line"/>
      <point x="208" y="405" type="line" smooth="yes"/>
      <point x="214" y="438"/>
      <point x="230" y="544"/>
      <point x="356" y="544" type="curve" smooth="yes"/>
      <point x="488" y="544"/>
      <point x="488" y="428"/>
      <point x="488" y="375" type="curve" smooth="yes"/>
      <point x="488" y="72" type="line"/>
      <point x="311" y="72" type="line"/>
      <point x="311" y="0" type="line"/>
      <point x="570" y="0" type="line"/>
      <point x="570" y="393" type="line" smooth="yes"/>
      <point x="570" y="551"/>
      <point x="494" y="618"/>
      <point x="387" y="618" type="curve" smooth="yes"/>
      <point x="296" y="618"/>
      <point x="239" y="569"/>
      <point x="211" y="501" type="curve"/>
      <point x="206" y="501" type="line"/>
      <point x="189" y="606" type="line" name="hr01"/>
      <point x="107" y="606" type="line"/>
      <point x="134" y="450" type="line"/>
    </contour>
    <contour>
      <point x="348.0" y="0.0" type="move" name="bottom_hebr"/>
    </contour>
    <contour>
      <point x="348.0" y="305.0" type="move" name="center_hebr"/>
    </contour>
    <contour>
      <point x="49.0" y="516.0" type="move" name="topleft_hebr"/>
    </contour>
  </outline>
</glyph>
<glyph name="finalnun-hb" format="1">
  <advance width="260"/>
  <unicode hex="05DF"/>
  <outline>
    <contour>
      <point x="89" y="-200" type="line" name="hr00"/>
      <point x="171" y="-200" type="line"/>
      <point x="171" y="606" type="line"/>
      <point x="89" y="606" type="line"/>
    </contour>
  </outline>
</glyph>
<glyph name="nun-hb" format="1">
  <advance width="347"/>
  <unicode hex="05E0"/>
  <outline>
    <contour>
      <point x="41" y="0" type="line" name="hr00"/>
      <point x="263" y="0" type="line"/>
      <point x="263" y="469" type="line" smooth="yes"/>
      <point x="263" y="560"/>
      <point x="228" y="606"/>
      <point x="100" y="606" type="curve" smooth="yes"/>
      <point x="48" y="606" type="line"/>
      <point x="48" y="534" type="line"/>
      <point x="94" y="534" type="line" smooth="yes"/>
      <point x="174" y="534"/>
      <point x="181" y="507"/>
      <point x="181" y="466" type="curve" smooth="yes"/>
      <point x="181" y="72" type="line"/>
      <point x="41" y="72" type="line"/>
    </contour>
    <contour>
      <point x="152.0" y="0.0" type="move" name="bottom_hebr"/>
    </contour>
    <contour>
      <point x="111.0" y="305.0" type="move" name="center_hebr"/>
    </contour>
    <contour>
      <point x="12.0" y="516.0" type="move" name="topleft_hebr"/>
    </contour>
  </outline>
</glyph>
<glyph name="samekh-hb" format="1">
  <advance width="642"/>
  <unicode hex="05E1"/>
  <outline>
    <contour>
      <point x="52" y="534" type="line" name="hr00"/>
      <point x="175" y="534" type="line"/>
      <point x="175" y="529" type="line"/>
      <point x="121" y="502"/>
      <point x="59" y="415"/>
      <point x="59" y="303" type="curve" smooth="yes"/>
      <point x="59" y="99"/>
      <point x="168" y="-12"/>
      <point x="325" y="-12" type="curve" smooth="yes"/>
      <point x="482" y="-12"/>
      <point x="590" y="99"/>
      <point x="590" y="303" type="curve" smooth="yes"/>
      <point x="590" y="505"/>
      <point x="493" y="606"/>
      <point x="342" y="606" type="curve" smooth="yes"/>
      <point x="52" y="606" type="line"/>
    </contour>
    <contour>
      <point x="325" y="61" type="curve" smooth="yes"/>
      <point x="221" y="61"/>
      <point x="145" y="138"/>
      <point x="145" y="256" type="curve" smooth="yes"/>
      <point x="145" y="337" type="line" smooth="yes"/>
      <point x="145" y="415"/>
      <point x="165" y="486"/>
      <point x="215" y="534" type="curve"/>
      <point x="334" y="534" type="line" smooth="yes"/>
      <point x="434" y="534"/>
      <point x="504" y="464"/>
      <point x="504" y="344" type="curve" smooth="yes"/>
      <point x="504" y="256" type="line" smooth="yes"/>
      <point x="504" y="138"/>
      <point x="428" y="61"/>
    </contour>
    <contour>
      <point x="325.0" y="0.0" type="move" name="bottom_hebr"/>
    </contour>
    <contour>
      <point x="325.0" y="305.0" type="move" name="center_hebr"/>
    </contour>
    <contour>
      <point x="21.0" y="516.0" type="move" name="topleft_hebr"/>
    </contour>
  </outline>
</glyph>
<glyph name="ayin-hb" format="1">
  <advance width="593"/>
  <unicode hex="05E2"/>
  <outline>
    <contour>
      <point x="38" y="-24" type="line" name="hr00"/>
      <point x="227" y="6" type="line" smooth="yes"/>
      <point x="441" y="40"/>
      <point x="524" y="158"/>
      <point x="524" y="402" type="curve" smooth="yes"/>
      <point x="524" y="606" type="line"/>
      <point x="443" y="606" type="line"/>
      <point x="443" y="392" type="line" smooth="yes"/>
      <point x="443" y="235"/>
      <point x="402" y="138"/>
      <point x="306" y="98" type="curve"/>
      <point x="247" y="272" type="line"/>
      <point x="126" y="606" type="line"/>
      <point x="38" y="606" type="line"/>
      <point x="229" y="79" type="line"/>
      <point x="38" y="49" type="line"/>
    </contour>
    <contour>
      <point x="289.0" y="0.0" type="move" name="bottom_hebr"/>
    </contour>
    <contour>
      <point x="23.0" y="516.0" type="move" name="topleft_hebr"/>
    </contour>
  </outline>
</glyph>
<glyph name="finalpe-hb" format="1">
  <advance width="630"/>
  <unicode hex="05E3"/>
  <outline>
    <contour>
      <point x="464" y="-200" type="line" name="hr00"/>
      <point x="546" y="-200" type="line"/>
      <point x="546" y="335" type="line" smooth="yes"/>
      <point x="546" y="519"/>
      <point x="449" y="606"/>
      <point x="265" y="606" type="curve" smooth="yes"/>
      <point x="69" y="606" type="line"/>
      <point x="69" y="306" type="line" smooth="yes"/>
      <point x="69" y="257"/>
      <point x="100" y="221"/>
      <point x="156" y="221" type="curve" smooth="yes"/>
      <point x="290" y="221" type="line"/>
      <point x="290" y="293" type="line"/>
      <point x="151" y="293" type="line"/>
      <point x="151" y="534" type="line"/>
      <point x="265" y="534" type="line" smooth="yes"/>
      <point x="394" y="534"/>
      <point x="464" y="477"/>
      <point x="464" y="335" type="curve" smooth="yes"/>
    </contour>
    <contour>
      <point x="377.0" y="305.0" type="move" name="center_hebr"/>
    </contour>
  </outline>
</glyph>
<glyph name="pe-hb" format="1">
  <advance width="623"/>
  <unicode hex="05E4"/>
  <outline>
    <contour>
      <point x="89" y="0" type="line" name="hr00"/>
      <point x="323" y="0" type="line" smooth="yes"/>
      <point x="474" y="0"/>
      <point x="571" y="101"/>
      <point x="571" y="303" type="curve" smooth="yes"/>
      <point x="571" y="505"/>
      <point x="474" y="606"/>
      <point x="323" y="606" type="curve" smooth="yes"/>
      <point x="89" y="606" type="line"/>
      <point x="89" y="336" type="line" smooth="yes"/>
      <point x="89" y="287"/>
      <point x="120" y="251"/>
      <point x="176" y="251" type="curve" smooth="yes"/>
      <point x="310" y="251" type="line"/>
      <point x="310" y="323" type="line"/>
      <point x="171" y="323" type="line"/>
      <point x="171" y="534" type="line"/>
      <point x="315" y="534" type="line" smooth="yes"/>
      <point x="415" y="534"/>
      <point x="485" y="464"/>
      <point x="485" y="344" type="curve" smooth="yes"/>
      <point x="485" y="262" type="line" smooth="yes"/>
      <point x="485" y="142"/>
      <point x="415" y="72"/>
      <point x="315" y="72" type="curve" smooth="yes"/>
      <point x="89" y="72" type="line"/>
    </contour>
    <contour>
      <point x="307.0" y="0.0" type="move" name="bottom_hebr"/>
    </contour>
    <contour>
      <point x="398.0" y="305.0" type="move" name="center_hebr"/>
    </contour>
    <contour>
      <point x="285.0" y="516.0" type="move" name="top_hebr"/>
    </contour>
    <contour>
      <point x="55.0" y="516.0" type="move" name="topleft_hebr"/>
    </contour>
  </outline>
</glyph>
<glyph name="finaltsadi-hb" format="1">
  <advance width="515"/>
  <unicode hex="05E5"/>
  <outline>
    <contour>
      <point x="276" y="-200" type="line" name="hr00"/>
      <point x="361" y="-200" type="line"/>
      <point x="247" y="148" type="line"/>
      <point x="382" y="214" type="line" smooth="yes"/>
      <point x="432" y="238"/>
      <point x="451" y="264"/>
      <point x="451" y="321" type="curve" smooth="yes"/>
      <point x="451" y="606" type="line"/>
      <point x="369" y="606" type="line"/>
      <point x="369" y="285" type="line"/>
      <point x="225" y="216" type="line"/>
      <point x="98" y="606" type="line"/>
      <point x="12" y="606" type="line"/>
    </contour>
  </outline>
</glyph>
<glyph name="tsadi-hb" format="1">
  <advance width="543"/>
  <unicode hex="05E6"/>
  <outline>
    <contour>
      <point x="52" y="0" type="line" name="hr00"/>
      <point x="461" y="0" type="line"/>
      <point x="461" y="72" type="line"/>
      <point x="335" y="264" type="line"/>
      <point x="405" y="298" type="line" smooth="yes"/>
      <point x="455" y="323"/>
      <point x="474" y="348"/>
      <point x="474" y="405" type="curve" smooth="yes"/>
      <point x="474" y="606" type="line"/>
      <point x="392" y="606" type="line"/>
      <point x="392" y="369" type="line"/>
      <point x="298" y="324" type="line"/>
      <point x="128" y="606" type="line"/>
      <point x="30" y="606" type="line"/>
      <point x="261" y="240" type="line"/>
      <point x="372" y="72" type="line"/>
      <point x="52" y="72" type="line"/>
    </contour>
    <contour>
      <point x="257.0" y="0.0" type="move" name="bottom_hebr"/>
    </contour>
    <contour>
      <point x="140.0" y="214.0" type="move" name="center_hebr"/>
    </contour>
    <contour>
      <point x="17.0" y="516.0" type="move" name="topleft_hebr"/>
    </contour>
  </outline>
</glyph>
<glyph name="qof-hb" format="1">
  <advance width="608"/>
  <unicode hex="05E7"/>
  <outline>
    <contour>
      <point x="297" y="0" type="line" name="hr00"/>
      <point x="384" y="0" type="line"/>
      <point x="586" y="532" type="line"/>
      <point x="586" y="606" type="line"/>
      <point x="89" y="606" type="line"/>
      <point x="89" y="534" type="line"/>
      <point x="499" y="534" type="line"/>
    </contour>
    <contour>
      <point x="89" y="-200" type="line"/>
      <point x="171" y="-200" type="line"/>
      <point x="171" y="300" type="line"/>
      <point x="89" y="300" type="line"/>
    </contour>
    <contour>
      <point x="365.0" y="0.0" type="move" name="bottom_hebr"/>
    </contour>
    <contour>
      <point x="287.0" y="305.0" type="move" name="center_hebr"/>
    </contour>
    <contour>
      <point x="20.0" y="516.0" type="move" name="topleft_hebr"/>
    </contour>
  </outline>
</glyph>
<glyph name="resh-hb" format="1">
  <advance width="526"/>
  <unicode hex="05E8"/>
  <outline>
    <contour>
      <point x="360" y="0" type="line" name="hr00"/>
      <point x="442" y="0" type="line"/>
      <point x="442" y="407" type="line" smooth="yes"/>
      <point x="442" y="536"/>
      <point x="375" y="606"/>
      <point x="246" y="606" type="curve" smooth="yes"/>
      <point x="29" y="606" type="line"/>
      <point x="29" y="534" type="line"/>
      <point x="241" y="534" type="line" smooth="yes"/>
      <point x="311" y="534"/>
      <point x="360" y="499"/>
      <point x="360" y="410" type="curve" smooth="yes"/>
    </contour>
    <contour>
      <point x="401.0" y="0.0" type="move" name="bottom_hebr"/>
    </contour>
    <contour>
      <point x="195.0" y="305.0" type="move" name="center_hebr"/>
    </contour>
    <contour>
      <point x="3.0" y="516.0" type="move" name="topleft_hebr"/>
    </contour>
  </outline>
</glyph>
<glyph name="shin-hb" format="1">
  <advance width="752"/>
  <unicode hex="05E9"/>
  <outline>
    <contour>
      <point x="376" y="-12" type="curve" smooth="yes" name="hr00"/>
      <point x="600" y="-12"/>
      <point x="678" y="102"/>
      <point x="678" y="346" type="curve" smooth="yes"/>
      <point x="678" y="606" type="line"/>
      <point x="596" y="606" type="line"/>
      <point x="596" y="326" type="line" smooth="yes"/>
      <point x="596" y="140"/>
      <point x="535" y="61"/>
      <point x="376" y="61" type="curve" smooth="yes"/>
      <point x="240" y="61"/>
      <point x="176" y="119"/>
      <point x="160" y="251" type="curve"/>
      <point x="332" y="251" type="line" smooth="yes"/>
      <point x="387" y="251"/>
      <point x="417" y="286"/>
      <point x="417" y="334" type="curve" smooth="yes"/>
      <point x="417" y="606" type="line"/>
      <point x="336" y="606" type="line"/>
      <point x="336" y="323" type="line"/>
      <point x="156" y="323" type="line"/>
      <point x="156" y="606" type="line"/>
      <point x="74" y="606" type="line"/>
      <point x="74" y="346" type="line" smooth="yes"/>
      <point x="74" y="102"/>
      <point x="152" y="-12"/>
    </contour>
    <contour>
      <point x="376.0" y="0.0" type="move" name="bottom_hebr"/>
    </contour>
    <contour>
      <point x="504.0" y="305.0" type="move" name="center_hebr"/>
    </contour>
    <contour>
      <point x="120.0" y="516.0" type="move" name="top_hebr"/>
    </contour>
    <contour>
      <point x="7.0" y="516.0" type="move" name="topleft_hebr"/>
    </contour>
    <contour>
      <point x="634.0" y="516.0" type="move" name="topright_hebr"/>
    </contour>
  </outline>
</glyph>
<glyph name="tav-hb" format="1">
  <advance width="665"/>
  <unicode hex="05EA"/>
  <outline>
    <contour>
      <point x="59" y="0" type="line" name="hr00"/>
      <point x="244" y="0" type="line"/>
      <point x="221" y="241" type="line" smooth="yes"/>
      <point x="217" y="285"/>
      <point x="214" y="323"/>
      <point x="214" y="358" type="curve" smooth="yes"/>
      <point x="214" y="417"/>
      <point x="222" y="467"/>
      <point x="247" y="516" type="curve" smooth="yes"/>
      <point x="256" y="534" type="line"/>
      <point x="380" y="534" type="line" smooth="yes"/>
      <point x="450" y="534"/>
      <point x="499" y="499"/>
      <point x="499" y="410" type="curve" smooth="yes"/>
      <point x="499" y="0" type="line"/>
      <point x="581" y="0" type="line"/>
      <point x="581" y="407" type="line" smooth="yes"/>
      <point x="581" y="536"/>
      <point x="514" y="606"/>
      <point x="385" y="606" type="curve" smooth="yes"/>
      <point x="67" y="606" type="line"/>
      <point x="67" y="534" type="line"/>
      <point x="216" y="534" type="line"/>
      <point x="216" y="529" type="line"/>
      <point x="188" y="496" type="line" smooth="yes"/>
      <point x="149" y="450"/>
      <point x="134" y="395"/>
      <point x="134" y="320" type="curve" smooth="yes"/>
      <point x="134" y="297"/>
      <point x="135" y="272"/>
      <point x="138" y="245" type="curve" smooth="yes"/>
      <point x="155" y="72" type="line"/>
      <point x="59" y="72" type="line"/>
    </contour>
    <contour>
      <point x="372.0" y="0.0" type="move" name="bottom_hebr"/>
    </contour>
    <contour>
      <point x="361.0" y="305.0" type="move" name="center_hebr"/>
    </contour>
    <contour>
      <point x="21.0" y="516.0" type="move" name="topleft_hebr"/>
    </contour>
  </outline>
</glyph>
<glyph name="geresh-hb" format="1">
  <advance width="273"/>
  <unicode hex="05F3"/>
  <outline>
    <contour>
      <point x="141" y="658" type="curve" smooth="yes" name="hr00"/>
      <point x="99" y="658"/>
      <point x="80" y="634"/>
      <point x="80" y="599" type="curve" smooth="yes"/>
      <point x="80" y="585" type="line" smooth="yes"/>
      <point x="80" y="558"/>
      <point x="92" y="538"/>
      <point x="119" y="532" type="curve"/>
      <point x="108" y="485"/>
      <point x="84" y="450"/>
      <point x="44" y="408" type="curve"/>
      <point x="111" y="408" type="line"/>
      <point x="168" y="457"/>
      <point x="202" y="531"/>
      <point x="202" y="585" type="curve" smooth="yes"/>
      <point x="202" y="599" type="line" smooth="yes"/>
      <point x="202" y="634"/>
      <point x="183" y="658"/>
    </contour>
  </outline>
</glyph>
<glyph name="gershayim-hb" format="1">
  <advance width="474"/>
  <unicode hex="05F4"/>
  <outline>
    <contour>
      <point x="141" y="658" type="curve" smooth="yes" name="hr00"/>
      <point x="99" y="658"/>
      <point x="80" y="634"/>
      <point x="80" y="599" type="curve" smooth="yes"/>
      <point x="80" y="585" type="line" smooth="yes"/>
      <point x="80" y="558"/>
      <point x="92" y="538"/>
      <point x="119" y="532" type="curve"/>
      <point x="108" y="485"/>
      <point x="84" y="450"/>
      <point x="44" y="408" type="curve"/>
      <point x="111" y="408" type="line"/>
      <point x="168" y="457"/>
      <point x="202" y="531"/>
      <point x="202" y="585" type="curve" smooth="yes"/>
      <point x="202" y="599" type="line" smooth="yes"/>
      <point x="202" y="634"/>
      <point x="183" y="658"/>
    </contour>
    <contour>
      <point x="342" y="658" type="curve" smooth="yes"/>
      <point x="300" y="658"/>
      <point x="281" y="634"/>
      <point x="281" y="599" type="curve" smooth="yes"/>
      <point x="281" y="585" type="line" smooth="yes"/>
      <point x="281" y="558"/>
      <point x="293" y="538"/>
      <point x="320" y="532" type="curve"/>
      <point x="309" y="485"/>
      <point x="285" y="450"/>
      <point x="245" y="408" type="curve"/>
      <point x="312" y="408" type="line"/>
      <point x="369" y="457"/>
      <point x="403" y="531"/>
      <point x="403" y="585" type="curve" smooth="yes"/>
      <point x="403" y="599" type="line" smooth="yes"/>
      <point x="403" y="634"/>
      <point x="384" y="658"/>
    </contour>
  </outline>
</glyph>
<glyph name="baht" format="1">
  <advance width="644"/>
  <unicode hex="0E3F"/>
  <outline>
    <contour>
      <point x="347" y="21" type="line"/>
      <point x="400" y="21" type="line" smooth="yes"/>
      <point x="503" y="21"/>
      <point x="581" y="103"/>
      <point x="581" y="211" type="curve" smooth="yes"/>
      <point x="581" y="321"/>
      <point x="504" y="351"/>
      <point x="439" y="362" type="curve"/>
      <point x="439" y="368" type="line"/>
      <point x="502" y="379"/>
      <point x="556" y="419"/>
      <point x="556" y="508" type="curve" smooth="yes" name="hr01"/>
      <point x="556" y="610"/>
      <point x="485" y="677"/>
      <point x="371" y="677" type="curve" smooth="yes"/>
      <point x="347" y="677" type="line"/>
      <point x="347" y="780" type="line"/>
      <point x="285" y="780" type="line"/>
      <point x="285" y="677" type="line"/>
      <point x="93" y="677" type="line"/>
      <point x="93" y="21" type="line"/>
      <point x="285" y="21" type="line"/>
      <point x="285" y="-82" type="line"/>
      <point x="347" y="-82" type="line"/>
    </contour>
    <contour>
      <point x="176" y="393" type="line"/>
      <point x="176" y="603" type="line"/>
      <point x="286" y="603" type="line"/>
      <point x="286" y="393" type="line"/>
    </contour>
    <contour>
      <point x="346" y="603" type="line"/>
      <point x="373" y="603" type="line" smooth="yes"/>
      <point x="439" y="603"/>
      <point x="469" y="573"/>
      <point x="469" y="513" type="curve" smooth="yes"/>
      <point x="469" y="483" type="line" smooth="yes"/>
      <point x="469" y="423"/>
      <point x="439" y="393"/>
      <point x="373" y="393" type="curve" smooth="yes"/>
      <point x="346" y="393" type="line"/>
    </contour>
    <contour>
      <point x="176" y="95" type="line"/>
      <point x="176" y="324" type="line"/>
      <point x="286" y="324" type="line"/>
      <point x="286" y="95" type="line"/>
    </contour>
    <contour>
      <point x="346" y="324" type="line"/>
      <point x="377" y="324" type="line" smooth="yes"/>
      <point x="449" y="324"/>
      <point x="494" y="292"/>
      <point x="494" y="227" type="curve" smooth="yes" name="hr02"/>
      <point x="494" y="192" type="line" smooth="yes"/>
      <point x="494" y="127"/>
      <point x="449" y="95"/>
      <point x="377" y="95" type="curve" smooth="yes"/>
      <point x="346" y="95" type="line"/>
    </contour>
  </outline>
</glyph>
<glyph name="Germandbls" format="1">
  <advance width="700"/>
  <unicode hex="1E9E"/>
  <outline>
    <contour>
      <point x="648" y="196" type="curve" smooth="yes"/>
      <point x="648" y="325"/>
      <point x="562" y="399"/>
      <point x="423" y="401" type="curve"/>
      <point x="423" y="405" type="line"/>
      <point x="604" y="616" type="line"/>
      <point x="604" y="698" type="line"/>
      <point x="93" y="698" type="line"/>
      <point x="93" y="0" type="line"/>
      <point x="177" y="0" type="line"/>
      <point x="177" y="624" type="line"/>
      <point x="519" y="624" type="line"/>
      <point x="334" y="409" type="line"/>
      <point x="334" y="332" type="line"/>
      <point x="428" y="332" type="line"/>
      <point x="512" y="332"/>
      <point x="558" y="285"/>
      <point x="558" y="211" type="curve" smooth="yes"/>
      <point x="558" y="181" type="line" smooth="yes"/>
      <point x="558" y="107"/>
      <point x="512" y="59"/>
      <point x="428" y="59" type="curve" smooth="yes" name="hr01"/>
      <point x="370" y="59"/>
      <point x="322" y="84"/>
      <point x="287" y="130" type="curve"/>
      <point x="229" y="81" type="line"/>
      <point x="275" y="17"/>
      <point x="339" y="-12"/>
      <point x="428" y="-12" type="curve" smooth="yes"/>
      <point x="562" y="-12"/>
      <point x="648" y="65"/>
    </contour>
  </outline>
</glyph>
<glyph name="endash" format="1">
  <advance width="588"/>
  <unicode hex="2013"/>
  <outline>
    <contour>
      <point x="552" y="266" type="line" name="hr00"/>
      <point x="552" y="342" type="line"/>
      <point x="36" y="342" type="line"/>
      <point x="36" y="266" type="line"/>
    </contour>
  </outline>
</glyph>
<glyph name="emdash" format="1">
  <advance width="780"/>
  <unicode hex="2014"/>
  <outline>
    <contour>
      <point x="744" y="266" type="line" name="hr00"/>
      <point x="744" y="342" type="line"/>
      <point x="36" y="342" type="line"/>
      <point x="36" y="266" type="line"/>
    </contour>
  </outline>
</glyph>
<glyph name="quoteleft" format="1">
  <advance width="273"/>
  <unicode hex="2018"/>
  <outline>
    <contour>
      <point x="132" y="490" type="curve" smooth="yes" name="hr00"/>
      <point x="174" y="490"/>
      <point x="193" y="514"/>
      <point x="193" y="549" type="curve" smooth="yes"/>
      <point x="193" y="563" type="line" smooth="yes"/>
      <point x="193" y="590"/>
      <point x="181" y="610"/>
      <point x="154" y="616" type="curve"/>
      <point x="165" y="663"/>
      <point x="189" y="698"/>
      <point x="229" y="740" type="curve"/>
      <point x="162" y="740" type="line"/>
      <point x="105" y="691"/>
      <point x="71" y="617"/>
      <point x="71" y="563" type="curve" smooth="yes"/>
      <point x="71" y="549" type="line" smooth="yes"/>
      <point x="71" y="514"/>
      <point x="90" y="490"/>
    </contour>
  </outline>
</glyph>
<glyph name="quotesinglbase" format="1">
  <advance width="274"/>
  <unicode hex="201A"/>
  <outline>
    <contour>
      <point x="132" y="134" type="curve" smooth="yes" name="hr00"/>
      <point x="90" y="134"/>
      <point x="71" y="110"/>
      <point x="71" y="75" type="curve" smooth="yes"/>
      <point x="71" y="61" type="line" smooth="yes"/>
      <point x="71" y="34"/>
      <point x="83" y="14"/>
      <point x="110" y="8" type="curve"/>
      <point x="99" y="-39"/>
      <point x="75" y="-74"/>
      <point x="35" y="-116" type="curve"/>
      <point x="102" y="-116" type="line"/>
      <point x="159" y="-67"/>
      <point x="193" y="7"/>
      <point x="193" y="61" type="curve" smooth="yes"/>
      <point x="193" y="75" type="line" smooth="yes"/>
      <point x="193" y="110"/>
      <point x="174" y="134"/>
    </contour>
  </outline>
</glyph>
<glyph name="dagger" format="1">
  <advance width="552"/>
  <unicode hex="2020"/>
  <outline>
    <contour>
      <point x="311" y="-200" type="line" name="hr00"/>
      <point x="311" y="452" type="line"/>
      <point x="502" y="452" type="line"/>
      <point x="502" y="516" type="line"/>
      <point x="311" y="516" type="line"/>
      <point x="311" y="740" type="line"/>
      <point x="241" y="740" type="line"/>
      <point x="241" y="516" type="line"/>
      <point x="50" y="516" type="line"/>
      <point x="50" y="452" type="line"/>
      <point x="241" y="452" type="line"/>
      <point x="241" y="-200" type="line"/>
    </contour>
  </outline>
</glyph>
<glyph name="daggerdbl" format="1">
  <advance width="552"/>
  <unicode hex="2021"/>
  <outline>
    <contour>
      <point x="311" y="-200" type="line" name="hr00"/>
      <point x="311" y="24" type="line"/>
      <point x="502" y="24" type="line"/>
      <point x="502" y="88" type="line"/>
      <point x="311" y="88" type="line"/>
      <point x="311" y="452" type="line"/>
      <point x="502" y="452" type="line"/>
      <point x="502" y="516" type="line"/>
      <point x="311" y="516" type="line"/>
      <point x="311" y="740" type="line"/>
      <point x="241" y="740" type="line"/>
      <point x="241" y="516" type="line"/>
      <point x="50" y="516" type="line"/>
      <point x="50" y="452" type="line"/>
      <point x="241" y="452" type="line"/>
      <point x="241" y="88" type="line"/>
      <point x="50" y="88" type="line"/>
      <point x="50" y="24" type="line"/>
      <point x="241" y="24" type="line"/>
      <point x="241" y="-200" type="line"/>
    </contour>
  </outline>
</glyph>
<glyph name="bullet" format="1">
  <advance width="396"/>
  <unicode hex="2022"/>
  <outline>
    <contour>
      <point x="198" y="186" type="curve" smooth="yes" name="hr00"/>
      <point x="287" y="186"/>
      <point x="320" y="231"/>
      <point x="320" y="290" type="curve" smooth="yes"/>
      <point x="320" y="318" type="line" smooth="yes"/>
      <point x="320" y="377"/>
      <point x="287" y="422"/>
      <point x="198" y="422" type="curve" smooth="yes"/>
      <point x="109" y="422"/>
      <point x="76" y="377"/>
      <point x="76" y="318" type="curve" smooth="yes"/>
      <point x="76" y="290" type="line" smooth="yes"/>
      <point x="76" y="231"/>
      <point x="109" y="186"/>
    </contour>
  </outline>
</glyph>
<glyph name="perthousand" format="1">
  <advance width="1306"/>
  <unicode hex="2030"/>
  <outline>
    <contour>
      <point x="260" y="0" type="line"/>
      <point x="744" y="698" type="line"/>
      <point x="667" y="698" type="line"/>
      <point x="183" y="0" type="line"/>
    </contour>
    <contour>
      <point x="223" y="314" type="curve" smooth="yes"/>
      <point x="324" y="314"/>
      <point x="381" y="384"/>
      <point x="381" y="512" type="curve" smooth="yes"/>
      <point x="381" y="640"/>
      <point x="324" y="710"/>
      <point x="223" y="710" type="curve" smooth="yes" name="hr01"/>
      <point x="122" y="710"/>
      <point x="65" y="640"/>
      <point x="65" y="512" type="curve" smooth="yes"/>
      <point x="65" y="384"/>
      <point x="122" y="314"/>
    </contour>
    <contour>
      <point x="223" y="366" type="curve" smooth="yes"/>
      <point x="165" y="366"/>
      <point x="137" y="406"/>
      <point x="137" y="482" type="curve" smooth="yes"/>
      <point x="137" y="542" type="line" smooth="yes"/>
      <point x="137" y="618"/>
      <point x="165" y="658"/>
      <point x="223" y="658" type="curve" smooth="yes"/>
      <point x="281" y="658"/>
      <point x="309" y="618"/>
      <point x="309" y="542" type="curve" smooth="yes"/>
      <point x="309" y="482" type="line" smooth="yes"/>
      <point x="309" y="406"/>
      <point x="281" y="366"/>
    </contour>
    <contour>
      <point x="704" y="-12" type="curve" smooth="yes"/>
      <point x="805" y="-12"/>
      <point x="862" y="58"/>
      <point x="862" y="186" type="curve" smooth="yes"/>
      <point x="862" y="314"/>
      <point x="805" y="384"/>
      <point x="704" y="384" type="curve" smooth="yes" name="hr02"/>
      <point x="603" y="384"/>
      <point x="546" y="314"/>
      <point x="546" y="186" type="curve" smooth="yes"/>
      <point x="546" y="58"/>
      <point x="603" y="-12"/>
    </contour>
    <contour>
      <point x="704" y="40" type="curve" smooth="yes"/>
      <point x="646" y="40"/>
      <point x="618" y="80"/>
      <point x="618" y="156" type="curve" smooth="yes"/>
      <point x="618" y="216" type="line" smooth="yes"/>
      <point x="618" y="292"/>
      <point x="646" y="332"/>
      <point x="704" y="332" type="curve" smooth="yes"/>
      <point x="762" y="332"/>
      <point x="790" y="292"/>
      <point x="790" y="216" type="curve" smooth="yes"/>
      <point x="790" y="156" type="line" smooth="yes"/>
      <point x="790" y="80"/>
      <point x="762" y="40"/>
    </contour>
    <contour>
      <point x="1083" y="-12" type="curve" smooth="yes"/>
      <point x="1184" y="-12"/>
      <point x="1241" y="58"/>
      <point x="1241" y="186" type="curve" smooth="yes"/>
      <point x="1241" y="314"/>
      <point x="1184" y="384"/>
      <point x="1083" y="384" type="curve" smooth="yes"/>
      <point x="982" y="384"/>
      <point x="925" y="314"/>
      <point x="925" y="186" type="curve" smooth="yes"/>
      <point x="925" y="58"/>
      <point x="982" y="-12"/>
    </contour>
    <contour>
      <point x="1083" y="40" type="curve" smooth="yes"/>
      <point x="1025" y="40"/>
      <point x="997" y="80"/>
      <point x="997" y="156" type="curve" smooth="yes"/>
      <point x="997" y="216" type="line" smooth="yes"/>
      <point x="997" y="292"/>
      <point x="1025" y="332"/>
      <point x="1083" y="332" type="curve" smooth="yes"/>
      <point x="1141" y="332"/>
      <point x="1169" y="292"/>
      <point x="1169" y="216" type="curve" smooth="yes"/>
      <point x="1169" y="156" type="line" smooth="yes"/>
      <point x="1169" y="80"/>
      <point x="1141" y="40"/>
    </contour>
  </outline>
</glyph>
<glyph name="guilsinglleft" format="1">
  <advance width="304"/>
  <unicode hex="2039"/>
  <outline>
    <contour>
      <point x="252" y="134" type="line" name="hr00"/>
      <point x="115" y="284" type="line"/>
      <point x="252" y="434" type="line"/>
      <point x="228" y="488" type="line"/>
      <point x="36" y="322" type="line"/>
      <point x="36" y="246" type="line"/>
      <point x="228" y="80" type="line"/>
    </contour>
  </outline>
</glyph>
<glyph name="guilsinglright" format="1">
  <advance width="304"/>
  <unicode hex="203A"/>
  <outline>
    <contour>
      <point x="52" y="134" type="line" name="hr00"/>
      <point x="76" y="80" type="line"/>
      <point x="268" y="246" type="line"/>
      <point x="268" y="322" type="line"/>
      <point x="76" y="488" type="line"/>
      <point x="52" y="434" type="line"/>
      <point x="189" y="284" type="line"/>
    </contour>
  </outline>
</glyph>
<glyph name="fraction" format="1">
  <advance width="147"/>
  <unicode hex="2044"/>
  <outline>
    <contour>
      <point x="-136" y="0" type="line" name="hr00"/>
      <point x="350" y="698" type="line"/>
      <point x="283" y="698" type="line"/>
      <point x="-203" y="0" type="line"/>
    </contour>
  </outline>
</glyph>
<glyph name="zerosuperior" format="1">
  <advance width="378"/>
  <unicode hex="2070"/>
  <outline>
    <contour>
      <point x="189" y="323" type="curve" smooth="yes" name="hr00"/>
      <point x="289" y="323"/>
      <point x="334" y="392"/>
      <point x="334" y="514" type="curve" smooth="yes"/>
      <point x="334" y="635"/>
      <point x="289" y="704"/>
      <point x="189" y="704" type="curve" smooth="yes"/>
      <point x="89" y="704"/>
      <point x="44" y="635"/>
      <point x="44" y="513" type="curve" smooth="yes"/>
      <point x="44" y="392"/>
      <point x="89" y="323"/>
    </contour>
    <contour>
      <point x="189" y="374" type="curve" smooth="yes"/>
      <point x="132" y="374"/>
      <point x="111" y="416"/>
      <point x="111" y="481" type="curve" smooth="yes"/>
      <point x="111" y="546" type="line" smooth="yes"/>
      <point x="111" y="611"/>
      <point x="132" y="653"/>
      <point x="189" y="653" type="curve" smooth="yes"/>
      <point x="246" y="653"/>
      <point x="267" y="611"/>
      <point x="267" y="546" type="curve" smooth="yes"/>
      <point x="267" y="481" type="line" smooth="yes"/>
      <point x="267" y="416"/>
      <point x="246" y="374"/>
    </contour>
  </outline>
</glyph>
<glyph name="foursuperior" format="1">
  <advance width="346"/>
  <unicode hex="2074"/>
  <outline>
    <contour>
      <point x="269" y="329" type="line" name="hr00"/>
      <point x="269" y="401" type="line"/>
      <point x="325" y="401" type="line"/>
      <point x="325" y="449" type="line"/>
      <point x="269" y="449" type="line"/>
      <point x="269" y="698" type="line"/>
      <point x="184" y="698" type="line"/>
      <point x="20" y="453" type="line"/>
      <point x="20" y="401" type="line"/>
      <point x="209" y="401" type="line"/>
      <point x="209" y="329" type="line"/>
    </contour>
    <contour>
      <point x="209" y="449" type="line"/>
      <point x="75" y="449" type="line"/>
      <point x="205" y="641" type="line"/>
      <point x="209" y="641" type="line"/>
    </contour>
  </outline>
</glyph>
<glyph name="sixsuperior" format="1">
  <advance width="359"/>
  <unicode hex="2076"/>
  <outline>
    <contour>
      <point x="181" y="323" type="curve" smooth="yes" name="hr00"/>
      <point x="266" y="323"/>
      <point x="322" y="374"/>
      <point x="322" y="448" type="curve" smooth="yes"/>
      <point x="322" y="518"/>
      <point x="271" y="562"/>
      <point x="203" y="562" type="curve" smooth="yes"/>
      <point x="153" y="562"/>
      <point x="126" y="537"/>
      <point x="109" y="509" type="curve"/>
      <point x="105" y="510" type="line"/>
      <point x="124" y="589"/>
      <point x="176" y="637"/>
      <point x="268" y="698" type="curve"/>
      <point x="184" y="698" type="line"/>
      <point x="118" y="657"/>
      <point x="40" y="573"/>
      <point x="40" y="467" type="curve" smooth="yes"/>
      <point x="40" y="378"/>
      <point x="92" y="323"/>
    </contour>
    <contour>
      <point x="181" y="371" type="curve" smooth="yes"/>
      <point x="135" y="371"/>
      <point x="105" y="394"/>
      <point x="105" y="440" type="curve" smooth="yes"/>
      <point x="105" y="445" type="line" smooth="yes"/>
      <point x="105" y="491"/>
      <point x="135" y="514"/>
      <point x="181" y="514" type="curve" smooth="yes"/>
      <point x="227" y="514"/>
      <point x="257" y="491"/>
      <point x="257" y="445" type="curve" smooth="yes"/>
      <point x="257" y="440" type="line" smooth="yes"/>
      <point x="257" y="394"/>
      <point x="227" y="371"/>
    </contour>
  </outline>
</glyph>
<glyph name="sevensuperior" format="1">
  <advance width="335"/>
  <unicode hex="2077"/>
  <outline>
    <contour>
      <point x="159" y="329" type="line" name="hr00"/>
      <point x="303" y="646" type="line"/>
      <point x="303" y="698" type="line"/>
      <point x="31" y="698" type="line"/>
      <point x="31" y="580" type="line"/>
      <point x="85" y="580" type="line"/>
      <point x="85" y="648" type="line"/>
      <point x="240" y="648" type="line"/>
      <point x="92" y="329" type="line"/>
    </contour>
  </outline>
</glyph>
<glyph name="ninesuperior" format="1">
  <advance width="359"/>
  <unicode hex="2079"/>
  <outline>
    <contour>
      <point x="318" y="560" type="curve" smooth="yes" name="hr00"/>
      <point x="318" y="649"/>
      <point x="266" y="704"/>
      <point x="178" y="704" type="curve" smooth="yes"/>
      <point x="92" y="704"/>
      <point x="37" y="653"/>
      <point x="37" y="579" type="curve" smooth="yes"/>
      <point x="37" y="509"/>
      <point x="87" y="464"/>
      <point x="156" y="464" type="curve" smooth="yes"/>
      <point x="206" y="464"/>
      <point x="233" y="489"/>
      <point x="249" y="518" type="curve"/>
      <point x="253" y="517" type="line"/>
      <point x="234" y="438"/>
      <point x="182" y="390"/>
      <point x="91" y="329" type="curve"/>
      <point x="175" y="329" type="line"/>
      <point x="242" y="370"/>
      <point x="318" y="454"/>
    </contour>
    <contour>
      <point x="177" y="512" type="curve" smooth="yes"/>
      <point x="131" y="512"/>
      <point x="101" y="535"/>
      <point x="101" y="581" type="curve" smooth="yes"/>
      <point x="101" y="587" type="line" smooth="yes"/>
      <point x="101" y="633"/>
      <point x="131" y="656"/>
      <point x="177" y="656" type="curve" smooth="yes"/>
      <point x="223" y="656"/>
      <point x="253" y="633"/>
      <point x="253" y="587" type="curve" smooth="yes"/>
      <point x="253" y="581" type="line" smooth="yes"/>
      <point x="253" y="535"/>
      <point x="223" y="512"/>
    </contour>
  </outline>
</glyph>
<glyph name="zeroinferior" format="1">
  <advance width="378"/>
  <unicode hex="2080"/>
  <outline>
    <contour>
      <point x="189" y="-6" type="curve" smooth="yes" name="hr00"/>
      <point x="289" y="-6"/>
      <point x="334" y="63"/>
      <point x="334" y="185" type="curve" smooth="yes"/>
      <point x="334" y="306"/>
      <point x="289" y="375"/>
      <point x="189" y="375" type="curve" smooth="yes"/>
      <point x="89" y="375"/>
      <point x="44" y="306"/>
      <point x="44" y="184" type="curve" smooth="yes"/>
      <point x="44" y="63"/>
      <point x="89" y="-6"/>
    </contour>
    <contour>
      <point x="189" y="45" type="curve" smooth="yes"/>
      <point x="132" y="45"/>
      <point x="111" y="87"/>
      <point x="111" y="152" type="curve" smooth="yes"/>
      <point x="111" y="217" type="line" smooth="yes"/>
      <point x="111" y="282"/>
      <point x="132" y="324"/>
      <point x="189" y="324" type="curve" smooth="yes"/>
      <point x="246" y="324"/>
      <point x="267" y="282"/>
      <point x="267" y="217" type="curve" smooth="yes"/>
      <point x="267" y="152" type="line" smooth="yes"/>
      <point x="267" y="87"/>
      <point x="246" y="45"/>
    </contour>
  </outline>
</glyph>
<glyph name="oneinferior" format="1">
  <advance width="359"/>
  <unicode hex="2081"/>
  <outline>
    <contour>
      <point x="325" y="0" type="line" name="hr00"/>
      <point x="325" y="50" type="line"/>
      <point x="227" y="50" type="line"/>
      <point x="227" y="369" type="line"/>
      <point x="134" y="369" type="line"/>
      <point x="32" y="266" type="line"/>
      <point x="68" y="229" type="line"/>
      <point x="158" y="318" type="line"/>
      <point x="164" y="318" type="line"/>
      <point x="164" y="50" type="line"/>
      <point x="55" y="50" type="line"/>
      <point x="55" y="0" type="line"/>
    </contour>
  </outline>
</glyph>
<glyph name="twoinferior" format="1">
  <advance width="346"/>
  <unicode hex="2082"/>
  <outline>
    <contour>
      <point x="311" y="50" type="line" name="hr00"/>
      <point x="106" y="50" type="line"/>
      <point x="203" y="125" type="line" smooth="yes"/>
      <point x="259" y="168"/>
      <point x="298" y="208"/>
      <point x="298" y="266" type="curve" smooth="yes"/>
      <point x="298" y="330"/>
      <point x="252" y="375"/>
      <point x="170" y="375" type="curve" smooth="yes"/>
      <point x="90" y="375"/>
      <point x="50" y="332"/>
      <point x="34" y="285" type="curve"/>
      <point x="88" y="265" type="line"/>
      <point x="99" y="297"/>
      <point x="120" y="323"/>
      <point x="166" y="323" type="curve" smooth="yes"/>
      <point x="208" y="323"/>
      <point x="231" y="300"/>
      <point x="231" y="266" type="curve" smooth="yes"/>
      <point x="231" y="260" type="line" smooth="yes"/>
      <point x="231" y="226"/>
      <point x="208" y="194"/>
      <point x="169" y="162" type="curve" smooth="yes"/>
      <point x="39" y="57" type="line"/>
      <point x="39" y="0" type="line"/>
      <point x="311" y="0" type="line"/>
    </contour>
  </outline>
</glyph>
<glyph name="fourinferior" format="1">
  <advance width="346"/>
  <unicode hex="2084"/>
  <outline>
    <contour>
      <point x="269" y="0" type="line" name="hr00"/>
      <point x="269" y="72" type="line"/>
      <point x="325" y="72" type="line"/>
      <point x="325" y="120" type="line"/>
      <point x="269" y="120" type="line"/>
      <point x="269" y="369" type="line"/>
      <point x="184" y="369" type="line"/>
      <point x="20" y="124" type="line"/>
      <point x="20" y="72" type="line"/>
      <point x="209" y="72" type="line"/>
      <point x="209" y="0" type="line"/>
    </contour>
    <contour>
      <point x="209" y="120" type="line"/>
      <point x="75" y="120" type="line"/>
      <point x="205" y="312" type="line"/>
      <point x="209" y="312" type="line"/>
    </contour>
  </outline>
</glyph>
<glyph name="fiveinferior" format="1">
  <advance width="348"/>
  <unicode hex="2085"/>
  <outline>
    <contour>
      <point x="291" y="319" type="line" name="hr00"/>
      <point x="291" y="369" type="line"/>
      <point x="63" y="369" type="line"/>
      <point x="49" y="163" type="line"/>
      <point x="101" y="156" type="line"/>
      <point x="116" y="171"/>
      <point x="134" y="185"/>
      <point x="169" y="185" type="curve" smooth="yes"/>
      <point x="219" y="185"/>
      <point x="245" y="159"/>
      <point x="245" y="117" type="curve" smooth="yes"/>
      <point x="245" y="112" type="line" smooth="yes"/>
      <point x="245" y="70"/>
      <point x="219" y="44"/>
      <point x="169" y="44" type="curve" smooth="yes"/>
      <point x="123" y="44"/>
      <point x="101" y="65"/>
      <point x="81" y="94" type="curve"/>
      <point x="36" y="60" type="line"/>
      <point x="60" y="26"/>
      <point x="97" y="-6"/>
      <point x="168" y="-6" type="curve" smooth="yes"/>
      <point x="258" y="-6"/>
      <point x="311" y="46"/>
      <point x="311" y="120" type="curve" smooth="yes"/>
      <point x="311" y="192"/>
      <point x="258" y="235"/>
      <point x="189" y="235" type="curve" smooth="yes"/>
      <point x="144" y="235"/>
      <point x="123" y="215"/>
      <point x="105" y="186" type="curve"/>
      <point x="101" y="186" type="line"/>
      <point x="112" y="319" type="line"/>
    </contour>
  </outline>
</glyph>
<glyph name="sixinferior" format="1">
  <advance width="359"/>
  <unicode hex="2086"/>
  <outline>
    <contour>
      <point x="181" y="-6" type="curve" smooth="yes" name="hr00"/>
      <point x="266" y="-6"/>
      <point x="322" y="45"/>
      <point x="322" y="119" type="curve" smooth="yes"/>
      <point x="322" y="189"/>
      <point x="271" y="233"/>
      <point x="203" y="233" type="curve" smooth="yes"/>
      <point x="153" y="233"/>
      <point x="126" y="208"/>
      <point x="109" y="180" type="curve"/>
      <point x="105" y="181" type="line"/>
      <point x="124" y="260"/>
      <point x="176" y="308"/>
      <point x="268" y="369" type="curve"/>
      <point x="184" y="369" type="line"/>
      <point x="118" y="328"/>
      <point x="40" y="244"/>
      <point x="40" y="138" type="curve" smooth="yes"/>
      <point x="40" y="49"/>
      <point x="92" y="-6"/>
    </contour>
    <contour>
      <point x="181" y="42" type="curve" smooth="yes"/>
      <point x="135" y="42"/>
      <point x="105" y="65"/>
      <point x="105" y="111" type="curve" smooth="yes"/>
      <point x="105" y="116" type="line" smooth="yes"/>
      <point x="105" y="162"/>
      <point x="135" y="185"/>
      <point x="181" y="185" type="curve" smooth="yes"/>
      <point x="227" y="185"/>
      <point x="257" y="162"/>
      <point x="257" y="116" type="curve" smooth="yes"/>
      <point x="257" y="111" type="line" smooth="yes"/>
      <point x="257" y="65"/>
      <point x="227" y="42"/>
    </contour>
  </outline>
</glyph>
<glyph name="seveninferior" format="1">
  <advance width="335"/>
  <unicode hex="2087"/>
  <outline>
    <contour>
      <point x="159" y="0" type="line" name="hr00"/>
      <point x="303" y="317" type="line"/>
      <point x="303" y="369" type="line"/>
      <point x="31" y="369" type="line"/>
      <point x="31" y="252" type="line"/>
      <point x="85" y="252" type="line"/>
      <point x="85" y="319" type="line"/>
      <point x="240" y="319" type="line"/>
      <point x="92" y="0" type="line"/>
    </contour>
  </outline>
</glyph>
<glyph name="eightinferior" format="1">
  <advance width="376"/>
  <unicode hex="2088"/>
  <outline>
    <contour>
      <point x="188" y="-6" type="curve" smooth="yes"/>
      <point x="281" y="-6"/>
      <point x="332" y="40"/>
      <point x="332" y="101" type="curve" smooth="yes"/>
      <point x="332" y="149"/>
      <point x="300" y="179"/>
      <point x="252" y="191" type="curve"/>
      <point x="252" y="195" type="line"/>
      <point x="292" y="208"/>
      <point x="319" y="238"/>
      <point x="319" y="280" type="curve" smooth="yes" name="hr01"/>
      <point x="319" y="337"/>
      <point x="271" y="375"/>
      <point x="188" y="375" type="curve" smooth="yes"/>
      <point x="105" y="375"/>
      <point x="57" y="337"/>
      <point x="57" y="280" type="curve" smooth="yes"/>
      <point x="57" y="238"/>
      <point x="84" y="208"/>
      <point x="124" y="195" type="curve"/>
      <point x="124" y="191" type="line"/>
      <point x="77" y="179"/>
      <point x="44" y="149"/>
      <point x="44" y="101" type="curve" smooth="yes" name="hr02"/>
      <point x="44" y="40"/>
      <point x="95" y="-6"/>
    </contour>
    <contour>
      <point x="188" y="42" type="curve" smooth="yes"/>
      <point x="138" y="42"/>
      <point x="111" y="63"/>
      <point x="111" y="99" type="curve" smooth="yes"/>
      <point x="111" y="111" type="line" smooth="yes"/>
      <point x="111" y="147"/>
      <point x="138" y="168"/>
      <point x="188" y="168" type="curve" smooth="yes"/>
      <point x="238" y="168"/>
      <point x="265" y="147"/>
      <point x="265" y="111" type="curve" smooth="yes"/>
      <point x="265" y="99" type="line" smooth="yes"/>
      <point x="265" y="63"/>
      <point x="238" y="42"/>
    </contour>
    <contour>
      <point x="188" y="214" type="curve" smooth="yes"/>
      <point x="142" y="214"/>
      <point x="119" y="233"/>
      <point x="119" y="266" type="curve" smooth="yes" name="hr03"/>
      <point x="119" y="275" type="line" smooth="yes"/>
      <point x="119" y="308"/>
      <point x="142" y="327"/>
      <point x="188" y="327" type="curve" smooth="yes"/>
      <point x="234" y="327"/>
      <point x="257" y="308"/>
      <point x="257" y="275" type="curve" smooth="yes"/>
      <point x="257" y="266" type="line" smooth="yes"/>
      <point x="257" y="233"/>
      <point x="234" y="214"/>
    </contour>
  </outline>
</glyph>
<glyph name="nineinferior" format="1">
  <advance width="359"/>
  <unicode hex="2089"/>
  <outline>
    <contour>
      <point x="318" y="231" type="curve" smooth="yes" name="hr00"/>
      <point x="318" y="320"/>
      <point x="266" y="375"/>
      <point x="178" y="375" type="curve" smooth="yes"/>
      <point x="92" y="375"/>
      <point x="37" y="324"/>
      <point x="37" y="250" type="curve" smooth="yes"/>
      <point x="37" y="180"/>
      <point x="87" y="135"/>
      <point x="156" y="135" type="curve" smooth="yes"/>
      <point x="206" y="135"/>
      <point x="233" y="160"/>
      <point x="249" y="189" type="curve"/>
      <point x="253" y="188" type="line"/>
      <point x="234" y="109"/>
      <point x="182" y="61"/>
      <point x="91" y="0" type="curve"/>
      <point x="175" y="0" type="line"/>
      <point x="242" y="41"/>
      <point x="318" y="125"/>
    </contour>
    <contour>
      <point x="177" y="183" type="curve" smooth="yes"/>
      <point x="131" y="183"/>
      <point x="101" y="206"/>
      <point x="101" y="252" type="curve" smooth="yes"/>
      <point x="101" y="258" type="line" smooth="yes"/>
      <point x="101" y="304"/>
      <point x="131" y="327"/>
      <point x="177" y="327" type="curve" smooth="yes"/>
      <point x="223" y="327"/>
      <point x="253" y="304"/>
      <point x="253" y="258" type="curve" smooth="yes"/>
      <point x="253" y="252" type="line" smooth="yes"/>
      <point x="253" y="206"/>
      <point x="223" y="183"/>
    </contour>
  </outline>
</glyph>
<glyph name="lira" format="1">
  <advance width="595"/>
  <unicode hex="20A4"/>
  <outline>
    <contour>
      <point x="525" y="75" type="line"/>
      <point x="161" y="75" type="line"/>
      <point x="161" y="80" type="line"/>
      <point x="199" y="106"/>
      <point x="233" y="166"/>
      <point x="236" y="238" type="curve"/>
      <point x="431" y="238" type="line"/>
      <point x="431" y="305" type="line"/>
      <point x="229" y="305" type="line"/>
      <point x="223" y="335"/>
      <point x="212" y="364"/>
      <point x="203" y="393" type="curve"/>
      <point x="431" y="393" type="line"/>
      <point x="431" y="460" type="line"/>
      <point x="189" y="460" type="line"/>
      <point x="188" y="470"/>
      <point x="187" y="480"/>
      <point x="187" y="491" type="curve" smooth="yes" name="hr01"/>
      <point x="187" y="588"/>
      <point x="241" y="636"/>
      <point x="327" y="636" type="curve" smooth="yes"/>
      <point x="400" y="636"/>
      <point x="447" y="603"/>
      <point x="481" y="550" type="curve"/>
      <point x="544" y="596" type="line"/>
      <point x="499" y="667"/>
      <point x="432" y="710"/>
      <point x="330" y="710" type="curve" smooth="yes"/>
      <point x="185" y="710"/>
      <point x="100" y="623"/>
      <point x="100" y="499" type="curve" smooth="yes"/>
      <point x="100" y="485"/>
      <point x="101" y="472"/>
      <point x="103" y="460" type="curve"/>
      <point x="60" y="460" type="line"/>
      <point x="60" y="393" type="line"/>
      <point x="119" y="393" type="line"/>
      <point x="128" y="364"/>
      <point x="139" y="336"/>
      <point x="146" y="305" type="curve"/>
      <point x="60" y="305" type="line"/>
      <point x="60" y="238" type="line"/>
      <point x="154" y="238" type="line" name="hr02"/>
      <point x="154" y="181"/>
      <point x="138" y="124"/>
      <point x="82" y="100" type="curve"/>
      <point x="82" y="0" type="line"/>
      <point x="525" y="0" type="line"/>
    </contour>
  </outline>
</glyph>
<glyph name="naira" format="1">
  <advance width="696"/>
  <unicode hex="20A6"/>
  <outline>
    <contour>
      <point x="502" y="0" type="line" name="hr00"/>
      <point x="601" y="0" type="line"/>
      <point x="601" y="234" type="line"/>
      <point x="681" y="234" type="line"/>
      <point x="681" y="301" type="line"/>
      <point x="601" y="301" type="line"/>
      <point x="601" y="397" type="line"/>
      <point x="681" y="397" type="line"/>
      <point x="681" y="464" type="line"/>
      <point x="601" y="464" type="line"/>
      <point x="601" y="698" type="line"/>
      <point x="519" y="698" type="line"/>
      <point x="519" y="461" type="line"/>
      <point x="329" y="461" type="line"/>
      <point x="190" y="698" type="line"/>
      <point x="95" y="698" type="line"/>
      <point x="95" y="464" type="line"/>
      <point x="15" y="464" type="line"/>
      <point x="15" y="397" type="line"/>
      <point x="95" y="397" type="line"/>
      <point x="95" y="301" type="line"/>
      <point x="15" y="301" type="line"/>
      <point x="15" y="234" type="line"/>
      <point x="95" y="234" type="line"/>
      <point x="95" y="0" type="line"/>
      <point x="177" y="0" type="line"/>
      <point x="177" y="237" type="line"/>
      <point x="362" y="237" type="line"/>
    </contour>
    <contour>
      <point x="177" y="298" type="line"/>
      <point x="177" y="567" type="line"/>
      <point x="180" y="567" type="line"/>
      <point x="332" y="298" type="line"/>
    </contour>
    <contour>
      <point x="359" y="400" type="line"/>
      <point x="519" y="400" type="line"/>
      <point x="519" y="120" type="line"/>
      <point x="516" y="120" type="line"/>
    </contour>
  </outline>
</glyph>
<glyph name="sheqel" format="1">
  <advance width="770"/>
  <unicode hex="20AA"/>
  <outline>
    <contour>
      <point x="261" y="0" type="line" name="hr00"/>
      <point x="491" y="0" type="line" smooth="yes"/>
      <point x="599" y="0"/>
      <point x="677" y="65"/>
      <point x="677" y="198" type="curve" smooth="yes"/>
      <point x="677" y="698" type="line"/>
      <point x="597" y="698" type="line"/>
      <point x="597" y="182" type="line" smooth="yes"/>
      <point x="597" y="95"/>
      <point x="545" y="70"/>
      <point x="491" y="70" type="curve" smooth="yes"/>
      <point x="341" y="70" type="line"/>
      <point x="341" y="540" type="line"/>
      <point x="261" y="540" type="line"/>
    </contour>
    <contour>
      <point x="173" y="0" type="line"/>
      <point x="173" y="628" type="line"/>
      <point x="324" y="628" type="line" smooth="yes"/>
      <point x="379" y="628"/>
      <point x="429" y="603"/>
      <point x="429" y="516" type="curve" smooth="yes"/>
      <point x="429" y="158" type="line"/>
      <point x="509" y="158" type="line"/>
      <point x="509" y="500" type="line" smooth="yes"/>
      <point x="509" y="633"/>
      <point x="433" y="698"/>
      <point x="325" y="698" type="curve" smooth="yes"/>
      <point x="93" y="698" type="line"/>
      <point x="93" y="0" type="line"/>
    </contour>
  </outline>
</glyph>
<glyph name="Euro" format="1">
  <advance width="625"/>
  <unicode hex="20AC"/>
  <outline>
    <contour>
      <point x="338" y="-12" type="curve" smooth="yes" name="hr00"/>
      <point x="466" y="-12"/>
      <point x="538" y="55"/>
      <point x="581" y="146" type="curve"/>
      <point x="516" y="189" type="line"/>
      <point x="487" y="114"/>
      <point x="426" y="62"/>
      <point x="338" y="62" type="curve" smooth="yes"/>
      <point x="232" y="62"/>
      <point x="166" y="131"/>
      <point x="149" y="234" type="curve"/>
      <point x="406" y="234" type="line"/>
      <point x="406" y="301" type="line"/>
      <point x="145" y="301" type="line"/>
      <point x="145" y="397" type="line"/>
      <point x="406" y="397" type="line"/>
      <point x="406" y="464" type="line"/>
      <point x="149" y="464" type="line"/>
      <point x="165" y="567"/>
      <point x="231" y="636"/>
      <point x="338" y="636" type="curve" smooth="yes"/>
      <point x="423" y="636"/>
      <point x="483" y="588"/>
      <point x="511" y="517" type="curve"/>
      <point x="576" y="557" type="line"/>
      <point x="532" y="653"/>
      <point x="454" y="710"/>
      <point x="338" y="710" type="curve" smooth="yes"/>
      <point x="162" y="710"/>
      <point x="58" y="582"/>
      <point x="58" y="349" type="curve" smooth="yes"/>
      <point x="58" y="116"/>
      <point x="162" y="-12"/>
    </contour>
  </outline>
</glyph>
<glyph name="kip" format="1">
  <advance width="617"/>
  <unicode hex="20AD"/>
  <outline>
    <contour>
      <point x="177" y="327" type="line" name="hr00"/>
      <point x="259" y="327" type="line"/>
      <point x="490" y="0" type="line"/>
      <point x="590" y="0" type="line"/>
      <point x="350" y="327" type="line"/>
      <point x="558" y="327" type="line"/>
      <point x="558" y="396" type="line"/>
      <point x="344" y="396" type="line"/>
      <point x="574" y="698" type="line"/>
      <point x="481" y="698" type="line"/>
      <point x="257" y="396" type="line"/>
      <point x="177" y="396" type="line"/>
      <point x="177" y="698" type="line"/>
      <point x="95" y="698" type="line"/>
      <point x="95" y="396" type="line"/>
      <point x="10" y="396" type="line"/>
      <point x="10" y="327" type="line"/>
      <point x="95" y="327" type="line"/>
      <point x="95" y="0" type="line"/>
      <point x="177" y="0" type="line"/>
    </contour>
  </outline>
</glyph>
<glyph name="peso" format="1">
  <advance width="628"/>
  <unicode hex="20B1"/>
  <outline>
    <contour>
      <point x="193" y="194" type="line" name="hr00"/>
      <point x="341" y="194" type="line" smooth="yes"/>
      <point x="438" y="194"/>
      <point x="495" y="246"/>
      <point x="519" y="332" type="curve"/>
      <point x="610" y="332" type="line"/>
      <point x="610" y="399" type="line"/>
      <point x="531" y="399" type="line"/>
      <point x="532" y="414"/>
      <point x="533" y="430"/>
      <point x="533" y="446" type="curve" smooth="yes"/>
      <point x="533" y="462"/>
      <point x="532" y="479"/>
      <point x="531" y="495" type="curve"/>
      <point x="610" y="495" type="line"/>
      <point x="610" y="562" type="line"/>
      <point x="519" y="562" type="line"/>
      <point x="494" y="647"/>
      <point x="437" y="698"/>
      <point x="341" y="698" type="curve" smooth="yes"/>
      <point x="110" y="698" type="line"/>
      <point x="110" y="562" type="line"/>
      <point x="30" y="562" type="line"/>
      <point x="30" y="495" type="line"/>
      <point x="110" y="495" type="line"/>
      <point x="110" y="399" type="line"/>
      <point x="30" y="399" type="line"/>
      <point x="30" y="332" type="line"/>
      <point x="110" y="332" type="line"/>
      <point x="110" y="0" type="line"/>
      <point x="193" y="0" type="line"/>
    </contour>
    <contour>
      <point x="193" y="626" type="line"/>
      <point x="341" y="626" type="line" smooth="yes"/>
      <point x="391" y="626"/>
      <point x="427" y="599"/>
      <point x="442" y="559" type="curve"/>
      <point x="193" y="559" type="line"/>
    </contour>
    <contour>
      <point x="193" y="396" type="line"/>
      <point x="193" y="498" type="line"/>
      <point x="450" y="498" type="line"/>
      <point x="450" y="396" type="line"/>
    </contour>
    <contour>
      <point x="193" y="266" type="line"/>
      <point x="193" y="335" type="line"/>
      <point x="444" y="335" type="line"/>
      <point x="430" y="293"/>
      <point x="392" y="266"/>
      <point x="341" y="266" type="curve" smooth="yes"/>
    </contour>
  </outline>
</glyph>
<glyph name="cedi" format="1">
  <advance width="628"/>
  <unicode hex="20B5"/>
  <outline>
    <contour>
      <point x="288" y="-82" type="line" name="hr00"/>
      <point x="303" y="0" type="line"/>
      <point x="313" y="-1"/>
      <point x="326" y="-2"/>
      <point x="337" y="-2" type="curve" smooth="yes"/>
      <point x="468" y="-2"/>
      <point x="541" y="66"/>
      <point x="584" y="157" type="curve"/>
      <point x="517" y="199" type="line"/>
      <point x="489" y="124"/>
      <point x="428" y="73"/>
      <point x="337" y="73" type="curve" smooth="yes"/>
      <point x="330" y="73"/>
      <point x="321" y="73"/>
      <point x="314" y="74" type="curve"/>
      <point x="408" y="614" type="line"/>
      <point x="459" y="595"/>
      <point x="492" y="556"/>
      <point x="511" y="508" type="curve"/>
      <point x="579" y="549" type="line"/>
      <point x="547" y="619"/>
      <point x="495" y="668"/>
      <point x="422" y="689" type="curve"/>
      <point x="438" y="780" type="line"/>
      <point x="373" y="780" type="line"/>
      <point x="359" y="699" type="line"/>
      <point x="353" y="700"/>
      <point x="343" y="700"/>
      <point x="337" y="700" type="curve" smooth="yes"/>
      <point x="165" y="700"/>
      <point x="58" y="582"/>
      <point x="58" y="349" type="curve" smooth="yes"/>
      <point x="58" y="165"/>
      <point x="126" y="51"/>
      <point x="240" y="12" type="curve"/>
      <point x="223" y="-82" type="line"/>
    </contour>
    <contour>
      <point x="148" y="293" type="curve"/>
      <point x="148" y="406" type="line" smooth="yes"/>
      <point x="148" y="538"/>
      <point x="217" y="626"/>
      <point x="337" y="626" type="curve" smooth="yes"/>
      <point x="348" y="626" type="line"/>
      <point x="254" y="90" type="line"/>
      <point x="185" y="123"/>
      <point x="148" y="196"/>
    </contour>
  </outline>
</glyph>
<glyph name="tenge" format="1">
  <advance width="608"/>
  <unicode hex="20B8"/>
  <outline>
    <contour>
      <point x="568" y="628" type="line" name="hr00"/>
      <point x="568" y="698" type="line"/>
      <point x="40" y="698" type="line"/>
      <point x="40" y="628" type="line"/>
    </contour>
    <contour>
      <point x="568" y="468" type="line"/>
      <point x="568" y="538" type="line"/>
      <point x="40" y="538" type="line"/>
      <point x="40" y="468" type="line"/>
      <point x="262" y="468" type="line"/>
      <point x="262" y="0" type="line"/>
      <point x="346" y="0" type="line"/>
      <point x="346" y="468" type="line"/>
    </contour>
  </outline>
</glyph>
